<svg width="1092" height="1150" viewBox="0 0 1092 1150" fill="none" xmlns="http://www.w3.org/2000/svg">
<rect width="1092" height="1150" rx="110.255" fill="#D9D9D9"/>
<rect x="69.0191" y="344.105" width="953.578" height="88.3655" rx="44.1828" fill="#AEAEAE"/>
<path d="M104.825 393.237V368.209H119.832V370.898H107.855V379.354H118.707V382.043H107.855V393.237H104.825ZM131.123 393.628C129.315 393.628 127.755 393.229 126.443 392.43C125.139 391.624 124.133 390.499 123.424 389.057C122.724 387.607 122.373 385.921 122.373 383.998C122.373 382.075 122.724 380.381 123.424 378.914C124.133 377.44 125.119 376.291 126.382 375.468C127.653 374.637 129.136 374.222 130.83 374.222C131.808 374.222 132.773 374.385 133.726 374.71C134.68 375.036 135.547 375.566 136.329 376.299C137.111 377.024 137.735 377.986 138.199 379.183C138.663 380.381 138.896 381.855 138.896 383.607V384.829H124.427V382.336H135.963C135.963 381.277 135.751 380.332 135.327 379.501C134.912 378.67 134.317 378.014 133.543 377.533C132.777 377.053 131.873 376.812 130.83 376.812C129.681 376.812 128.687 377.098 127.848 377.668C127.017 378.23 126.378 378.963 125.93 379.868C125.482 380.772 125.258 381.741 125.258 382.776V384.438C125.258 385.856 125.502 387.057 125.991 388.043C126.488 389.021 127.176 389.766 128.056 390.279C128.936 390.785 129.958 391.037 131.123 391.037C131.881 391.037 132.565 390.931 133.176 390.719C133.796 390.499 134.329 390.174 134.777 389.742C135.225 389.302 135.572 388.756 135.816 388.104L138.602 388.886C138.309 389.831 137.816 390.662 137.124 391.379C136.431 392.088 135.576 392.642 134.557 393.041C133.539 393.432 132.394 393.628 131.123 393.628ZM143.283 393.237V374.466H146.167V393.237H143.283ZM144.749 371.338C144.187 371.338 143.702 371.146 143.295 370.763C142.896 370.38 142.696 369.92 142.696 369.382C142.696 368.845 142.896 368.384 143.295 368.001C143.702 367.618 144.187 367.427 144.749 367.427C145.311 367.427 145.792 367.618 146.191 368.001C146.599 368.384 146.802 368.845 146.802 369.382C146.802 369.92 146.599 370.38 146.191 370.763C145.792 371.146 145.311 371.338 144.749 371.338ZM151.449 374.466H154.333V394.606C154.333 395.762 154.134 396.764 153.735 397.612C153.343 398.459 152.749 399.115 151.95 399.579C151.16 400.044 150.162 400.276 148.956 400.276C148.858 400.276 148.761 400.276 148.663 400.276C148.565 400.276 148.467 400.276 148.37 400.276V397.587C148.467 397.587 148.557 397.587 148.639 397.587C148.72 397.587 148.81 397.587 148.907 397.587C149.787 397.587 150.431 397.327 150.838 396.805C151.246 396.292 151.449 395.559 151.449 394.606V374.466ZM152.867 371.338C152.305 371.338 151.82 371.146 151.413 370.763C151.013 370.38 150.814 369.92 150.814 369.382C150.814 368.845 151.013 368.384 151.413 368.001C151.82 367.618 152.305 367.427 152.867 367.427C153.429 367.427 153.91 367.618 154.309 368.001C154.716 368.384 154.92 368.845 154.92 369.382C154.92 369.92 154.716 370.38 154.309 370.763C153.91 371.146 153.429 371.338 152.867 371.338ZM165.139 393.677C163.95 393.677 162.87 393.453 161.901 393.005C160.931 392.548 160.162 391.893 159.591 391.037C159.021 390.174 158.736 389.131 158.736 387.909C158.736 386.833 158.948 385.961 159.371 385.293C159.795 384.617 160.361 384.088 161.07 383.705C161.779 383.322 162.561 383.037 163.416 382.849C164.28 382.654 165.148 382.499 166.019 382.385C167.16 382.238 168.085 382.128 168.793 382.055C169.51 381.974 170.032 381.839 170.358 381.652C170.692 381.464 170.859 381.138 170.859 380.674V380.576C170.859 379.371 170.529 378.434 169.869 377.766C169.217 377.098 168.227 376.763 166.899 376.763C165.522 376.763 164.443 377.065 163.661 377.668C162.879 378.271 162.329 378.914 162.011 379.599L159.273 378.621C159.762 377.48 160.414 376.592 161.229 375.957C162.052 375.313 162.948 374.865 163.917 374.613C164.895 374.352 165.856 374.222 166.801 374.222C167.404 374.222 168.097 374.295 168.879 374.442C169.669 374.58 170.431 374.869 171.164 375.309C171.905 375.749 172.521 376.413 173.009 377.301C173.498 378.189 173.743 379.379 173.743 380.87V393.237H170.859V390.695H170.712C170.516 391.102 170.191 391.538 169.734 392.003C169.278 392.467 168.671 392.862 167.913 393.188C167.156 393.514 166.231 393.677 165.139 393.677ZM165.579 391.086C166.72 391.086 167.681 390.862 168.463 390.414C169.254 389.966 169.848 389.387 170.248 388.679C170.655 387.97 170.859 387.224 170.859 386.442V383.803C170.736 383.949 170.468 384.084 170.052 384.206C169.645 384.32 169.172 384.422 168.634 384.511C168.105 384.593 167.588 384.666 167.082 384.731C166.585 384.788 166.182 384.837 165.873 384.878C165.123 384.976 164.422 385.135 163.771 385.355C163.127 385.566 162.606 385.888 162.206 386.32C161.815 386.744 161.62 387.322 161.62 388.055C161.62 389.057 161.991 389.815 162.732 390.328C163.481 390.833 164.431 391.086 165.579 391.086ZM163.233 372.217L160.984 372.12C160.984 370.873 161.339 369.855 162.048 369.065C162.764 368.266 163.648 367.867 164.699 367.867C165.164 367.867 165.575 367.948 165.934 368.111C166.292 368.266 166.634 368.445 166.96 368.649C167.286 368.853 167.62 369.036 167.962 369.199C168.313 369.354 168.708 369.431 169.148 369.431C169.612 369.431 170.003 369.252 170.321 368.893C170.647 368.527 170.81 368.087 170.81 367.574L173.009 367.769C173.009 369.04 172.651 370.05 171.934 370.8C171.225 371.549 170.345 371.924 169.294 371.924C168.732 371.924 168.268 371.847 167.901 371.692C167.535 371.529 167.209 371.346 166.924 371.142C166.638 370.938 166.337 370.759 166.019 370.604C165.702 370.441 165.31 370.36 164.846 370.36C164.382 370.36 163.995 370.543 163.685 370.91C163.384 371.268 163.233 371.704 163.233 372.217ZM186.632 393.628C184.938 393.628 183.451 393.225 182.172 392.418C180.901 391.611 179.907 390.483 179.19 389.033C178.481 387.583 178.127 385.888 178.127 383.949C178.127 381.994 178.481 380.287 179.19 378.829C179.907 377.37 180.901 376.238 182.172 375.431C183.451 374.625 184.938 374.222 186.632 374.222C188.327 374.222 189.81 374.625 191.081 375.431C192.36 376.238 193.354 377.37 194.062 378.829C194.779 380.287 195.138 381.994 195.138 383.949C195.138 385.888 194.779 387.583 194.062 389.033C193.354 390.483 192.36 391.611 191.081 392.418C189.81 393.225 188.327 393.628 186.632 393.628ZM186.632 391.037C187.92 391.037 188.979 390.707 189.81 390.047C190.641 389.387 191.256 388.52 191.655 387.444C192.054 386.369 192.254 385.204 192.254 383.949C192.254 382.695 192.054 381.525 191.655 380.442C191.256 379.358 190.641 378.483 189.81 377.814C188.979 377.146 187.92 376.812 186.632 376.812C185.345 376.812 184.286 377.146 183.455 377.814C182.624 378.483 182.009 379.358 181.61 380.442C181.21 381.525 181.011 382.695 181.011 383.949C181.011 385.204 181.21 386.369 181.61 387.444C182.009 388.52 182.624 389.387 183.455 390.047C184.286 390.707 185.345 391.037 186.632 391.037ZM209.61 393.237V368.209H218.067C220.03 368.209 221.635 368.563 222.882 369.272C224.136 369.973 225.065 370.922 225.668 372.12C226.271 373.317 226.572 374.653 226.572 376.128C226.572 377.603 226.271 378.943 225.668 380.149C225.073 381.354 224.153 382.316 222.906 383.033C221.66 383.741 220.063 384.096 218.116 384.096H212.054V381.407H218.018C219.362 381.407 220.442 381.175 221.256 380.711C222.071 380.246 222.662 379.619 223.028 378.829C223.403 378.03 223.59 377.13 223.59 376.128C223.59 375.126 223.403 374.23 223.028 373.439C222.662 372.649 222.067 372.03 221.244 371.582C220.421 371.126 219.329 370.898 217.969 370.898H212.641V393.237H209.61ZM231.063 393.237V374.466H233.85V377.301H234.045C234.387 376.372 235.006 375.619 235.903 375.04C236.799 374.462 237.809 374.173 238.933 374.173C239.145 374.173 239.41 374.177 239.728 374.185C240.045 374.193 240.286 374.205 240.449 374.222V377.155C240.351 377.13 240.127 377.093 239.777 377.045C239.434 376.988 239.072 376.959 238.689 376.959C237.776 376.959 236.962 377.15 236.245 377.533C235.536 377.908 234.974 378.43 234.558 379.098C234.151 379.758 233.947 380.511 233.947 381.358V393.237H231.063ZM251.166 393.628C249.357 393.628 247.797 393.229 246.486 392.43C245.182 391.624 244.176 390.499 243.467 389.057C242.767 387.607 242.416 385.921 242.416 383.998C242.416 382.075 242.767 380.381 243.467 378.914C244.176 377.44 245.162 376.291 246.425 375.468C247.695 374.637 249.178 374.222 250.873 374.222C251.85 374.222 252.816 374.385 253.769 374.71C254.722 375.036 255.59 375.566 256.372 376.299C257.154 377.024 257.777 377.986 258.242 379.183C258.706 380.381 258.938 381.855 258.938 383.607V384.829H244.469V382.336H256.005C256.005 381.277 255.794 380.332 255.37 379.501C254.954 378.67 254.36 378.014 253.586 377.533C252.82 377.053 251.916 376.812 250.873 376.812C249.724 376.812 248.73 377.098 247.891 377.668C247.06 378.23 246.42 378.963 245.972 379.868C245.524 380.772 245.3 381.741 245.3 382.776V384.438C245.3 385.856 245.545 387.057 246.033 388.043C246.53 389.021 247.219 389.766 248.099 390.279C248.979 390.785 250.001 391.037 251.166 391.037C251.924 391.037 252.608 390.931 253.219 390.719C253.838 390.499 254.372 390.174 254.82 389.742C255.268 389.302 255.614 388.756 255.859 388.104L258.645 388.886C258.352 389.831 257.859 390.662 257.166 391.379C256.474 392.088 255.618 392.642 254.6 393.041C253.582 393.432 252.437 393.628 251.166 393.628ZM271.489 374.466V376.91H261.761V374.466H271.489ZM264.597 369.969H267.481V387.86C267.481 388.674 267.599 389.285 267.835 389.693C268.079 390.092 268.389 390.361 268.764 390.499C269.147 390.63 269.55 390.695 269.974 390.695C270.291 390.695 270.552 390.679 270.756 390.646C270.959 390.605 271.122 390.573 271.245 390.548L271.831 393.139C271.636 393.212 271.363 393.286 271.012 393.359C270.662 393.44 270.218 393.481 269.68 393.481C268.866 393.481 268.067 393.306 267.285 392.956C266.511 392.605 265.867 392.072 265.354 391.355C264.849 390.638 264.597 389.734 264.597 388.642V369.969ZM283.251 393.628C281.557 393.628 280.07 393.225 278.791 392.418C277.52 391.611 276.526 390.483 275.809 389.033C275.1 387.583 274.746 385.888 274.746 383.949C274.746 381.994 275.1 380.287 275.809 378.829C276.526 377.37 277.52 376.238 278.791 375.431C280.07 374.625 281.557 374.222 283.251 374.222C284.946 374.222 286.429 374.625 287.7 375.431C288.979 376.238 289.973 377.37 290.681 378.829C291.398 380.287 291.757 381.994 291.757 383.949C291.757 385.888 291.398 387.583 290.681 389.033C289.973 390.483 288.979 391.611 287.7 392.418C286.429 393.225 284.946 393.628 283.251 393.628ZM283.251 391.037C284.538 391.037 285.598 390.707 286.429 390.047C287.26 389.387 287.875 388.52 288.274 387.444C288.673 386.369 288.873 385.204 288.873 383.949C288.873 382.695 288.673 381.525 288.274 380.442C287.875 379.358 287.26 378.483 286.429 377.814C285.598 377.146 284.538 376.812 283.251 376.812C281.964 376.812 280.905 377.146 280.074 377.814C279.243 378.483 278.628 379.358 278.229 380.442C277.829 381.525 277.63 382.695 277.63 383.949C277.63 385.204 277.829 386.369 278.229 387.444C278.628 388.52 279.243 389.387 280.074 390.047C280.905 390.707 281.964 391.037 283.251 391.037Z" fill="black"/>
<rect x="69.0191" y="502.299" width="953.578" height="88.3655" rx="44.1828" fill="#AEAEAE"/>
<path d="M125.17 533.793H122.14C121.96 532.922 121.647 532.156 121.199 531.496C120.759 530.836 120.221 530.282 119.585 529.834C118.958 529.378 118.262 529.036 117.496 528.807C116.73 528.579 115.931 528.465 115.1 528.465C113.585 528.465 112.212 528.848 110.982 529.614C109.76 530.38 108.786 531.508 108.061 532.999C107.344 534.49 106.986 536.319 106.986 538.486C106.986 540.653 107.344 542.482 108.061 543.973C108.786 545.464 109.76 546.592 110.982 547.358C112.212 548.124 113.585 548.507 115.1 548.507C115.931 548.507 116.73 548.393 117.496 548.165C118.262 547.937 118.958 547.599 119.585 547.151C120.221 546.694 120.759 546.136 121.199 545.476C121.647 544.808 121.96 544.042 122.14 543.179H125.17C124.942 544.458 124.527 545.603 123.924 546.613C123.321 547.623 122.571 548.483 121.675 549.191C120.779 549.892 119.773 550.426 118.657 550.792C117.549 551.159 116.363 551.342 115.1 551.342C112.966 551.342 111.068 550.821 109.406 549.778C107.744 548.735 106.436 547.252 105.483 545.33C104.53 543.407 104.053 541.126 104.053 538.486C104.053 535.846 104.53 533.565 105.483 531.643C106.436 529.72 107.744 528.237 109.406 527.194C111.068 526.151 112.966 525.63 115.1 525.63C116.363 525.63 117.549 525.813 118.657 526.18C119.773 526.547 120.779 527.084 121.675 527.793C122.571 528.494 123.321 529.349 123.924 530.359C124.527 531.362 124.942 532.506 125.17 533.793ZM135.2 551.44C134.011 551.44 132.931 551.216 131.962 550.768C130.992 550.312 130.222 549.656 129.652 548.8C129.082 547.937 128.797 546.894 128.797 545.672C128.797 544.596 129.008 543.725 129.432 543.057C129.856 542.38 130.422 541.851 131.131 541.468C131.84 541.085 132.622 540.8 133.477 540.613C134.341 540.417 135.208 540.262 136.08 540.148C137.221 540.001 138.145 539.891 138.854 539.818C139.571 539.737 140.093 539.602 140.418 539.415C140.752 539.228 140.919 538.902 140.919 538.437V538.339C140.919 537.134 140.59 536.197 139.93 535.529C139.278 534.861 138.288 534.527 136.96 534.527C135.583 534.527 134.504 534.828 133.722 535.431C132.939 536.034 132.39 536.677 132.072 537.362L129.334 536.384C129.823 535.244 130.475 534.356 131.29 533.72C132.113 533.076 133.009 532.628 133.978 532.376C134.956 532.115 135.917 531.985 136.862 531.985C137.465 531.985 138.158 532.058 138.94 532.205C139.73 532.343 140.492 532.632 141.225 533.072C141.966 533.512 142.581 534.176 143.07 535.064C143.559 535.952 143.804 537.142 143.804 538.633V551H140.919V548.458H140.773C140.577 548.865 140.251 549.301 139.795 549.766C139.339 550.23 138.732 550.625 137.974 550.951C137.217 551.277 136.292 551.44 135.2 551.44ZM135.64 548.849C136.781 548.849 137.742 548.625 138.524 548.177C139.315 547.729 139.909 547.151 140.308 546.442C140.716 545.733 140.919 544.987 140.919 544.205V541.566C140.797 541.712 140.528 541.847 140.113 541.969C139.706 542.083 139.233 542.185 138.695 542.275C138.166 542.356 137.648 542.429 137.143 542.494C136.646 542.552 136.243 542.6 135.933 542.641C135.184 542.739 134.483 542.898 133.832 543.118C133.188 543.33 132.667 543.651 132.267 544.083C131.876 544.507 131.681 545.085 131.681 545.818C131.681 546.821 132.051 547.578 132.793 548.092C133.542 548.597 134.491 548.849 135.64 548.849ZM149.068 551V532.229H151.854V535.064H152.049C152.392 534.136 153.011 533.382 153.907 532.804C154.803 532.225 155.813 531.936 156.938 531.936C157.149 531.936 157.414 531.94 157.732 531.948C158.05 531.956 158.29 531.968 158.453 531.985V534.918C158.355 534.893 158.131 534.857 157.781 534.808C157.439 534.751 157.076 534.722 156.693 534.722C155.781 534.722 154.966 534.914 154.249 535.297C153.54 535.671 152.978 536.193 152.563 536.861C152.155 537.521 151.952 538.274 151.952 539.122V551H149.068ZM164.756 539.708V551H161.872V532.229H164.658V535.162H164.902C165.342 534.209 166.01 533.443 166.907 532.865C167.803 532.278 168.96 531.985 170.377 531.985C171.648 531.985 172.76 532.245 173.713 532.767C174.667 533.28 175.408 534.062 175.938 535.113C176.467 536.156 176.732 537.476 176.732 539.073V551H173.848V539.268C173.848 537.794 173.465 536.645 172.699 535.822C171.933 534.991 170.882 534.576 169.546 534.576C168.626 534.576 167.803 534.775 167.078 535.174C166.361 535.574 165.794 536.156 165.379 536.922C164.963 537.688 164.756 538.616 164.756 539.708ZM189.872 551.391C188.063 551.391 186.503 550.992 185.192 550.193C183.888 549.387 182.882 548.263 182.173 546.821C181.472 545.37 181.122 543.684 181.122 541.761C181.122 539.839 181.472 538.144 182.173 536.677C182.882 535.203 183.868 534.054 185.13 533.231C186.401 532.4 187.884 531.985 189.579 531.985C190.556 531.985 191.522 532.148 192.475 532.474C193.428 532.799 194.296 533.329 195.078 534.062C195.86 534.787 196.483 535.749 196.948 536.946C197.412 538.144 197.644 539.619 197.644 541.37V542.592H183.175V540.099H194.711C194.711 539.04 194.5 538.095 194.076 537.264C193.66 536.433 193.066 535.777 192.292 535.297C191.526 534.816 190.622 534.576 189.579 534.576C188.43 534.576 187.436 534.861 186.597 535.431C185.766 535.993 185.126 536.726 184.678 537.631C184.23 538.535 184.006 539.505 184.006 540.539V542.201C184.006 543.619 184.251 544.82 184.739 545.806C185.236 546.784 185.925 547.529 186.805 548.043C187.685 548.548 188.707 548.8 189.872 548.8C190.63 548.8 191.314 548.694 191.925 548.483C192.544 548.263 193.078 547.937 193.526 547.505C193.974 547.065 194.32 546.519 194.565 545.867L197.351 546.649C197.058 547.595 196.565 548.426 195.872 549.142C195.18 549.851 194.324 550.405 193.306 550.804C192.288 551.196 191.143 551.391 189.872 551.391ZM218.798 551.391C217.234 551.391 215.853 550.996 214.655 550.206C213.458 549.407 212.521 548.283 211.845 546.833C211.168 545.374 210.83 543.651 210.83 541.663C210.83 539.692 211.168 537.981 211.845 536.531C212.521 535.081 213.462 533.96 214.668 533.17C215.873 532.38 217.267 531.985 218.847 531.985C220.069 531.985 221.035 532.188 221.743 532.596C222.46 532.995 223.006 533.451 223.381 533.965C223.764 534.47 224.061 534.885 224.273 535.211H224.517V525.972H227.401V551H224.615V548.116H224.273C224.061 548.458 223.76 548.89 223.369 549.411C222.978 549.925 222.42 550.385 221.694 550.792C220.969 551.191 220.004 551.391 218.798 551.391ZM219.189 548.8C220.346 548.8 221.324 548.499 222.122 547.896C222.921 547.285 223.528 546.442 223.943 545.366C224.359 544.283 224.566 543.032 224.566 541.615C224.566 540.213 224.363 538.987 223.955 537.936C223.548 536.877 222.945 536.054 222.147 535.468C221.348 534.873 220.362 534.576 219.189 534.576C217.967 534.576 216.949 534.889 216.134 535.517C215.328 536.136 214.721 536.979 214.313 538.046C213.914 539.105 213.714 540.295 213.714 541.615C213.714 542.951 213.918 544.165 214.325 545.256C214.741 546.34 215.352 547.203 216.159 547.847C216.973 548.483 217.983 548.8 219.189 548.8ZM240.954 551.391C239.145 551.391 237.585 550.992 236.274 550.193C234.97 549.387 233.964 548.263 233.255 546.821C232.554 545.37 232.204 543.684 232.204 541.761C232.204 539.839 232.554 538.144 233.255 536.677C233.964 535.203 234.95 534.054 236.212 533.231C237.483 532.4 238.966 531.985 240.661 531.985C241.638 531.985 242.604 532.148 243.557 532.474C244.51 532.799 245.378 533.329 246.16 534.062C246.942 534.787 247.565 535.749 248.03 536.946C248.494 538.144 248.726 539.619 248.726 541.37V542.592H234.257V540.099H245.793C245.793 539.04 245.582 538.095 245.158 537.264C244.742 536.433 244.148 535.777 243.374 535.297C242.608 534.816 241.704 534.576 240.661 534.576C239.512 534.576 238.518 534.861 237.679 535.431C236.848 535.993 236.208 536.726 235.76 537.631C235.312 538.535 235.088 539.505 235.088 540.539V542.201C235.088 543.619 235.333 544.82 235.821 545.806C236.318 546.784 237.007 547.529 237.887 548.043C238.767 548.548 239.789 548.8 240.954 548.8C241.712 548.8 242.396 548.694 243.007 548.483C243.626 548.263 244.16 547.937 244.608 547.505C245.056 547.065 245.402 546.519 245.647 545.867L248.433 546.649C248.14 547.595 247.647 548.426 246.954 549.142C246.262 549.851 245.406 550.405 244.388 550.804C243.37 551.196 242.225 551.391 240.954 551.391ZM263.183 551V525.972H271.64C273.603 525.972 275.208 526.327 276.455 527.035C277.709 527.736 278.638 528.685 279.241 529.883C279.844 531.08 280.145 532.417 280.145 533.891C280.145 535.366 279.844 536.706 279.241 537.912C278.646 539.118 277.726 540.079 276.479 540.796C275.233 541.505 273.636 541.859 271.689 541.859H265.627V539.17H271.591C272.935 539.17 274.015 538.938 274.83 538.474C275.644 538.01 276.235 537.382 276.601 536.592C276.976 535.794 277.164 534.893 277.164 533.891C277.164 532.889 276.976 531.993 276.601 531.203C276.235 530.412 275.64 529.793 274.817 529.345C273.994 528.889 272.903 528.661 271.542 528.661H266.214V551H263.183ZM292.061 551.391C290.366 551.391 288.879 550.988 287.6 550.181C286.329 549.375 285.335 548.246 284.618 546.796C283.909 545.346 283.555 543.651 283.555 541.712C283.555 539.757 283.909 538.05 284.618 536.592C285.335 535.134 286.329 534.001 287.6 533.195C288.879 532.388 290.366 531.985 292.061 531.985C293.755 531.985 295.238 532.388 296.509 533.195C297.788 534.001 298.782 535.134 299.491 536.592C300.208 538.05 300.566 539.757 300.566 541.712C300.566 543.651 300.208 545.346 299.491 546.796C298.782 548.246 297.788 549.375 296.509 550.181C295.238 550.988 293.755 551.391 292.061 551.391ZM292.061 548.8C293.348 548.8 294.407 548.47 295.238 547.81C296.069 547.151 296.684 546.283 297.083 545.207C297.482 544.132 297.682 542.967 297.682 541.712C297.682 540.458 297.482 539.289 297.083 538.205C296.684 537.121 296.069 536.246 295.238 535.578C294.407 534.91 293.348 534.576 292.061 534.576C290.773 534.576 289.714 534.91 288.883 535.578C288.052 536.246 287.437 537.121 287.038 538.205C286.639 539.289 286.439 540.458 286.439 541.712C286.439 542.967 286.639 544.132 287.038 545.207C287.437 546.283 288.052 547.151 288.883 547.81C289.714 548.47 290.773 548.8 292.061 548.8ZM304.969 551V532.229H307.755V535.064H307.95C308.292 534.136 308.912 533.382 309.808 532.804C310.704 532.225 311.714 531.936 312.839 531.936C313.05 531.936 313.315 531.94 313.633 531.948C313.951 531.956 314.191 531.968 314.354 531.985V534.918C314.256 534.893 314.032 534.857 313.682 534.808C313.34 534.751 312.977 534.722 312.594 534.722C311.682 534.722 310.867 534.914 310.15 535.297C309.441 535.671 308.879 536.193 308.464 536.861C308.056 537.521 307.853 538.274 307.853 539.122V551H304.969ZM324.827 551.391C323.067 551.391 321.552 550.976 320.281 550.145C319.01 549.314 318.032 548.169 317.348 546.711C316.664 545.252 316.321 543.586 316.321 541.712C316.321 539.806 316.672 538.124 317.372 536.665C318.081 535.199 319.067 534.054 320.33 533.231C321.601 532.4 323.083 531.985 324.778 531.985C326.098 531.985 327.287 532.229 328.346 532.718C329.406 533.207 330.273 533.891 330.949 534.771C331.626 535.651 332.045 536.677 332.208 537.851H329.324C329.104 536.995 328.615 536.238 327.858 535.578C327.108 534.91 326.098 534.576 324.827 534.576C323.703 534.576 322.717 534.869 321.87 535.455C321.03 536.034 320.375 536.853 319.902 537.912C319.438 538.963 319.205 540.197 319.205 541.615C319.205 543.065 319.434 544.328 319.89 545.403C320.354 546.478 321.006 547.313 321.845 547.908C322.692 548.503 323.686 548.8 324.827 548.8C325.576 548.8 326.257 548.67 326.868 548.409C327.479 548.149 327.996 547.774 328.42 547.285C328.843 546.796 329.145 546.21 329.324 545.525H332.208C332.045 546.633 331.642 547.631 330.998 548.519C330.363 549.399 329.52 550.1 328.469 550.621C327.426 551.134 326.212 551.391 324.827 551.391ZM344.05 551.391C342.355 551.391 340.868 550.988 339.589 550.181C338.318 549.375 337.325 548.246 336.608 546.796C335.899 545.346 335.544 543.651 335.544 541.712C335.544 539.757 335.899 538.05 336.608 536.592C337.325 535.134 338.318 534.001 339.589 533.195C340.868 532.388 342.355 531.985 344.05 531.985C345.744 531.985 347.227 532.388 348.498 533.195C349.777 534.001 350.771 535.134 351.48 536.592C352.197 538.05 352.555 539.757 352.555 541.712C352.555 543.651 352.197 545.346 351.48 546.796C350.771 548.246 349.777 549.375 348.498 550.181C347.227 550.988 345.744 551.391 344.05 551.391ZM344.05 548.8C345.337 548.8 346.396 548.47 347.227 547.81C348.058 547.151 348.673 546.283 349.073 545.207C349.472 544.132 349.671 542.967 349.671 541.712C349.671 540.458 349.472 539.289 349.073 538.205C348.673 537.121 348.058 536.246 347.227 535.578C346.396 534.91 345.337 534.576 344.05 534.576C342.763 534.576 341.704 534.91 340.873 535.578C340.042 536.246 339.426 537.121 339.027 538.205C338.628 539.289 338.428 540.458 338.428 541.712C338.428 542.967 338.628 544.132 339.027 545.207C339.426 546.283 340.042 547.151 340.873 547.81C341.704 548.47 342.763 548.8 344.05 548.8ZM384.136 533.793C383.868 532.971 383.513 532.233 383.073 531.582C382.641 530.922 382.124 530.359 381.521 529.895C380.927 529.431 380.25 529.076 379.493 528.832C378.735 528.587 377.904 528.465 377 528.465C375.517 528.465 374.169 528.848 372.955 529.614C371.741 530.38 370.775 531.508 370.058 532.999C369.341 534.49 368.983 536.319 368.983 538.486C368.983 540.653 369.345 542.482 370.071 543.973C370.796 545.464 371.777 546.592 373.016 547.358C374.254 548.124 375.647 548.507 377.195 548.507C378.629 548.507 379.892 548.201 380.984 547.59C382.083 546.971 382.939 546.1 383.55 544.975C384.169 543.843 384.479 542.511 384.479 540.979L385.407 541.175H377.88V538.486H387.412V541.175C387.412 543.236 386.972 545.028 386.092 546.552C385.22 548.075 384.014 549.257 382.474 550.096C380.943 550.927 379.183 551.342 377.195 551.342C374.979 551.342 373.032 550.821 371.354 549.778C369.684 548.735 368.38 547.252 367.443 545.33C366.514 543.407 366.05 541.126 366.05 538.486C366.05 536.506 366.315 534.726 366.844 533.146C367.382 531.557 368.14 530.205 369.117 529.089C370.095 527.972 371.252 527.117 372.588 526.522C373.924 525.927 375.395 525.63 377 525.63C378.319 525.63 379.55 525.83 380.69 526.229C381.839 526.62 382.861 527.178 383.758 527.903C384.662 528.62 385.416 529.48 386.018 530.482C386.621 531.476 387.037 532.58 387.265 533.793H384.136ZM392.211 551V532.229H394.997V535.064H395.193C395.535 534.136 396.154 533.382 397.051 532.804C397.947 532.225 398.957 531.936 400.081 531.936C400.293 531.936 400.558 531.94 400.876 531.948C401.193 531.956 401.434 531.968 401.597 531.985V534.918C401.499 534.893 401.275 534.857 400.924 534.808C400.582 534.751 400.22 534.722 399.837 534.722C398.924 534.722 398.11 534.914 397.393 535.297C396.684 535.671 396.122 536.193 395.706 536.861C395.299 537.521 395.095 538.274 395.095 539.122V551H392.211ZM412.314 551.391C410.505 551.391 408.945 550.992 407.634 550.193C406.33 549.387 405.324 548.263 404.615 546.821C403.914 545.37 403.564 543.684 403.564 541.761C403.564 539.839 403.914 538.144 404.615 536.677C405.324 535.203 406.31 534.054 407.572 533.231C408.843 532.4 410.326 531.985 412.021 531.985C412.998 531.985 413.964 532.148 414.917 532.474C415.87 532.799 416.738 533.329 417.52 534.062C418.302 534.787 418.925 535.749 419.39 536.946C419.854 538.144 420.086 539.619 420.086 541.37V542.592H405.617V540.099H417.153C417.153 539.04 416.942 538.095 416.518 537.264C416.102 536.433 415.508 535.777 414.734 535.297C413.968 534.816 413.064 534.576 412.021 534.576C410.872 534.576 409.878 534.861 409.039 535.431C408.208 535.993 407.568 536.726 407.12 537.631C406.672 538.535 406.448 539.505 406.448 540.539V542.201C406.448 543.619 406.693 544.82 407.181 545.806C407.678 546.784 408.367 547.529 409.247 548.043C410.127 548.548 411.149 548.8 412.314 548.8C413.072 548.8 413.756 548.694 414.367 548.483C414.986 548.263 415.52 547.937 415.968 547.505C416.416 547.065 416.762 546.519 417.007 545.867L419.793 546.649C419.5 547.595 419.007 548.426 418.314 549.142C417.622 549.851 416.766 550.405 415.748 550.804C414.73 551.196 413.585 551.391 412.314 551.391ZM427.358 525.972V551H424.474V525.972H427.358ZM435.524 539.708V551H432.64V525.972H435.524V535.162H435.768C436.208 534.193 436.868 533.423 437.748 532.852C438.636 532.274 439.817 531.985 441.292 531.985C442.571 531.985 443.691 532.241 444.653 532.755C445.614 533.26 446.36 534.038 446.889 535.089C447.427 536.132 447.696 537.46 447.696 539.073V551H444.812V539.268C444.812 537.777 444.425 536.625 443.651 535.81C442.885 534.987 441.822 534.576 440.461 534.576C439.516 534.576 438.669 534.775 437.919 535.174C437.178 535.574 436.591 536.156 436.159 536.922C435.736 537.688 435.524 538.616 435.524 539.708ZM458.496 551.44C457.306 551.44 456.227 551.216 455.257 550.768C454.288 550.312 453.518 549.656 452.947 548.8C452.377 547.937 452.092 546.894 452.092 545.672C452.092 544.596 452.304 543.725 452.727 543.057C453.151 542.38 453.717 541.851 454.426 541.468C455.135 541.085 455.917 540.8 456.772 540.613C457.636 540.417 458.504 540.262 459.375 540.148C460.516 540.001 461.441 539.891 462.15 539.818C462.866 539.737 463.388 539.602 463.714 539.415C464.048 539.228 464.215 538.902 464.215 538.437V538.339C464.215 537.134 463.885 536.197 463.225 535.529C462.573 534.861 461.583 534.527 460.255 534.527C458.879 534.527 457.799 534.828 457.017 535.431C456.235 536.034 455.685 536.677 455.367 537.362L452.63 536.384C453.119 535.244 453.77 534.356 454.585 533.72C455.408 533.076 456.304 532.628 457.274 532.376C458.251 532.115 459.213 531.985 460.158 531.985C460.76 531.985 461.453 532.058 462.235 532.205C463.025 532.343 463.787 532.632 464.52 533.072C465.262 533.512 465.877 534.176 466.366 535.064C466.854 535.952 467.099 537.142 467.099 538.633V551H464.215V548.458H464.068C463.873 548.865 463.547 549.301 463.091 549.766C462.634 550.23 462.027 550.625 461.27 550.951C460.512 551.277 459.587 551.44 458.496 551.44ZM458.936 548.849C460.076 548.849 461.037 548.625 461.82 548.177C462.61 547.729 463.205 547.151 463.604 546.442C464.011 545.733 464.215 544.987 464.215 544.205V541.566C464.093 541.712 463.824 541.847 463.408 541.969C463.001 542.083 462.528 542.185 461.991 542.275C461.461 542.356 460.944 542.429 460.439 542.494C459.942 542.552 459.538 542.6 459.229 542.641C458.479 542.739 457.779 542.898 457.127 543.118C456.483 543.33 455.962 543.651 455.563 544.083C455.172 544.507 454.976 545.085 454.976 545.818C454.976 546.821 455.347 547.578 456.088 548.092C456.838 548.597 457.787 548.849 458.936 548.849ZM479.451 551.391C477.887 551.391 476.506 550.996 475.308 550.206C474.11 549.407 473.174 548.283 472.497 546.833C471.821 545.374 471.483 543.651 471.483 541.663C471.483 539.692 471.821 537.981 472.497 536.531C473.174 535.081 474.114 533.96 475.32 533.17C476.526 532.38 477.919 531.985 479.5 531.985C480.722 531.985 481.687 532.188 482.396 532.596C483.113 532.995 483.659 533.451 484.034 533.965C484.416 534.47 484.714 534.885 484.926 535.211H485.17V525.972H488.054V551H485.268V548.116H484.926C484.714 548.458 484.412 548.89 484.021 549.411C483.63 549.925 483.072 550.385 482.347 550.792C481.622 551.191 480.657 551.391 479.451 551.391ZM479.842 548.8C480.999 548.8 481.976 548.499 482.775 547.896C483.573 547.285 484.18 546.442 484.596 545.366C485.011 544.283 485.219 543.032 485.219 541.615C485.219 540.213 485.015 538.987 484.608 537.936C484.201 536.877 483.598 536.054 482.799 535.468C482.001 534.873 481.015 534.576 479.842 534.576C478.62 534.576 477.601 534.889 476.787 535.517C475.98 536.136 475.373 536.979 474.966 538.046C474.567 539.105 474.367 540.295 474.367 541.615C474.367 542.951 474.571 544.165 474.978 545.256C475.394 546.34 476.005 547.203 476.811 547.847C477.626 548.483 478.636 548.8 479.842 548.8ZM499.26 551.44C498.071 551.44 496.991 551.216 496.022 550.768C495.052 550.312 494.283 549.656 493.712 548.8C493.142 547.937 492.857 546.894 492.857 545.672C492.857 544.596 493.069 543.725 493.492 543.057C493.916 542.38 494.482 541.851 495.191 541.468C495.9 541.085 496.682 540.8 497.537 540.613C498.401 540.417 499.269 540.262 500.14 540.148C501.281 540.001 502.206 539.891 502.914 539.818C503.631 539.737 504.153 539.602 504.479 539.415C504.813 539.228 504.98 538.902 504.98 538.437V538.339C504.98 537.134 504.65 536.197 503.99 535.529C503.338 534.861 502.348 534.527 501.02 534.527C499.643 534.527 498.564 534.828 497.782 535.431C497 536.034 496.45 536.677 496.132 537.362L493.395 536.384C493.883 535.244 494.535 534.356 495.35 533.72C496.173 533.076 497.069 532.628 498.038 532.376C499.016 532.115 499.977 531.985 500.922 531.985C501.525 531.985 502.218 532.058 503 532.205C503.79 532.343 504.552 532.632 505.285 533.072C506.027 533.512 506.642 534.176 507.13 535.064C507.619 535.952 507.864 537.142 507.864 538.633V551H504.98V548.458H504.833C504.637 548.865 504.312 549.301 503.855 549.766C503.399 550.23 502.792 550.625 502.034 550.951C501.277 551.277 500.352 551.44 499.26 551.44ZM499.7 548.849C500.841 548.849 501.802 548.625 502.584 548.177C503.375 547.729 503.969 547.151 504.369 546.442C504.776 545.733 504.98 544.987 504.98 544.205V541.566C504.857 541.712 504.589 541.847 504.173 541.969C503.766 542.083 503.293 542.185 502.755 542.275C502.226 542.356 501.709 542.429 501.203 542.494C500.706 542.552 500.303 542.6 499.994 542.641C499.244 542.739 498.543 542.898 497.892 543.118C497.248 543.33 496.727 543.651 496.327 544.083C495.936 544.507 495.741 545.085 495.741 545.818C495.741 546.821 496.112 547.578 496.853 548.092C497.602 548.597 498.552 548.849 499.7 548.849Z" fill="black"/>
<rect x="69.0191" y="185.911" width="953.578" height="88.3655" rx="44.1828" fill="#AEAEAE"/>
<path d="M104.825 235.043V210.015H113.281C115.245 210.015 116.85 210.37 118.096 211.078C119.351 211.779 120.28 212.728 120.883 213.926C121.485 215.123 121.787 216.46 121.787 217.934C121.787 219.409 121.485 220.749 120.883 221.955C120.288 223.16 119.367 224.122 118.121 224.839C116.874 225.548 115.277 225.902 113.33 225.902H107.269V223.213H113.232C114.577 223.213 115.656 222.981 116.471 222.517C117.286 222.052 117.876 221.425 118.243 220.635C118.618 219.836 118.805 218.936 118.805 217.934C118.805 216.932 118.618 216.036 118.243 215.246C117.876 214.455 117.282 213.836 116.459 213.388C115.636 212.932 114.544 212.704 113.184 212.704H107.855V235.043H104.825ZM138.107 227.368V216.272H140.992V235.043H138.107V231.866H137.912C137.472 232.819 136.788 233.629 135.859 234.298C134.93 234.957 133.757 235.287 132.339 235.287C131.166 235.287 130.123 235.031 129.211 234.517C128.298 233.996 127.581 233.214 127.06 232.171C126.539 231.12 126.278 229.796 126.278 228.199V216.272H129.162V228.004C129.162 229.373 129.545 230.464 130.311 231.279C131.085 232.094 132.07 232.501 133.268 232.501C133.985 232.501 134.714 232.318 135.456 231.951C136.205 231.585 136.832 231.022 137.338 230.265C137.851 229.507 138.107 228.542 138.107 227.368ZM146.274 235.043V216.272H149.06V219.107H149.256C149.598 218.179 150.217 217.425 151.113 216.847C152.009 216.268 153.02 215.979 154.144 215.979C154.356 215.979 154.621 215.983 154.938 215.991C155.256 215.999 155.496 216.011 155.659 216.028V218.961C155.561 218.936 155.337 218.9 154.987 218.851C154.645 218.794 154.282 218.765 153.899 218.765C152.987 218.765 152.172 218.957 151.455 219.34C150.747 219.714 150.184 220.236 149.769 220.904C149.362 221.564 149.158 222.317 149.158 223.165V235.043H146.274ZM166.377 235.434C164.568 235.434 163.008 235.035 161.696 234.236C160.393 233.43 159.387 232.306 158.678 230.864C157.977 229.413 157.627 227.727 157.627 225.804C157.627 223.882 157.977 222.187 158.678 220.72C159.387 219.246 160.372 218.097 161.635 217.274C162.906 216.443 164.389 216.028 166.083 216.028C167.061 216.028 168.026 216.191 168.98 216.517C169.933 216.842 170.801 217.372 171.583 218.105C172.365 218.83 172.988 219.792 173.452 220.989C173.917 222.187 174.149 223.662 174.149 225.413V226.635H159.68V224.142H171.216C171.216 223.083 171.004 222.138 170.581 221.307C170.165 220.476 169.57 219.82 168.796 219.34C168.031 218.859 167.126 218.619 166.083 218.619C164.935 218.619 163.941 218.904 163.102 219.474C162.271 220.036 161.631 220.769 161.183 221.674C160.735 222.578 160.511 223.547 160.511 224.582V226.244C160.511 227.662 160.755 228.863 161.244 229.849C161.741 230.827 162.429 231.572 163.309 232.086C164.189 232.591 165.212 232.843 166.377 232.843C167.134 232.843 167.819 232.737 168.43 232.526C169.049 232.306 169.583 231.98 170.031 231.548C170.479 231.108 170.825 230.562 171.069 229.91L173.856 230.692C173.562 231.638 173.069 232.469 172.377 233.185C171.685 233.894 170.829 234.448 169.811 234.847C168.792 235.238 167.648 235.434 166.377 235.434ZM164.617 213.73L167.599 208.06H170.972L167.159 213.73H164.617ZM195.303 235.434C193.739 235.434 192.358 235.039 191.16 234.249C189.962 233.45 189.026 232.326 188.349 230.876C187.673 229.417 187.335 227.694 187.335 225.706C187.335 223.735 187.673 222.024 188.349 220.574C189.026 219.124 189.966 218.003 191.172 217.213C192.378 216.423 193.771 216.028 195.352 216.028C196.574 216.028 197.539 216.231 198.248 216.639C198.965 217.038 199.511 217.494 199.886 218.007C200.268 218.513 200.566 218.928 200.778 219.254H201.022V210.015H203.906V235.043H201.12V232.159H200.778C200.566 232.501 200.264 232.933 199.873 233.454C199.482 233.968 198.924 234.428 198.199 234.835C197.474 235.234 196.509 235.434 195.303 235.434ZM195.694 232.843C196.851 232.843 197.828 232.542 198.627 231.939C199.425 231.328 200.032 230.485 200.448 229.409C200.863 228.326 201.071 227.075 201.071 225.658C201.071 224.256 200.867 223.03 200.46 221.979C200.053 220.92 199.45 220.097 198.651 219.511C197.853 218.916 196.867 218.619 195.694 218.619C194.472 218.619 193.453 218.932 192.639 219.559C191.832 220.179 191.225 221.022 190.818 222.089C190.419 223.148 190.219 224.338 190.219 225.658C190.219 226.994 190.423 228.208 190.83 229.299C191.246 230.383 191.857 231.246 192.663 231.89C193.478 232.526 194.488 232.843 195.694 232.843ZM217.459 235.434C215.65 235.434 214.09 235.035 212.778 234.236C211.475 233.43 210.469 232.306 209.76 230.864C209.059 229.413 208.709 227.727 208.709 225.804C208.709 223.882 209.059 222.187 209.76 220.72C210.469 219.246 211.454 218.097 212.717 217.274C213.988 216.443 215.471 216.028 217.165 216.028C218.143 216.028 219.108 216.191 220.062 216.517C221.015 216.842 221.883 217.372 222.665 218.105C223.447 218.83 224.07 219.792 224.534 220.989C224.999 222.187 225.231 223.662 225.231 225.413V226.635H210.762V224.142H222.298C222.298 223.083 222.086 222.138 221.663 221.307C221.247 220.476 220.652 219.82 219.878 219.34C219.113 218.859 218.208 218.619 217.165 218.619C216.017 218.619 215.023 218.904 214.184 219.474C213.353 220.036 212.713 220.769 212.265 221.674C211.817 222.578 211.593 223.547 211.593 224.582V226.244C211.593 227.662 211.837 228.863 212.326 229.849C212.823 230.827 213.511 231.572 214.391 232.086C215.271 232.591 216.294 232.843 217.459 232.843C218.216 232.843 218.901 232.737 219.512 232.526C220.131 232.306 220.665 231.98 221.113 231.548C221.561 231.108 221.907 230.562 222.151 229.91L224.938 230.692C224.644 231.638 224.152 232.469 223.459 233.185C222.767 233.894 221.911 234.448 220.893 234.847C219.874 235.238 218.73 235.434 217.459 235.434ZM239.688 235.043V210.015H248.438C250.181 210.015 251.619 210.317 252.752 210.92C253.884 211.514 254.727 212.317 255.281 213.327C255.835 214.329 256.112 215.441 256.112 216.663C256.112 217.739 255.921 218.627 255.538 219.327C255.163 220.028 254.666 220.582 254.047 220.989C253.436 221.397 252.772 221.698 252.055 221.894V222.138C252.821 222.187 253.591 222.456 254.365 222.945C255.139 223.433 255.787 224.134 256.308 225.047C256.829 225.959 257.09 227.075 257.09 228.395C257.09 229.65 256.805 230.778 256.235 231.78C255.664 232.782 254.764 233.576 253.534 234.163C252.304 234.75 250.703 235.043 248.731 235.043H239.688ZM242.719 232.354H248.731C250.711 232.354 252.116 231.972 252.947 231.206C253.786 230.432 254.206 229.495 254.206 228.395C254.206 227.548 253.99 226.766 253.558 226.049C253.126 225.324 252.511 224.745 251.713 224.313C250.915 223.873 249.97 223.653 248.878 223.653H242.719V232.354ZM242.719 221.014H248.34C249.253 221.014 250.075 220.835 250.809 220.476C251.55 220.118 252.137 219.612 252.568 218.961C253.008 218.309 253.228 217.543 253.228 216.663C253.228 215.563 252.845 214.631 252.08 213.865C251.314 213.091 250.1 212.704 248.438 212.704H242.719V221.014ZM267.203 235.483C266.013 235.483 264.934 235.259 263.964 234.811C262.995 234.355 262.225 233.699 261.654 232.843C261.084 231.98 260.799 230.937 260.799 229.715C260.799 228.639 261.011 227.768 261.434 227.1C261.858 226.423 262.424 225.894 263.133 225.511C263.842 225.128 264.624 224.843 265.479 224.655C266.343 224.46 267.211 224.305 268.082 224.191C269.223 224.044 270.148 223.934 270.857 223.861C271.573 223.78 272.095 223.645 272.421 223.458C272.755 223.27 272.922 222.945 272.922 222.48V222.382C272.922 221.177 272.592 220.24 271.932 219.572C271.28 218.904 270.29 218.57 268.962 218.57C267.585 218.57 266.506 218.871 265.724 219.474C264.942 220.077 264.392 220.72 264.074 221.405L261.337 220.427C261.826 219.287 262.477 218.399 263.292 217.763C264.115 217.119 265.011 216.671 265.981 216.419C266.958 216.158 267.92 216.028 268.865 216.028C269.467 216.028 270.16 216.101 270.942 216.248C271.732 216.386 272.494 216.675 273.227 217.115C273.969 217.555 274.584 218.219 275.073 219.107C275.561 219.995 275.806 221.185 275.806 222.676V235.043H272.922V232.501H272.775C272.58 232.908 272.254 233.344 271.797 233.809C271.341 234.273 270.734 234.668 269.977 234.994C269.219 235.32 268.294 235.483 267.203 235.483ZM267.643 232.892C268.783 232.892 269.744 232.668 270.527 232.22C271.317 231.772 271.912 231.193 272.311 230.485C272.718 229.776 272.922 229.03 272.922 228.248V225.609C272.8 225.755 272.531 225.89 272.115 226.012C271.708 226.126 271.235 226.228 270.698 226.317C270.168 226.399 269.651 226.472 269.146 226.537C268.649 226.594 268.245 226.643 267.936 226.684C267.186 226.782 266.486 226.941 265.834 227.161C265.19 227.373 264.669 227.694 264.27 228.126C263.879 228.55 263.683 229.128 263.683 229.861C263.683 230.864 264.054 231.621 264.795 232.134C265.545 232.64 266.494 232.892 267.643 232.892ZM289.233 216.272V218.716H279.506V216.272H289.233ZM282.341 211.775H285.225V229.666C285.225 230.481 285.343 231.092 285.579 231.499C285.824 231.898 286.133 232.167 286.508 232.306C286.891 232.436 287.294 232.501 287.718 232.501C288.036 232.501 288.296 232.485 288.5 232.452C288.704 232.411 288.867 232.379 288.989 232.354L289.575 234.945C289.38 235.019 289.107 235.092 288.757 235.165C288.406 235.247 287.962 235.287 287.425 235.287C286.61 235.287 285.811 235.112 285.029 234.762C284.255 234.412 283.612 233.878 283.098 233.161C282.593 232.444 282.341 231.54 282.341 230.448V211.775ZM299.095 235.483C297.906 235.483 296.826 235.259 295.857 234.811C294.887 234.355 294.117 233.699 293.547 232.843C292.977 231.98 292.692 230.937 292.692 229.715C292.692 228.639 292.903 227.768 293.327 227.1C293.751 226.423 294.317 225.894 295.026 225.511C295.735 225.128 296.517 224.843 297.372 224.655C298.236 224.46 299.103 224.305 299.975 224.191C301.116 224.044 302.04 223.934 302.749 223.861C303.466 223.78 303.988 223.645 304.313 223.458C304.647 223.27 304.814 222.945 304.814 222.48V222.382C304.814 221.177 304.484 220.24 303.825 219.572C303.173 218.904 302.183 218.57 300.855 218.57C299.478 218.57 298.399 218.871 297.617 219.474C296.834 220.077 296.284 220.72 295.967 221.405L293.229 220.427C293.718 219.287 294.37 218.399 295.185 217.763C296.007 217.119 296.904 216.671 297.873 216.419C298.851 216.158 299.812 216.028 300.757 216.028C301.36 216.028 302.053 216.101 302.835 216.248C303.625 216.386 304.387 216.675 305.12 217.115C305.861 217.555 306.476 218.219 306.965 219.107C307.454 219.995 307.699 221.185 307.699 222.676V235.043H304.814V232.501H304.668C304.472 232.908 304.146 233.344 303.69 233.809C303.234 234.273 302.627 234.668 301.869 234.994C301.112 235.32 300.187 235.483 299.095 235.483ZM299.535 232.892C300.676 232.892 301.637 232.668 302.419 232.22C303.209 231.772 303.804 231.193 304.203 230.485C304.611 229.776 304.814 229.03 304.814 228.248V225.609C304.692 225.755 304.423 225.89 304.008 226.012C303.601 226.126 303.128 226.228 302.59 226.317C302.061 226.399 301.543 226.472 301.038 226.537C300.541 226.594 300.138 226.643 299.828 226.684C299.079 226.782 298.378 226.941 297.727 227.161C297.083 227.373 296.561 227.694 296.162 228.126C295.771 228.55 295.576 229.128 295.576 229.861C295.576 230.864 295.946 231.621 296.688 232.134C297.437 232.64 298.386 232.892 299.535 232.892ZM321.126 216.272V218.716H311.398V216.272H321.126ZM314.233 211.775H317.118V229.666C317.118 230.481 317.236 231.092 317.472 231.499C317.716 231.898 318.026 232.167 318.401 232.306C318.784 232.436 319.187 232.501 319.61 232.501C319.928 232.501 320.189 232.485 320.393 232.452C320.596 232.411 320.759 232.379 320.881 232.354L321.468 234.945C321.272 235.019 321 235.092 320.649 235.165C320.299 235.247 319.855 235.287 319.317 235.287C318.503 235.287 317.704 235.112 316.922 234.762C316.148 234.412 315.504 233.878 314.991 233.161C314.486 232.444 314.233 231.54 314.233 230.448V211.775ZM330.988 235.483C329.798 235.483 328.719 235.259 327.749 234.811C326.78 234.355 326.01 233.699 325.44 232.843C324.869 231.98 324.584 230.937 324.584 229.715C324.584 228.639 324.796 227.768 325.22 227.1C325.643 226.423 326.21 225.894 326.918 225.511C327.627 225.128 328.409 224.843 329.265 224.655C330.128 224.46 330.996 224.305 331.868 224.191C333.008 224.044 333.933 223.934 334.642 223.861C335.359 223.78 335.88 223.645 336.206 223.458C336.54 223.27 336.707 222.945 336.707 222.48V222.382C336.707 221.177 336.377 220.24 335.717 219.572C335.065 218.904 334.076 218.57 332.748 218.57C331.371 218.57 330.291 218.871 329.509 219.474C328.727 220.077 328.177 220.72 327.859 221.405L325.122 220.427C325.611 219.287 326.263 218.399 327.077 217.763C327.9 217.119 328.796 216.671 329.766 216.419C330.743 216.158 331.705 216.028 332.65 216.028C333.253 216.028 333.945 216.101 334.727 216.248C335.518 216.386 336.279 216.675 337.013 217.115C337.754 217.555 338.369 218.219 338.858 219.107C339.347 219.995 339.591 221.185 339.591 222.676V235.043H336.707V232.501H336.56C336.365 232.908 336.039 233.344 335.583 233.809C335.127 234.273 334.52 234.668 333.762 234.994C333.004 235.32 332.08 235.483 330.988 235.483ZM331.428 232.892C332.568 232.892 333.53 232.668 334.312 232.22C335.102 231.772 335.697 231.193 336.096 230.485C336.503 229.776 336.707 229.03 336.707 228.248V225.609C336.585 225.755 336.316 225.89 335.901 226.012C335.493 226.126 335.021 226.228 334.483 226.317C333.953 226.399 333.436 226.472 332.931 226.537C332.434 226.594 332.031 226.643 331.721 226.684C330.972 226.782 330.271 226.941 329.619 227.161C328.976 227.373 328.454 227.694 328.055 228.126C327.664 228.55 327.468 229.128 327.468 229.861C327.468 230.864 327.839 231.621 328.58 232.134C329.33 232.64 330.279 232.892 331.428 232.892Z" fill="black"/>
<rect x="69.0191" y="660.493" width="953.578" height="88.3655" rx="44.1828" fill="#AEAEAE"/>
<path d="M104.825 709.625V684.597H113.575C115.318 684.597 116.756 684.898 117.889 685.501C119.021 686.096 119.864 686.898 120.418 687.909C120.972 688.911 121.249 690.023 121.249 691.245C121.249 692.32 121.058 693.208 120.675 693.909C120.3 694.609 119.803 695.163 119.184 695.571C118.573 695.978 117.909 696.28 117.192 696.475V696.72C117.958 696.768 118.728 697.037 119.502 697.526C120.276 698.015 120.923 698.716 121.445 699.628C121.966 700.541 122.227 701.657 122.227 702.977C122.227 704.231 121.942 705.36 121.371 706.362C120.801 707.364 119.901 708.158 118.671 708.745C117.44 709.331 115.84 709.625 113.868 709.625H104.825ZM107.855 706.936H113.868C115.848 706.936 117.253 706.553 118.084 705.787C118.923 705.013 119.343 704.076 119.343 702.977C119.343 702.129 119.127 701.347 118.695 700.63C118.263 699.905 117.648 699.327 116.85 698.895C116.051 698.455 115.106 698.235 114.015 698.235H107.855V706.936ZM107.855 695.595H113.477C114.389 695.595 115.212 695.416 115.945 695.058C116.687 694.699 117.273 694.194 117.705 693.542C118.145 692.89 118.365 692.125 118.365 691.245C118.365 690.145 117.982 689.212 117.216 688.446C116.451 687.672 115.237 687.285 113.575 687.285H107.855V695.595ZM132.339 710.064C131.15 710.064 130.07 709.84 129.101 709.392C128.131 708.936 127.361 708.28 126.791 707.425C126.221 706.561 125.936 705.518 125.936 704.296C125.936 703.221 126.148 702.349 126.571 701.681C126.995 701.005 127.561 700.475 128.27 700.092C128.979 699.71 129.761 699.424 130.616 699.237C131.48 699.041 132.347 698.887 133.219 698.773C134.36 698.626 135.284 698.516 135.993 698.443C136.71 698.361 137.232 698.227 137.558 698.039C137.892 697.852 138.059 697.526 138.059 697.062V696.964C138.059 695.758 137.729 694.821 137.069 694.153C136.417 693.485 135.427 693.151 134.099 693.151C132.722 693.151 131.643 693.453 130.861 694.055C130.079 694.658 129.529 695.302 129.211 695.986L126.473 695.009C126.962 693.868 127.614 692.98 128.429 692.345C129.252 691.701 130.148 691.253 131.117 691C132.095 690.74 133.056 690.609 134.001 690.609C134.604 690.609 135.297 690.683 136.079 690.829C136.869 690.968 137.631 691.257 138.364 691.697C139.105 692.137 139.721 692.801 140.209 693.689C140.698 694.577 140.943 695.766 140.943 697.257V709.625H138.059V707.083H137.912C137.716 707.49 137.391 707.926 136.934 708.39C136.478 708.855 135.871 709.25 135.113 709.576C134.356 709.902 133.431 710.064 132.339 710.064ZM132.779 707.474C133.92 707.474 134.881 707.25 135.663 706.802C136.454 706.353 137.048 705.775 137.448 705.066C137.855 704.357 138.059 703.612 138.059 702.83V700.19C137.936 700.337 137.668 700.471 137.252 700.594C136.845 700.708 136.372 700.809 135.834 700.899C135.305 700.98 134.788 701.054 134.282 701.119C133.785 701.176 133.382 701.225 133.073 701.266C132.323 701.363 131.622 701.522 130.971 701.742C130.327 701.954 129.806 702.276 129.406 702.708C129.015 703.131 128.82 703.71 128.82 704.443C128.82 705.445 129.191 706.203 129.932 706.716C130.681 707.221 131.631 707.474 132.779 707.474ZM154.37 690.854V693.298H144.642V690.854H154.37ZM147.478 686.357H150.362V704.247C150.362 705.062 150.48 705.673 150.716 706.081C150.96 706.48 151.27 706.749 151.645 706.887C152.028 707.017 152.431 707.083 152.855 707.083C153.172 707.083 153.433 707.066 153.637 707.034C153.84 706.993 154.003 706.96 154.126 706.936L154.712 709.527C154.517 709.6 154.244 709.673 153.893 709.747C153.543 709.828 153.099 709.869 152.561 709.869C151.747 709.869 150.948 709.694 150.166 709.343C149.392 708.993 148.749 708.459 148.235 707.743C147.73 707.026 147.478 706.121 147.478 705.03V686.357ZM164.232 710.064C163.043 710.064 161.963 709.84 160.994 709.392C160.024 708.936 159.254 708.28 158.684 707.425C158.114 706.561 157.828 705.518 157.828 704.296C157.828 703.221 158.04 702.349 158.464 701.681C158.888 701.005 159.454 700.475 160.163 700.092C160.871 699.71 161.653 699.424 162.509 699.237C163.372 699.041 164.24 698.887 165.112 698.773C166.252 698.626 167.177 698.516 167.886 698.443C168.603 698.361 169.124 698.227 169.45 698.039C169.784 697.852 169.951 697.526 169.951 697.062V696.964C169.951 695.758 169.621 694.821 168.961 694.153C168.31 693.485 167.32 693.151 165.992 693.151C164.615 693.151 163.535 693.453 162.753 694.055C161.971 694.658 161.421 695.302 161.104 695.986L158.366 695.009C158.855 693.868 159.507 692.98 160.321 692.345C161.144 691.701 162.04 691.253 163.01 691C163.988 690.74 164.949 690.609 165.894 690.609C166.497 690.609 167.189 690.683 167.971 690.829C168.762 690.968 169.523 691.257 170.257 691.697C170.998 692.137 171.613 692.801 172.102 693.689C172.591 694.577 172.835 695.766 172.835 697.257V709.625H169.951V707.083H169.805C169.609 707.49 169.283 707.926 168.827 708.39C168.371 708.855 167.764 709.25 167.006 709.576C166.248 709.902 165.324 710.064 164.232 710.064ZM164.672 707.474C165.813 707.474 166.774 707.25 167.556 706.802C168.346 706.353 168.941 705.775 169.34 705.066C169.748 704.357 169.951 703.612 169.951 702.83V700.19C169.829 700.337 169.56 700.471 169.145 700.594C168.737 700.708 168.265 700.809 167.727 700.899C167.198 700.98 166.68 701.054 166.175 701.119C165.678 701.176 165.275 701.225 164.965 701.266C164.216 701.363 163.515 701.522 162.863 701.742C162.22 701.954 161.698 702.276 161.299 702.708C160.908 703.131 160.712 703.71 160.712 704.443C160.712 705.445 161.083 706.203 161.825 706.716C162.574 707.221 163.523 707.474 164.672 707.474ZM186.263 690.854V693.298H176.535V690.854H186.263ZM179.37 686.357H182.254V704.247C182.254 705.062 182.372 705.673 182.609 706.081C182.853 706.48 183.163 706.749 183.537 706.887C183.92 707.017 184.324 707.083 184.747 707.083C185.065 707.083 185.326 707.066 185.529 707.034C185.733 706.993 185.896 706.96 186.018 706.936L186.605 709.527C186.409 709.6 186.136 709.673 185.786 709.747C185.436 709.828 184.992 709.869 184.454 709.869C183.639 709.869 182.841 709.694 182.059 709.343C181.285 708.993 180.641 708.459 180.128 707.743C179.623 707.026 179.37 706.121 179.37 705.03V686.357ZM196.125 710.064C194.935 710.064 193.856 709.84 192.886 709.392C191.917 708.936 191.147 708.28 190.576 707.425C190.006 706.561 189.721 705.518 189.721 704.296C189.721 703.221 189.933 702.349 190.357 701.681C190.78 701.005 191.346 700.475 192.055 700.092C192.764 699.71 193.546 699.424 194.402 699.237C195.265 699.041 196.133 698.887 197.005 698.773C198.145 698.626 199.07 698.516 199.779 698.443C200.496 698.361 201.017 698.227 201.343 698.039C201.677 697.852 201.844 697.526 201.844 697.062V696.964C201.844 695.758 201.514 694.821 200.854 694.153C200.202 693.485 199.212 693.151 197.884 693.151C196.508 693.151 195.428 693.453 194.646 694.055C193.864 694.658 193.314 695.302 192.996 695.986L190.259 695.009C190.748 693.868 191.399 692.98 192.214 692.345C193.037 691.701 193.933 691.253 194.903 691C195.88 690.74 196.842 690.609 197.787 690.609C198.39 690.609 199.082 690.683 199.864 690.829C200.654 690.968 201.416 691.257 202.149 691.697C202.891 692.137 203.506 692.801 203.995 693.689C204.484 694.577 204.728 695.766 204.728 697.257V709.625H201.844V707.083H201.697C201.502 707.49 201.176 707.926 200.72 708.39C200.263 708.855 199.656 709.25 198.899 709.576C198.141 709.902 197.216 710.064 196.125 710.064ZM196.565 707.474C197.705 707.474 198.667 707.25 199.449 706.802C200.239 706.353 200.834 705.775 201.233 705.066C201.64 704.357 201.844 703.612 201.844 702.83V700.19C201.722 700.337 201.453 700.471 201.037 700.594C200.63 700.708 200.157 700.809 199.62 700.899C199.09 700.98 198.573 701.054 198.068 701.119C197.571 701.176 197.167 701.225 196.858 701.266C196.108 701.363 195.408 701.522 194.756 701.742C194.112 701.954 193.591 702.276 193.192 702.708C192.801 703.131 192.605 703.71 192.605 704.443C192.605 705.445 192.976 706.203 193.717 706.716C194.467 707.221 195.416 707.474 196.565 707.474ZM240.201 692.418H237.17C236.991 691.546 236.678 690.78 236.23 690.12C235.79 689.461 235.252 688.907 234.616 688.458C233.989 688.002 233.292 687.66 232.527 687.432C231.761 687.204 230.962 687.09 230.131 687.09C228.616 687.09 227.243 687.473 226.013 688.239C224.791 689.004 223.817 690.133 223.092 691.624C222.375 693.115 222.017 694.944 222.017 697.111C222.017 699.278 222.375 701.107 223.092 702.598C223.817 704.089 224.791 705.217 226.013 705.983C227.243 706.749 228.616 707.132 230.131 707.132C230.962 707.132 231.761 707.017 232.527 706.789C233.292 706.561 233.989 706.223 234.616 705.775C235.252 705.319 235.79 704.761 236.23 704.101C236.678 703.433 236.991 702.667 237.17 701.803H240.201C239.973 703.082 239.558 704.227 238.955 705.237C238.352 706.248 237.602 707.107 236.706 707.816C235.81 708.517 234.804 709.05 233.688 709.417C232.58 709.783 231.394 709.967 230.131 709.967C227.997 709.967 226.099 709.445 224.437 708.402C222.775 707.36 221.467 705.877 220.514 703.954C219.561 702.031 219.084 699.75 219.084 697.111C219.084 694.471 219.561 692.19 220.514 690.267C221.467 688.344 222.775 686.862 224.437 685.819C226.099 684.776 227.997 684.255 230.131 684.255C231.394 684.255 232.58 684.438 233.688 684.805C234.804 685.171 235.81 685.709 236.706 686.418C237.602 687.118 238.352 687.974 238.955 688.984C239.558 689.986 239.973 691.131 240.201 692.418ZM247.592 698.333V709.625H244.708V684.597H247.592V693.787H247.836C248.276 692.817 248.936 692.047 249.816 691.477C250.704 690.899 251.885 690.609 253.36 690.609C254.639 690.609 255.759 690.866 256.72 691.379C257.682 691.884 258.427 692.662 258.957 693.713C259.494 694.756 259.763 696.084 259.763 697.697V709.625H256.879V697.893C256.879 696.402 256.492 695.249 255.718 694.434C254.952 693.611 253.889 693.2 252.529 693.2C251.584 693.2 250.736 693.4 249.987 693.799C249.245 694.198 248.659 694.781 248.227 695.546C247.803 696.312 247.592 697.241 247.592 698.333ZM265.04 709.625V690.854H267.924V709.625H265.04ZM266.506 687.725C265.944 687.725 265.459 687.534 265.052 687.151C264.653 686.768 264.453 686.308 264.453 685.77C264.453 685.232 264.653 684.772 265.052 684.389C265.459 684.006 265.944 683.815 266.506 683.815C267.068 683.815 267.549 684.006 267.948 684.389C268.355 684.772 268.559 685.232 268.559 685.77C268.559 686.308 268.355 686.768 267.948 687.151C267.549 687.534 267.068 687.725 266.506 687.725ZM273.206 716.664V690.854H275.992V693.836H276.334C276.546 693.51 276.839 693.094 277.214 692.589C277.597 692.076 278.143 691.62 278.852 691.22C279.569 690.813 280.538 690.609 281.76 690.609C283.341 690.609 284.734 691.004 285.94 691.795C287.146 692.585 288.087 693.705 288.763 695.155C289.439 696.606 289.777 698.316 289.777 700.288C289.777 702.276 289.439 703.999 288.763 705.457C288.087 706.907 287.15 708.032 285.952 708.83C284.754 709.62 283.373 710.016 281.809 710.016C280.603 710.016 279.638 709.816 278.913 709.417C278.188 709.009 277.63 708.549 277.239 708.036C276.848 707.514 276.546 707.083 276.334 706.74H276.09V716.664H273.206ZM276.041 700.239C276.041 701.657 276.249 702.907 276.664 703.991C277.08 705.066 277.687 705.909 278.485 706.52C279.284 707.123 280.261 707.425 281.418 707.425C282.624 707.425 283.63 707.107 284.437 706.472C285.251 705.828 285.862 704.964 286.27 703.881C286.685 702.789 286.893 701.575 286.893 700.239C286.893 698.919 286.689 697.73 286.282 696.671C285.883 695.603 285.276 694.76 284.461 694.141C283.655 693.514 282.64 693.2 281.418 693.2C280.245 693.2 279.259 693.497 278.461 694.092C277.662 694.679 277.059 695.502 276.652 696.561C276.245 697.612 276.041 698.838 276.041 700.239ZM307.472 695.058L304.882 695.791C304.719 695.359 304.478 694.939 304.161 694.532C303.851 694.117 303.427 693.774 302.89 693.506C302.352 693.237 301.664 693.102 300.824 693.102C299.676 693.102 298.718 693.367 297.953 693.897C297.195 694.418 296.816 695.082 296.816 695.889C296.816 696.606 297.077 697.172 297.598 697.587C298.12 698.003 298.934 698.349 300.042 698.626L302.829 699.31C304.507 699.718 305.757 700.341 306.58 701.18C307.403 702.011 307.815 703.082 307.815 704.394C307.815 705.47 307.505 706.431 306.886 707.278C306.275 708.125 305.419 708.794 304.32 709.282C303.22 709.771 301.941 710.016 300.482 710.016C298.568 710.016 296.983 709.6 295.728 708.769C294.474 707.938 293.679 706.724 293.345 705.127L296.083 704.443C296.344 705.453 296.836 706.211 297.562 706.716C298.295 707.221 299.252 707.474 300.433 707.474C301.778 707.474 302.845 707.189 303.635 706.618C304.434 706.04 304.833 705.347 304.833 704.541C304.833 703.889 304.605 703.343 304.148 702.903C303.692 702.455 302.992 702.121 302.046 701.901L298.918 701.168C297.199 700.761 295.936 700.129 295.13 699.274C294.331 698.41 293.932 697.331 293.932 696.035C293.932 694.976 294.229 694.039 294.824 693.224C295.427 692.41 296.246 691.77 297.28 691.306C298.323 690.841 299.505 690.609 300.824 690.609C302.682 690.609 304.14 691.017 305.199 691.831C306.267 692.646 307.024 693.721 307.472 695.058Z" fill="black"/>
<rect x="68.8932" y="818.687" width="953.578" height="88.3655" rx="44.1828" fill="#AEAEAE"/>
<path d="M124.838 850.612H121.808C121.628 849.74 121.315 848.974 120.867 848.314C120.427 847.654 119.889 847.1 119.254 846.652C118.626 846.196 117.93 845.854 117.164 845.626C116.398 845.397 115.6 845.283 114.769 845.283C113.253 845.283 111.88 845.666 110.65 846.432C109.428 847.198 108.455 848.326 107.73 849.817C107.013 851.308 106.654 853.137 106.654 855.304C106.654 857.471 107.013 859.3 107.73 860.791C108.455 862.282 109.428 863.411 110.65 864.176C111.88 864.942 113.253 865.325 114.769 865.325C115.6 865.325 116.398 865.211 117.164 864.983C117.93 864.755 118.626 864.417 119.254 863.969C119.889 863.512 120.427 862.954 120.867 862.294C121.315 861.626 121.628 860.861 121.808 859.997H124.838C124.61 861.276 124.195 862.421 123.592 863.431C122.989 864.441 122.239 865.301 121.343 866.009C120.447 866.71 119.441 867.244 118.325 867.61C117.217 867.977 116.031 868.16 114.769 868.16C112.634 868.16 110.736 867.639 109.074 866.596C107.412 865.553 106.104 864.07 105.151 862.148C104.198 860.225 103.721 857.944 103.721 855.304C103.721 852.665 104.198 850.383 105.151 848.461C106.104 846.538 107.412 845.055 109.074 844.012C110.736 842.97 112.634 842.448 114.769 842.448C116.031 842.448 117.217 842.632 118.325 842.998C119.441 843.365 120.447 843.902 121.343 844.611C122.239 845.312 122.989 846.167 123.592 847.178C124.195 848.18 124.61 849.324 124.838 850.612ZM137.215 868.209C135.406 868.209 133.846 867.81 132.534 867.012C131.231 866.205 130.225 865.081 129.516 863.639C128.815 862.189 128.465 860.502 128.465 858.579C128.465 856.657 128.815 854.962 129.516 853.496C130.225 852.021 131.21 850.872 132.473 850.049C133.744 849.218 135.227 848.803 136.921 848.803C137.899 848.803 138.865 848.966 139.818 849.292C140.771 849.618 141.639 850.147 142.421 850.88C143.203 851.605 143.826 852.567 144.29 853.764C144.755 854.962 144.987 856.437 144.987 858.188V859.41H130.518V856.917H142.054C142.054 855.858 141.842 854.913 141.419 854.082C141.003 853.251 140.408 852.595 139.634 852.115C138.869 851.634 137.964 851.394 136.921 851.394C135.773 851.394 134.779 851.679 133.94 852.249C133.109 852.811 132.469 853.544 132.021 854.449C131.573 855.353 131.349 856.323 131.349 857.357V859.019C131.349 860.437 131.593 861.639 132.082 862.624C132.579 863.602 133.268 864.347 134.147 864.861C135.027 865.366 136.05 865.618 137.215 865.618C137.972 865.618 138.657 865.512 139.268 865.301C139.887 865.081 140.421 864.755 140.869 864.323C141.317 863.883 141.663 863.337 141.907 862.685L144.694 863.468C144.4 864.413 143.908 865.244 143.215 865.961C142.523 866.669 141.667 867.223 140.649 867.623C139.63 868.014 138.486 868.209 137.215 868.209ZM152.258 856.526V867.818H149.374V849.047H152.161V851.98H152.405C152.845 851.027 153.513 850.261 154.409 849.683C155.305 849.096 156.462 848.803 157.88 848.803C159.151 848.803 160.263 849.064 161.216 849.585C162.169 850.098 162.911 850.88 163.44 851.931C163.97 852.974 164.234 854.294 164.234 855.891V867.818H161.35V856.086C161.35 854.612 160.967 853.463 160.202 852.64C159.436 851.809 158.385 851.394 157.049 851.394C156.128 851.394 155.305 851.593 154.58 851.992C153.863 852.392 153.297 852.974 152.882 853.74C152.466 854.506 152.258 855.435 152.258 856.526ZM177.13 868.209C175.436 868.209 173.949 867.806 172.67 866.999C171.399 866.193 170.405 865.064 169.688 863.614C168.979 862.164 168.625 860.469 168.625 858.53C168.625 856.575 168.979 854.868 169.688 853.41C170.405 851.952 171.399 850.819 172.67 850.013C173.949 849.206 175.436 848.803 177.13 848.803C178.825 848.803 180.308 849.206 181.579 850.013C182.858 850.819 183.852 851.952 184.56 853.41C185.277 854.868 185.636 856.575 185.636 858.53C185.636 860.469 185.277 862.164 184.56 863.614C183.852 865.064 182.858 866.193 181.579 866.999C180.308 867.806 178.825 868.209 177.13 868.209ZM177.13 865.618C178.417 865.618 179.477 865.288 180.308 864.629C181.139 863.969 181.754 863.101 182.153 862.026C182.552 860.95 182.752 859.785 182.752 858.53C182.752 857.276 182.552 856.107 182.153 855.023C181.754 853.94 181.139 853.064 180.308 852.396C179.477 851.728 178.417 851.394 177.13 851.394C175.843 851.394 174.784 851.728 173.953 852.396C173.122 853.064 172.507 853.94 172.108 855.023C171.708 856.107 171.509 857.276 171.509 858.53C171.509 859.785 171.708 860.95 172.108 862.026C172.507 863.101 173.122 863.969 173.953 864.629C174.784 865.288 175.843 865.618 177.13 865.618ZM201.868 860.144V849.047H204.752V867.818H201.868V864.641H201.672C201.232 865.594 200.548 866.405 199.619 867.073C198.69 867.733 197.517 868.063 196.1 868.063C194.926 868.063 193.884 867.806 192.971 867.293C192.059 866.771 191.342 865.989 190.82 864.946C190.299 863.895 190.038 862.571 190.038 860.975V849.047H192.922V860.779C192.922 862.148 193.305 863.239 194.071 864.054C194.845 864.869 195.831 865.276 197.028 865.276C197.745 865.276 198.474 865.093 199.216 864.726C199.965 864.36 200.593 863.798 201.098 863.04C201.611 862.282 201.868 861.317 201.868 860.144ZM210.034 867.818V849.047H212.82V851.882H213.016C213.358 850.954 213.977 850.2 214.873 849.622C215.77 849.043 216.78 848.754 217.904 848.754C218.116 848.754 218.381 848.758 218.699 848.766C219.016 848.774 219.257 848.787 219.42 848.803V851.736C219.322 851.711 219.098 851.675 218.747 851.626C218.405 851.569 218.043 851.54 217.66 851.54C216.747 851.54 215.933 851.732 215.216 852.115C214.507 852.489 213.945 853.011 213.529 853.679C213.122 854.339 212.918 855.092 212.918 855.94V867.818H210.034ZM228.362 868.258C227.172 868.258 226.093 868.034 225.123 867.586C224.154 867.13 223.384 866.474 222.814 865.618C222.243 864.755 221.958 863.712 221.958 862.49C221.958 861.415 222.17 860.543 222.594 859.875C223.017 859.199 223.584 858.669 224.292 858.286C225.001 857.903 225.783 857.618 226.639 857.431C227.502 857.235 228.37 857.08 229.242 856.966C230.382 856.82 231.307 856.71 232.016 856.636C232.733 856.555 233.254 856.42 233.58 856.233C233.914 856.046 234.081 855.72 234.081 855.255V855.158C234.081 853.952 233.751 853.015 233.091 852.347C232.44 851.679 231.45 851.345 230.122 851.345C228.745 851.345 227.665 851.646 226.883 852.249C226.101 852.852 225.551 853.496 225.233 854.18L222.496 853.202C222.985 852.062 223.637 851.174 224.451 850.538C225.274 849.895 226.17 849.447 227.14 849.194C228.118 848.933 229.079 848.803 230.024 848.803C230.627 848.803 231.319 848.876 232.101 849.023C232.892 849.161 233.653 849.451 234.387 849.891C235.128 850.33 235.743 850.994 236.232 851.882C236.721 852.771 236.965 853.96 236.965 855.451V867.818H234.081V865.276H233.935C233.739 865.684 233.413 866.119 232.957 866.584C232.501 867.048 231.894 867.443 231.136 867.769C230.378 868.095 229.454 868.258 228.362 868.258ZM228.802 865.667C229.942 865.667 230.904 865.443 231.686 864.995C232.476 864.547 233.071 863.969 233.47 863.26C233.877 862.551 234.081 861.806 234.081 861.023V858.384C233.959 858.53 233.69 858.665 233.275 858.787C232.867 858.901 232.395 859.003 231.857 859.093C231.327 859.174 230.81 859.247 230.305 859.313C229.808 859.37 229.405 859.419 229.095 859.459C228.346 859.557 227.645 859.716 226.993 859.936C226.35 860.148 225.828 860.469 225.429 860.901C225.038 861.325 224.842 861.903 224.842 862.637C224.842 863.639 225.213 864.396 225.954 864.91C226.704 865.415 227.653 865.667 228.802 865.667Z" fill="black"/>
<rect x="69.0191" y="976.88" width="953.578" height="88.3655" rx="44.1828" fill="#AEAEAE"/>
<path d="M118.512 1007.24C118.365 1006 117.77 1005.04 116.728 1004.36C115.685 1003.67 114.406 1003.33 112.89 1003.33C111.782 1003.33 110.813 1003.51 109.982 1003.87C109.159 1004.23 108.515 1004.72 108.051 1005.35C107.595 1005.97 107.367 1006.69 107.367 1007.49C107.367 1008.15 107.525 1008.73 107.843 1009.21C108.169 1009.68 108.585 1010.08 109.09 1010.39C109.595 1010.7 110.124 1010.96 110.678 1011.16C111.232 1011.36 111.742 1011.52 112.206 1011.64L114.748 1012.32C115.4 1012.5 116.125 1012.73 116.923 1013.03C117.73 1013.34 118.5 1013.75 119.233 1014.27C119.974 1014.78 120.585 1015.44 121.066 1016.25C121.547 1017.05 121.787 1018.04 121.787 1019.22C121.787 1020.57 121.432 1021.79 120.724 1022.88C120.023 1023.98 118.997 1024.84 117.644 1025.49C116.3 1026.13 114.666 1026.45 112.744 1026.45C110.951 1026.45 109.399 1026.16 108.088 1025.58C106.784 1025.01 105.758 1024.2 105.008 1023.16C104.267 1022.13 103.847 1020.93 103.749 1019.56H106.878C106.959 1020.5 107.277 1021.29 107.831 1021.91C108.393 1022.52 109.102 1022.97 109.957 1023.27C110.821 1023.57 111.75 1023.71 112.744 1023.71C113.901 1023.71 114.939 1023.53 115.86 1023.15C116.781 1022.77 117.51 1022.24 118.047 1021.56C118.585 1020.88 118.854 1020.08 118.854 1019.17C118.854 1018.34 118.622 1017.66 118.157 1017.14C117.693 1016.62 117.082 1016.19 116.324 1015.87C115.567 1015.54 114.748 1015.26 113.868 1015.01L110.788 1014.13C108.833 1013.57 107.285 1012.77 106.145 1011.73C105.004 1010.68 104.434 1009.32 104.434 1007.63C104.434 1006.23 104.812 1005.01 105.57 1003.97C106.336 1002.92 107.363 1002.1 108.65 1001.52C109.945 1000.94 111.391 1000.64 112.988 1000.64C114.601 1000.64 116.035 1000.93 117.29 1001.51C118.544 1002.08 119.538 1002.86 120.272 1003.86C121.013 1004.85 121.404 1005.98 121.445 1007.24H118.512ZM131.902 1026.45C130.713 1026.45 129.633 1026.23 128.664 1025.78C127.695 1025.32 126.925 1024.67 126.354 1023.81C125.784 1022.95 125.499 1021.91 125.499 1020.68C125.499 1019.61 125.711 1018.74 126.134 1018.07C126.558 1017.39 127.124 1016.86 127.833 1016.48C128.542 1016.1 129.324 1015.81 130.179 1015.62C131.043 1015.43 131.911 1015.27 132.782 1015.16C133.923 1015.01 134.848 1014.9 135.556 1014.83C136.273 1014.75 136.795 1014.61 137.121 1014.43C137.455 1014.24 137.622 1013.91 137.622 1013.45V1013.35C137.622 1012.15 137.292 1011.21 136.632 1010.54C135.98 1009.87 134.99 1009.54 133.662 1009.54C132.285 1009.54 131.206 1009.84 130.424 1010.44C129.642 1011.05 129.092 1011.69 128.774 1012.37L126.037 1011.4C126.525 1010.26 127.177 1009.37 127.992 1008.73C128.815 1008.09 129.711 1007.64 130.68 1007.39C131.658 1007.13 132.619 1007 133.564 1007C134.167 1007 134.86 1007.07 135.642 1007.22C136.432 1007.36 137.194 1007.64 137.927 1008.08C138.669 1008.52 139.284 1009.19 139.773 1010.08C140.261 1010.96 140.506 1012.15 140.506 1013.64V1026.01H137.622V1023.47H137.475C137.28 1023.88 136.954 1024.31 136.497 1024.78C136.041 1025.24 135.434 1025.64 134.677 1025.96C133.919 1026.29 132.994 1026.45 131.902 1026.45ZM132.342 1023.86C133.483 1023.86 134.444 1023.64 135.226 1023.19C136.017 1022.74 136.611 1022.16 137.011 1021.45C137.418 1020.74 137.622 1020 137.622 1019.22V1016.58C137.499 1016.72 137.231 1016.86 136.815 1016.98C136.408 1017.1 135.935 1017.2 135.398 1017.29C134.868 1017.37 134.351 1017.44 133.846 1017.51C133.349 1017.56 132.945 1017.61 132.636 1017.65C131.886 1017.75 131.186 1017.91 130.534 1018.13C129.89 1018.34 129.369 1018.66 128.97 1019.1C128.578 1019.52 128.383 1020.1 128.383 1020.83C128.383 1021.83 128.754 1022.59 129.495 1023.1C130.245 1023.61 131.194 1023.86 132.342 1023.86ZM153.347 1033.44C151.953 1033.44 150.756 1033.26 149.754 1032.9C148.752 1032.55 147.916 1032.09 147.248 1031.51C146.589 1030.94 146.063 1030.33 145.672 1029.68L147.969 1028.07C148.23 1028.41 148.56 1028.8 148.959 1029.24C149.359 1029.69 149.904 1030.07 150.597 1030.4C151.298 1030.73 152.214 1030.9 153.347 1030.9C154.862 1030.9 156.112 1030.53 157.098 1029.8C158.084 1029.07 158.577 1027.92 158.577 1026.35V1022.54H158.333C158.121 1022.88 157.819 1023.31 157.428 1023.81C157.045 1024.31 156.491 1024.75 155.766 1025.14C155.049 1025.53 154.08 1025.72 152.858 1025.72C151.342 1025.72 149.982 1025.36 148.776 1024.64C147.578 1023.93 146.629 1022.88 145.929 1021.51C145.236 1020.15 144.89 1018.48 144.89 1016.53C144.89 1014.61 145.228 1012.93 145.904 1011.51C146.58 1010.07 147.521 1008.96 148.727 1008.18C149.933 1007.39 151.326 1007 152.907 1007C154.129 1007 155.098 1007.2 155.815 1007.61C156.54 1008.01 157.094 1008.46 157.477 1008.98C157.868 1009.48 158.17 1009.9 158.381 1010.22H158.675V1007.24H161.461V1026.55C161.461 1028.16 161.094 1029.47 160.361 1030.48C159.636 1031.5 158.658 1032.25 157.428 1032.72C156.206 1033.2 154.846 1033.44 153.347 1033.44ZM153.249 1023.13C154.406 1023.13 155.383 1022.86 156.182 1022.33C156.98 1021.8 157.587 1021.04 158.003 1020.05C158.418 1019.05 158.626 1017.86 158.626 1016.48C158.626 1015.13 158.422 1013.93 158.015 1012.9C157.607 1011.86 157.005 1011.05 156.206 1010.47C155.408 1009.88 154.422 1009.59 153.249 1009.59C152.027 1009.59 151.008 1009.9 150.194 1010.52C149.387 1011.14 148.78 1011.97 148.373 1013.01C147.974 1014.05 147.774 1015.21 147.774 1016.48C147.774 1017.78 147.978 1018.94 148.385 1019.94C148.8 1020.93 149.411 1021.71 150.218 1022.28C151.033 1022.85 152.043 1023.13 153.249 1023.13ZM178.57 1018.34V1007.24H181.454V1026.01H178.57V1022.83H178.374C177.934 1023.79 177.25 1024.6 176.321 1025.27C175.392 1025.93 174.219 1026.26 172.802 1026.26C171.628 1026.26 170.586 1026 169.673 1025.49C168.761 1024.97 168.044 1024.18 167.522 1023.14C167.001 1022.09 166.74 1020.77 166.74 1019.17V1007.24H169.624V1018.97C169.624 1020.34 170.007 1021.43 170.773 1022.25C171.547 1023.06 172.533 1023.47 173.73 1023.47C174.447 1023.47 175.177 1023.29 175.918 1022.92C176.667 1022.55 177.295 1021.99 177.8 1021.23C178.313 1020.48 178.57 1019.51 178.57 1018.34ZM203.503 1026.4C201.939 1026.4 200.558 1026.01 199.36 1025.22C198.162 1024.42 197.226 1023.29 196.549 1021.84C195.873 1020.39 195.535 1018.66 195.535 1016.68C195.535 1014.7 195.873 1012.99 196.549 1011.54C197.226 1010.09 198.166 1008.97 199.372 1008.18C200.578 1007.39 201.971 1007 203.552 1007C204.774 1007 205.739 1007.2 206.448 1007.61C207.165 1008.01 207.711 1008.46 208.086 1008.98C208.468 1009.48 208.766 1009.9 208.978 1010.22H209.222V1000.98H212.106V1026.01H209.32V1023.13H208.978C208.766 1023.47 208.464 1023.9 208.073 1024.42C207.682 1024.94 207.124 1025.4 206.399 1025.8C205.674 1026.2 204.709 1026.4 203.503 1026.4ZM203.894 1023.81C205.051 1023.81 206.028 1023.51 206.827 1022.91C207.625 1022.3 208.232 1021.45 208.648 1020.38C209.063 1019.29 209.271 1018.04 209.271 1016.63C209.271 1015.23 209.067 1014 208.66 1012.95C208.253 1011.89 207.65 1011.07 206.851 1010.48C206.053 1009.88 205.067 1009.59 203.894 1009.59C202.672 1009.59 201.653 1009.9 200.839 1010.53C200.032 1011.15 199.425 1011.99 199.018 1013.06C198.619 1014.12 198.419 1015.31 198.419 1016.63C198.419 1017.96 198.623 1019.18 199.03 1020.27C199.446 1021.35 200.057 1022.22 200.863 1022.86C201.678 1023.49 202.688 1023.81 203.894 1023.81ZM225.659 1026.4C223.85 1026.4 222.29 1026 220.978 1025.21C219.675 1024.4 218.669 1023.27 217.96 1021.83C217.259 1020.38 216.909 1018.7 216.909 1016.77C216.909 1014.85 217.259 1013.16 217.96 1011.69C218.669 1010.21 219.654 1009.07 220.917 1008.24C222.188 1007.41 223.671 1007 225.365 1007C226.343 1007 227.308 1007.16 228.262 1007.49C229.215 1007.81 230.083 1008.34 230.865 1009.07C231.647 1009.8 232.27 1010.76 232.734 1011.96C233.199 1013.16 233.431 1014.63 233.431 1016.38V1017.6H218.962V1015.11H230.498C230.498 1014.05 230.286 1013.11 229.863 1012.28C229.447 1011.45 228.852 1010.79 228.078 1010.31C227.313 1009.83 226.408 1009.59 225.365 1009.59C224.217 1009.59 223.223 1009.87 222.384 1010.44C221.553 1011.01 220.913 1011.74 220.465 1012.64C220.017 1013.55 219.793 1014.52 219.793 1015.55V1017.21C219.793 1018.63 220.037 1019.83 220.526 1020.82C221.023 1021.8 221.711 1022.54 222.591 1023.05C223.471 1023.56 224.494 1023.81 225.659 1023.81C226.416 1023.81 227.101 1023.71 227.712 1023.49C228.331 1023.27 228.865 1022.95 229.313 1022.52C229.761 1022.08 230.107 1021.53 230.351 1020.88L233.138 1021.66C232.844 1022.61 232.352 1023.44 231.659 1024.15C230.967 1024.86 230.111 1025.42 229.093 1025.82C228.074 1026.21 226.93 1026.4 225.659 1026.4ZM264.312 1000.98H267.343V1017.56C267.343 1019.27 266.94 1020.79 266.133 1022.14C265.335 1023.47 264.206 1024.53 262.748 1025.3C261.29 1026.07 259.579 1026.45 257.616 1026.45C255.652 1026.45 253.941 1026.07 252.483 1025.3C251.025 1024.53 249.892 1023.47 249.086 1022.14C248.287 1020.79 247.888 1019.27 247.888 1017.56V1000.98H250.919V1017.31C250.919 1018.53 251.187 1019.62 251.725 1020.57C252.263 1021.52 253.029 1022.26 254.023 1022.81C255.025 1023.35 256.222 1023.62 257.616 1023.62C259.009 1023.62 260.206 1023.35 261.208 1022.81C262.21 1022.26 262.976 1021.52 263.506 1020.57C264.044 1019.62 264.312 1018.53 264.312 1017.31V1000.98ZM288.353 1007.24L281.412 1026.01H278.479L271.538 1007.24H274.666L279.848 1022.2H280.043L285.225 1007.24H288.353ZM297.112 1026.45C295.923 1026.45 294.843 1026.23 293.874 1025.78C292.904 1025.32 292.135 1024.67 291.564 1023.81C290.994 1022.95 290.709 1021.91 290.709 1020.68C290.709 1019.61 290.921 1018.74 291.344 1018.07C291.768 1017.39 292.334 1016.86 293.043 1016.48C293.752 1016.1 294.534 1015.81 295.389 1015.62C296.253 1015.43 297.121 1015.27 297.992 1015.16C299.133 1015.01 300.058 1014.9 300.766 1014.83C301.483 1014.75 302.005 1014.61 302.331 1014.43C302.665 1014.24 302.832 1013.91 302.832 1013.45V1013.35C302.832 1012.15 302.502 1011.21 301.842 1010.54C301.19 1009.87 300.2 1009.54 298.872 1009.54C297.495 1009.54 296.416 1009.84 295.634 1010.44C294.852 1011.05 294.302 1011.69 293.984 1012.37L291.247 1011.4C291.735 1010.26 292.387 1009.37 293.202 1008.73C294.025 1008.09 294.921 1007.64 295.89 1007.39C296.868 1007.13 297.829 1007 298.774 1007C299.377 1007 300.07 1007.07 300.852 1007.22C301.642 1007.36 302.404 1007.64 303.137 1008.08C303.879 1008.52 304.494 1009.19 304.982 1010.08C305.471 1010.96 305.716 1012.15 305.716 1013.64V1026.01H302.832V1023.47H302.685C302.489 1023.88 302.164 1024.31 301.707 1024.78C301.251 1025.24 300.644 1025.64 299.886 1025.96C299.129 1026.29 298.204 1026.45 297.112 1026.45ZM297.552 1023.86C298.693 1023.86 299.654 1023.64 300.436 1023.19C301.227 1022.74 301.821 1022.16 302.221 1021.45C302.628 1020.74 302.832 1020 302.832 1019.22V1016.58C302.709 1016.72 302.441 1016.86 302.025 1016.98C301.618 1017.1 301.145 1017.2 300.608 1017.29C300.078 1017.37 299.561 1017.44 299.055 1017.51C298.559 1017.56 298.155 1017.61 297.846 1017.65C297.096 1017.75 296.395 1017.91 295.744 1018.13C295.1 1018.34 294.579 1018.66 294.179 1019.1C293.788 1019.52 293.593 1020.1 293.593 1020.83C293.593 1021.83 293.964 1022.59 294.705 1023.1C295.455 1023.61 296.404 1023.86 297.552 1023.86Z" fill="black"/>
<path d="M368.915 116H353.097L377.199 46.1818H396.222L420.29 116H404.472L386.983 62.1364H386.438L368.915 116ZM367.926 88.5568H405.29V100.08H367.926V88.5568ZM428.42 116V63.6364H442.261V72.875H442.875C443.966 69.8068 445.784 67.3864 448.33 65.6136C450.875 63.8409 453.92 62.9545 457.466 62.9545C461.057 62.9545 464.114 63.8523 466.636 65.6477C469.159 67.4205 470.841 69.8295 471.682 72.875H472.227C473.295 69.875 475.227 67.4773 478.023 65.6818C480.841 63.8636 484.17 62.9545 488.011 62.9545C492.898 62.9545 496.864 64.5114 499.909 67.625C502.977 70.7159 504.511 75.1023 504.511 80.7841V116H490.023V83.6477C490.023 80.7386 489.25 78.5568 487.705 77.1023C486.159 75.6477 484.227 74.9205 481.909 74.9205C479.273 74.9205 477.216 75.7614 475.739 77.4432C474.261 79.1023 473.523 81.2955 473.523 84.0227V116H459.443V83.3409C459.443 80.7727 458.705 78.7273 457.227 77.2045C455.773 75.6818 453.852 74.9205 451.466 74.9205C449.852 74.9205 448.398 75.3295 447.102 76.1477C445.83 76.9432 444.818 78.0682 444.068 79.5227C443.318 80.9545 442.943 82.6364 442.943 84.5682V116H428.42ZM530.915 116.989C527.574 116.989 524.597 116.409 521.983 115.25C519.369 114.068 517.301 112.33 515.778 110.034C514.278 107.716 513.528 104.83 513.528 101.375C513.528 98.4659 514.063 96.0227 515.131 94.0455C516.199 92.0682 517.653 90.4773 519.494 89.2727C521.335 88.0682 523.426 87.1591 525.767 86.5455C528.131 85.9318 530.608 85.5 533.199 85.25C536.244 84.9318 538.699 84.6364 540.562 84.3636C542.426 84.0682 543.778 83.6364 544.619 83.0682C545.46 82.5 545.881 81.6591 545.881 80.5455V80.3409C545.881 78.1818 545.199 76.5114 543.835 75.3295C542.494 74.1477 540.585 73.5568 538.108 73.5568C535.494 73.5568 533.415 74.1364 531.869 75.2955C530.324 76.4318 529.301 77.8636 528.801 79.5909L515.369 78.5C516.051 75.3182 517.392 72.5682 519.392 70.25C521.392 67.9091 523.972 66.1136 527.131 64.8636C530.313 63.5909 533.994 62.9545 538.176 62.9545C541.085 62.9545 543.869 63.2955 546.528 63.9773C549.21 64.6591 551.585 65.7159 553.653 67.1477C555.744 68.5795 557.392 70.4205 558.597 72.6705C559.801 74.8977 560.403 77.5682 560.403 80.6818V116H546.631V108.739H546.222C545.381 110.375 544.256 111.818 542.847 113.068C541.438 114.295 539.744 115.261 537.767 115.966C535.79 116.648 533.506 116.989 530.915 116.989ZM535.074 106.966C537.21 106.966 539.097 106.545 540.733 105.705C542.369 104.841 543.653 103.682 544.585 102.227C545.517 100.773 545.983 99.125 545.983 97.2841V91.7273C545.528 92.0227 544.903 92.2955 544.108 92.5455C543.335 92.7727 542.46 92.9886 541.483 93.1932C540.506 93.375 539.528 93.5455 538.551 93.7045C537.574 93.8409 536.688 93.9659 535.892 94.0795C534.188 94.3295 532.699 94.7273 531.426 95.2727C530.153 95.8182 529.165 96.5568 528.46 97.4886C527.756 98.3977 527.403 99.5341 527.403 100.898C527.403 102.875 528.119 104.386 529.551 105.432C531.006 106.455 532.847 106.966 535.074 106.966ZM586.193 85.7273V116H571.67V63.6364H585.511V72.875H586.125C587.284 69.8295 589.227 67.4205 591.955 65.6477C594.682 63.8523 597.989 62.9545 601.875 62.9545C605.511 62.9545 608.682 63.75 611.386 65.3409C614.091 66.9318 616.193 69.2045 617.693 72.1591C619.193 75.0909 619.943 78.5909 619.943 82.6591V116H605.42V85.25C605.443 82.0455 604.625 79.5455 602.966 77.75C601.307 75.9318 599.023 75.0227 596.114 75.0227C594.159 75.0227 592.432 75.4432 590.932 76.2841C589.455 77.125 588.295 78.3523 587.455 79.9659C586.636 81.5568 586.216 83.4773 586.193 85.7273ZM645.912 85.7273V116H631.389V46.1818H645.503V72.875H646.116C647.298 69.7841 649.207 67.3636 651.844 65.6136C654.48 63.8409 657.787 62.9545 661.764 62.9545C665.401 62.9545 668.571 63.75 671.276 65.3409C674.003 66.9091 676.116 69.1705 677.616 72.125C679.139 75.0568 679.889 78.5682 679.866 82.6591V116H665.344V85.25C665.366 82.0227 664.548 79.5114 662.889 77.7159C661.253 75.9205 658.957 75.0227 656.003 75.0227C654.026 75.0227 652.276 75.4432 650.753 76.2841C649.253 77.125 648.071 78.3523 647.207 79.9659C646.366 81.5568 645.935 83.4773 645.912 85.7273ZM706.227 116.989C702.886 116.989 699.909 116.409 697.295 115.25C694.682 114.068 692.614 112.33 691.091 110.034C689.591 107.716 688.841 104.83 688.841 101.375C688.841 98.4659 689.375 96.0227 690.443 94.0455C691.511 92.0682 692.966 90.4773 694.807 89.2727C696.648 88.0682 698.739 87.1591 701.08 86.5455C703.443 85.9318 705.92 85.5 708.511 85.25C711.557 84.9318 714.011 84.6364 715.875 84.3636C717.739 84.0682 719.091 83.6364 719.932 83.0682C720.773 82.5 721.193 81.6591 721.193 80.5455V80.3409C721.193 78.1818 720.511 76.5114 719.148 75.3295C717.807 74.1477 715.898 73.5568 713.42 73.5568C710.807 73.5568 708.727 74.1364 707.182 75.2955C705.636 76.4318 704.614 77.8636 704.114 79.5909L690.682 78.5C691.364 75.3182 692.705 72.5682 694.705 70.25C696.705 67.9091 699.284 66.1136 702.443 64.8636C705.625 63.5909 709.307 62.9545 713.489 62.9545C716.398 62.9545 719.182 63.2955 721.841 63.9773C724.523 64.6591 726.898 65.7159 728.966 67.1477C731.057 68.5795 732.705 70.4205 733.909 72.6705C735.114 74.8977 735.716 77.5682 735.716 80.6818V116H721.943V108.739H721.534C720.693 110.375 719.568 111.818 718.159 113.068C716.75 114.295 715.057 115.261 713.08 115.966C711.102 116.648 708.818 116.989 706.227 116.989ZM710.386 106.966C712.523 106.966 714.409 106.545 716.045 105.705C717.682 104.841 718.966 103.682 719.898 102.227C720.83 100.773 721.295 99.125 721.295 97.2841V91.7273C720.841 92.0227 720.216 92.2955 719.42 92.5455C718.648 92.7727 717.773 92.9886 716.795 93.1932C715.818 93.375 714.841 93.5455 713.864 93.7045C712.886 93.8409 712 93.9659 711.205 94.0795C709.5 94.3295 708.011 94.7273 706.739 95.2727C705.466 95.8182 704.477 96.5568 703.773 97.4886C703.068 98.3977 702.716 99.5341 702.716 100.898C702.716 102.875 703.432 104.386 704.864 105.432C706.318 106.455 708.159 106.966 710.386 106.966ZM704.284 57.1932L696.205 57.0909C696.205 52.75 697.273 49.4205 699.409 47.1023C701.568 44.7841 704.193 43.6136 707.284 43.5909C708.875 43.5909 710.239 43.8523 711.375 44.375C712.534 44.875 713.568 45.4659 714.477 46.1477C715.409 46.8295 716.295 47.4318 717.136 47.9545C717.977 48.4545 718.886 48.7045 719.864 48.7045C721.182 48.6818 722.182 48.1932 722.864 47.2386C723.568 46.2614 723.92 44.9886 723.92 43.4205L731.864 43.6591C731.818 47.9545 730.727 51.2727 728.591 53.6136C726.455 55.9318 723.852 57.1023 720.784 57.125C719.08 57.125 717.648 56.875 716.489 56.375C715.352 55.8523 714.352 55.2614 713.489 54.6023C712.625 53.9205 711.784 53.3182 710.966 52.7955C710.148 52.2727 709.227 52.0114 708.205 52.0114C707.023 52.0114 706.068 52.4773 705.341 53.4091C704.636 54.3409 704.284 55.6023 704.284 57.1932Z" fill="black"/>
</svg>
