<?xml version="1.0" standalone="no"?>
<!DOCTYPE svg PUBLIC "-//W3C//DTD SVG 20010904//EN"
 "http://www.w3.org/TR/2001/REC-SVG-20010904/DTD/svg10.dtd">
<svg version="1.0" xmlns="http://www.w3.org/2000/svg"
 width="216.000000pt" height="1176.000000pt" viewBox="0 0 216.000000 1176.000000"
 preserveAspectRatio="xMidYMid meet">

<g transform="translate(0.000000,1176.000000) scale(0.100000,-0.100000)"
fill="#00569D" stroke="none">
<path d="M0 5880 l0 -5880 698 1 c383 0 686 4 672 8 -69 21 -131 74 -166 141
-26 49 -26 171 0 220 53 101 121 139 266 151 205 16 337 76 475 214 100 99
146 175 187 305 33 108 33 292 0 400 -40 127 -88 206 -182 300 -141 141 -276
203 -479 219 -146 12 -214 50 -267 151 -26 49 -26 171 0 220 53 101 121 139
266 151 205 16 337 76 475 214 100 99 146 175 187 305 33 108 33 292 0 400
-40 127 -88 206 -182 300 -141 141 -276 203 -479 219 -146 12 -214 50 -267
151 -26 49 -26 171 0 220 53 101 121 139 266 151 205 16 337 76 475 214 100
99 146 175 187 305 33 108 33 292 0 400 -40 127 -88 206 -182 300 -141 141
-276 203 -480 219 -115 9 -154 23 -208 75 -57 53 -77 101 -77 186 0 85 20 133
77 186 54 52 93 66 208 75 205 16 337 76 475 214 100 99 146 175 187 305 19
62 23 97 23 200 0 103 -4 138 -23 200 -40 127 -88 206 -182 300 -141 141 -276
203 -480 219 -115 9 -154 23 -208 75 -57 53 -77 101 -77 186 0 85 20 133 77
186 54 52 93 66 208 75 205 16 337 76 475 214 100 99 146 175 187 305 33 108
33 292 0 400 -40 127 -88 206 -182 300 -141 141 -276 203 -479 219 -119 10
-165 27 -217 83 -54 57 -69 95 -69 178 0 85 20 133 77 186 54 52 93 66 208 75
205 16 337 76 475 214 100 99 146 175 187 305 33 108 33 292 0 400 -40 127
-88 206 -182 300 -95 96 -177 148 -295 188 l-80 27 -787 3 -788 3 0 -5881z"/>
</g>
</svg>
