<svg width="113" height="137" viewBox="0 0 113 137" fill="none" xmlns="http://www.w3.org/2000/svg">
<g filter="url(#filter0_d_64_16)">
<path d="M95.8137 7.18604C102.428 7.18604 107.79 12.5481 107.79 19.1626V114.977C107.79 121.591 102.428 126.954 95.8137 126.954H23.9533C17.3389 126.954 11.9769 121.591 11.9767 114.977V19.1626C11.9768 12.5482 17.3389 7.18613 23.9533 7.18604H95.8137ZM52.8586 52.9292L47.9094 47.98C50.3784 41.4298 48.9777 33.7528 43.7062 28.481C39.3846 24.1595 33.4465 22.4406 27.8381 23.3208L37.5881 33.0698C38.4323 33.9146 38.4315 35.2847 37.5871 36.1294C36.7424 36.9735 35.3731 36.9735 34.5285 36.1294L23.1252 24.7261C21.7897 25.3298 20.5113 26.1012 19.3224 27.0405L31.4689 39.188L31.6174 39.353C32.3098 40.2025 32.2603 41.4557 31.4689 42.2476C30.6771 43.039 29.4239 43.0884 28.5744 42.396L28.4103 42.2476L16.2629 30.1001C15.3231 31.2893 14.5514 32.5679 13.9474 33.9038L25.3508 45.3071C26.1949 46.1518 26.1949 47.521 25.3508 48.3657C24.506 49.2102 23.1359 49.2102 22.2912 48.3657L12.5422 38.6167C11.6618 44.2253 13.3807 50.1631 17.7023 54.4849C22.9745 59.7567 30.652 61.1576 37.2023 58.688L42.1516 63.6372L27.4504 78.3384C24.494 81.295 24.4942 86.0887 27.4504 89.0454C30.4072 92.0019 35.2017 92.0021 38.1584 89.0454L52.8586 74.3442L69.7101 91.1958L69.9924 91.4644C72.9645 94.1494 77.5539 94.0601 80.4182 91.1958C83.2817 88.3316 83.3713 83.7429 80.6867 80.771L80.4182 80.4888L64.1955 64.2661C70.0476 63.3325 76.0485 60.333 80.9875 55.394C91.5469 44.8344 93.2589 29.426 84.8117 20.978L52.8586 52.9292Z" fill="white"/>
</g>
<g filter="url(#filter1_d_64_16)">
<path d="M88.6276 0C95.2421 0 100.604 5.36207 100.604 11.9766V107.791C100.604 114.405 95.2421 119.768 88.6276 119.768H16.7673C10.1529 119.767 4.79087 114.405 4.7907 107.791V11.9766C4.7908 5.36214 10.1528 9.80546e-05 16.7673 0H88.6276ZM52.8581 52.9287L47.9089 47.9795C50.3778 41.4293 48.9773 33.7522 43.7057 28.4805C39.384 24.1591 33.446 22.44 27.8376 23.3203L37.5876 33.0693C38.4321 33.9141 38.4311 35.2842 37.5866 36.1289C36.7418 36.9731 35.3726 36.9733 34.528 36.1289L23.1247 24.7256C21.7892 25.3293 20.5109 26.1007 19.3219 27.04L31.4684 39.1875L31.6169 39.3525C32.3094 40.202 32.2599 41.4552 31.4684 42.2471C30.6765 43.0386 29.4234 43.0881 28.5739 42.3955L28.4098 42.2471L16.2624 30.0996C15.3227 31.2888 14.5509 32.5675 13.9469 33.9033L25.3503 45.3066C26.1947 46.1513 26.1944 47.5205 25.3503 48.3652C24.5055 49.2098 23.1354 49.2099 22.2907 48.3652L12.5417 38.6162C11.6613 44.2247 13.3804 50.1626 17.7018 54.4844C22.974 59.7564 30.6514 61.1572 37.2018 58.6875L42.151 63.6367L27.4499 78.3379C24.4936 81.2944 24.494 86.0882 27.4499 89.0449C30.4066 92.0017 35.2011 92.0017 38.1579 89.0449L52.8581 74.3438L69.7096 91.1953L69.9919 91.4639C72.964 94.1491 77.5533 94.0597 80.4176 91.1953C83.2813 88.331 83.371 83.7424 80.6862 80.7705L80.4176 80.4883L64.195 64.2656C70.0472 63.332 76.0479 60.3326 80.987 55.3936C91.5465 44.8338 93.2587 29.4254 84.8112 20.9775L52.8581 52.9287Z" fill="white"/>
</g>
<defs>
<filter id="filter0_d_64_16" x="7.18605" y="7.18604" width="105.395" height="129.349" filterUnits="userSpaceOnUse" color-interpolation-filters="sRGB">
<feFlood flood-opacity="0" result="BackgroundImageFix"/>
<feColorMatrix in="SourceAlpha" type="matrix" values="0 0 0 0 0 0 0 0 0 0 0 0 0 0 0 0 0 0 127 0" result="hardAlpha"/>
<feOffset dy="4.7907"/>
<feGaussianBlur stdDeviation="2.39535"/>
<feComposite in2="hardAlpha" operator="out"/>
<feColorMatrix type="matrix" values="0 0 0 0 0 0 0 0 0 0 0 0 0 0 0 0 0 0 0.25 0"/>
<feBlend mode="normal" in2="BackgroundImageFix" result="effect1_dropShadow_64_16"/>
<feBlend mode="normal" in="SourceGraphic" in2="effect1_dropShadow_64_16" result="shape"/>
</filter>
<filter id="filter1_d_64_16" x="-2.38419e-06" y="0" width="105.395" height="129.349" filterUnits="userSpaceOnUse" color-interpolation-filters="sRGB">
<feFlood flood-opacity="0" result="BackgroundImageFix"/>
<feColorMatrix in="SourceAlpha" type="matrix" values="0 0 0 0 0 0 0 0 0 0 0 0 0 0 0 0 0 0 127 0" result="hardAlpha"/>
<feOffset dy="4.7907"/>
<feGaussianBlur stdDeviation="2.39535"/>
<feComposite in2="hardAlpha" operator="out"/>
<feColorMatrix type="matrix" values="0 0 0 0 0 0 0 0 0 0 0 0 0 0 0 0 0 0 0.25 0"/>
<feBlend mode="normal" in2="BackgroundImageFix" result="effect1_dropShadow_64_16"/>
<feBlend mode="normal" in="SourceGraphic" in2="effect1_dropShadow_64_16" result="shape"/>
</filter>
</defs>
</svg>
