<svg width="140" height="137" viewBox="0 0 140 137" fill="none" xmlns="http://www.w3.org/2000/svg">
<g filter="url(#filter0_d_65_115)">
<path d="M69.6089 44.2557C77.7691 44.2558 84.7634 49.2432 87.7124 56.3358C86.5645 56.3722 85.4103 56.323 84.2603 56.1786L67.6031 83.3514C61.0422 82.6845 55.4393 78.7813 52.4136 73.2635L68.7232 46.6561C68.2261 45.9234 67.7784 45.1628 67.3755 44.3817C68.1085 44.2986 68.8537 44.2557 69.6089 44.2557Z" fill="white"/>
<path d="M89.2082 12.7412C94.3632 14.8091 99.128 17.6433 103.361 21.1035L114.562 14.6377L134.16 48.584L122.754 55.1689C123.144 57.7968 123.348 60.4862 123.348 63.2227C123.348 65.9586 123.144 68.647 122.754 71.2744L134.16 77.8604L114.562 111.807L103.361 105.34C99.1279 108.8 94.3634 111.635 89.2082 113.703V126.444H50.0099V114.191C44.5835 112.171 39.5666 109.311 35.1183 105.766L24.6564 111.807L5.05777 77.8604L15.3019 71.9453C14.8439 69.1054 14.6056 66.1918 14.6056 63.2227C14.6056 60.2529 14.8438 57.3385 15.3019 54.498L5.05777 48.584L24.6564 14.6377L35.1183 20.6777C39.5666 17.133 44.5836 14.272 50.0099 12.252V0H89.2082V12.7412ZM85.3419 12.1572C78.5115 12.6863 72.0214 16.3688 68.1671 22.6562C63.9706 29.5024 63.9466 37.7297 67.3771 44.3809L67.3761 44.3818V44.3828C57.6035 45.4912 50.01 53.7855 50.0099 63.8545C50.0099 67.2645 50.8817 70.4708 52.4132 73.2637L39.8312 93.79C39.8244 93.8011 39.8175 93.8122 39.8107 93.8232C37.181 98.1133 38.5268 103.723 42.8166 106.353C47.1065 108.982 52.7159 107.637 55.3459 103.348H55.3468L67.6037 83.3516L67.5812 83.3486C68.2477 83.4171 68.924 83.4531 69.6086 83.4531C80.4327 83.4531 89.2082 74.6786 89.2082 63.8545C89.2081 61.1898 88.6754 58.6499 87.7121 56.334C94.9081 56.1065 101.854 52.382 105.898 45.7852C109.751 39.4979 110.089 32.0435 107.461 25.7168L96.0382 44.3525L96.0373 44.3516L81.2121 43.7158L73.9181 30.793L74.672 29.5645H74.6711L75.3322 28.4854V28.4863L76.1779 27.1064L76.838 26.0283H76.839L85.3419 12.1572ZM42.7785 95.3857C44.4426 92.6717 47.9918 91.8207 50.7062 93.4844C50.9507 93.6343 51.1809 93.799 51.3947 93.9775C51.4141 93.9937 51.4332 94.0109 51.4523 94.0273C51.7093 94.2478 51.9428 94.4884 52.1525 94.7441C52.196 94.7972 52.239 94.8509 52.2804 94.9053C52.3458 94.9912 52.4078 95.0799 52.4679 95.1689C52.5183 95.2435 52.5678 95.3189 52.6144 95.3955C52.7039 95.5424 52.7868 95.6931 52.8625 95.8467C52.9894 96.1045 53.0958 96.3719 53.1828 96.6445C53.2259 96.7796 53.2659 96.9159 53.299 97.0537C53.4065 97.5019 53.4609 97.9634 53.4591 98.4268C53.4588 98.5191 53.4561 98.6117 53.4513 98.7041C53.4028 99.6324 53.1283 100.563 52.6086 101.411C50.9445 104.125 47.3943 104.976 44.6798 103.312C42.0285 101.687 41.156 98.2641 42.6681 95.5762L42.7785 95.3857ZM67.007 83.2803L66.9914 83.2793C66.979 83.2777 66.9666 83.2751 66.9543 83.2734C66.9718 83.2758 66.9894 83.2779 67.007 83.2803ZM66.4474 83.1973C66.4113 83.1914 66.3751 83.1857 66.339 83.1797C66.3751 83.1857 66.4113 83.1914 66.4474 83.1973ZM65.9171 83.1035C65.8683 83.0942 65.8194 83.0849 65.7707 83.0752C65.8194 83.0849 65.8683 83.0942 65.9171 83.1035ZM64.1252 82.6748C64.1127 82.6712 64.1005 82.6667 64.088 82.6631C64.1005 82.6667 64.1127 82.6712 64.1252 82.6748ZM63.6134 82.5176C63.5736 82.5048 63.534 82.4915 63.4943 82.4785C63.534 82.4915 63.5736 82.5048 63.6134 82.5176ZM63.0412 82.3232C63.0262 82.3179 63.0112 82.313 62.9962 82.3076C63.0112 82.313 63.0262 82.3179 63.0412 82.3232ZM61.4269 81.667C61.4122 81.6602 61.3976 81.6533 61.383 81.6465C61.3976 81.6533 61.4122 81.6602 61.4269 81.667ZM60.4201 81.168C60.4039 81.1594 60.3874 81.1512 60.3712 81.1426C60.3874 81.1512 60.4039 81.1594 60.4201 81.168ZM59.4123 80.5938C59.385 80.5771 59.3583 80.5597 59.3312 80.543C59.3583 80.5597 59.385 80.5771 59.4123 80.5938ZM58.9328 80.291C58.9135 80.2785 58.8944 80.2656 58.8752 80.2529C58.8944 80.2656 58.9135 80.2785 58.9328 80.291ZM58.4992 80C58.4603 79.9732 58.4217 79.946 58.383 79.9189C58.4217 79.946 58.4603 79.9732 58.4992 80ZM58.0324 79.668C58.0083 79.6503 57.9841 79.633 57.9601 79.6152C57.9841 79.633 58.0083 79.6503 58.0324 79.668ZM53.006 74.2715C52.9936 74.2517 52.9813 74.2318 52.9689 74.2119C52.9813 74.2318 52.9936 74.2517 53.006 74.2715ZM87.4074 55.6406C87.4159 55.6591 87.4243 55.6777 87.4328 55.6963C87.4243 55.6777 87.4159 55.6591 87.4074 55.6406ZM87.1017 55.0098C87.1115 55.029 87.1213 55.0481 87.131 55.0674C87.1213 55.0481 87.1115 55.029 87.1017 55.0098ZM85.6359 52.5723C85.6468 52.5878 85.6572 52.6036 85.6681 52.6191C85.6572 52.6036 85.6468 52.5878 85.6359 52.5723ZM83.3146 49.8467C83.3347 49.8663 83.3552 49.8855 83.3752 49.9053C83.3552 49.8855 83.3347 49.8663 83.3146 49.8467ZM82.2257 48.8584C82.2697 48.8955 82.3139 48.9323 82.3576 48.9697C82.3139 48.9323 82.2697 48.8955 82.2257 48.8584ZM81.7433 48.4629C81.7687 48.483 81.7932 48.5042 81.8185 48.5244C81.7932 48.5042 81.7687 48.483 81.7433 48.4629ZM81.1086 47.9844C81.1555 48.0185 81.2025 48.0524 81.2492 48.0869C81.2025 48.0524 81.1555 48.0185 81.1086 47.9844ZM80.5968 47.623C80.6241 47.6416 80.6507 47.661 80.6779 47.6797C80.6507 47.6611 80.6241 47.6415 80.5968 47.623ZM79.9279 47.1904C79.9851 47.2259 80.042 47.2618 80.0988 47.2979C80.042 47.2618 79.9851 47.2259 79.9279 47.1904ZM79.3791 46.8604C79.4171 46.8823 79.4544 46.9055 79.4923 46.9277C79.4544 46.9056 79.4171 46.8823 79.3791 46.8604ZM78.7228 46.501C78.7563 46.5186 78.79 46.5359 78.8234 46.5537C78.79 46.5359 78.7563 46.5186 78.7228 46.501ZM77.3927 45.8633C77.4528 45.8893 77.5127 45.9158 77.5724 45.9424C77.5127 45.9158 77.4528 45.8893 77.3927 45.8633ZM76.8087 45.6211C76.8404 45.6336 76.8719 45.6465 76.9035 45.6592C76.8719 45.6465 76.8404 45.6336 76.8087 45.6211ZM76.0705 45.3467C76.123 45.365 76.1754 45.3836 76.2277 45.4023C76.1754 45.3836 76.123 45.365 76.0705 45.3467ZM75.4435 45.1387C75.4752 45.1485 75.5066 45.1589 75.5382 45.1689C75.5066 45.1589 75.4752 45.1485 75.4435 45.1387ZM74.6681 44.916C74.7274 44.9318 74.7868 44.9475 74.8459 44.9639C74.7868 44.9475 74.7274 44.9318 74.6681 44.916ZM74.0392 44.7578C74.0713 44.7652 74.1029 44.7747 74.1349 44.7822C74.1029 44.7747 74.0713 44.7652 74.0392 44.7578ZM73.2668 44.5977C73.3143 44.6066 73.3619 44.6157 73.4093 44.625C73.3619 44.6157 73.3143 44.6066 73.2668 44.5977ZM72.5714 44.4775C72.6076 44.483 72.6437 44.4894 72.6798 44.4951C72.6437 44.4894 72.6076 44.483 72.5714 44.4775ZM71.7609 44.374C71.829 44.3815 71.8971 44.3883 71.965 44.3965C71.8971 44.3883 71.829 44.3815 71.7609 44.374ZM67.3781 44.3828L67.3771 44.3809C67.4106 44.3771 67.4442 44.3747 67.4777 44.3711C67.4444 44.3747 67.4113 44.379 67.3781 44.3828ZM67.7716 44.3418C67.8561 44.3339 67.9407 44.3261 68.0255 44.3193C67.9407 44.3261 67.8561 44.3339 67.7716 44.3418ZM71.05 44.3086C71.1122 44.3131 71.1744 44.3181 71.2365 44.3232C71.1744 44.3181 71.1122 44.3131 71.05 44.3086ZM68.2687 44.3018C68.3636 44.2953 68.4586 44.2892 68.5539 44.2842C68.4586 44.2892 68.3636 44.2953 68.2687 44.3018ZM70.2765 44.2686C70.3355 44.2705 70.3944 44.2719 70.4533 44.2744C70.3944 44.2719 70.3355 44.2705 70.2765 44.2686ZM68.8107 44.2734C68.9053 44.2696 69 44.2651 69.0949 44.2627C69 44.2651 68.9053 44.2696 68.8107 44.2734Z" fill="white"/>
</g>
<defs>
<filter id="filter0_d_65_115" x="-2.38419e-06" y="0" width="139.218" height="136.56" filterUnits="userSpaceOnUse" color-interpolation-filters="sRGB">
<feFlood flood-opacity="0" result="BackgroundImageFix"/>
<feColorMatrix in="SourceAlpha" type="matrix" values="0 0 0 0 0 0 0 0 0 0 0 0 0 0 0 0 0 0 127 0" result="hardAlpha"/>
<feOffset dy="5.05777"/>
<feGaussianBlur stdDeviation="2.52889"/>
<feComposite in2="hardAlpha" operator="out"/>
<feColorMatrix type="matrix" values="0 0 0 0 0 0 0 0 0 0 0 0 0 0 0 0 0 0 0.25 0"/>
<feBlend mode="normal" in2="BackgroundImageFix" result="effect1_dropShadow_65_115"/>
<feBlend mode="normal" in="SourceGraphic" in2="effect1_dropShadow_65_115" result="shape"/>
</filter>
</defs>
</svg>
