<svg width="1092" height="1150" viewBox="0 0 1092 1150" fill="none" xmlns="http://www.w3.org/2000/svg">
<rect width="1092" height="1150" rx="110.255" fill="#D9D9D9"/>
<rect x="69.0191" y="344.105" width="953.578" height="88.3655" rx="44.1828" fill="#AEAEAE"/>
<path d="M104.825 393.237V368.209H119.832V370.898H107.855V379.354H118.707V382.043H107.855V393.237H104.825ZM131.123 393.628C129.315 393.628 127.755 393.229 126.443 392.43C125.139 391.624 124.133 390.499 123.424 389.057C122.724 387.607 122.373 385.921 122.373 383.998C122.373 382.075 122.724 380.381 123.424 378.914C124.133 377.44 125.119 376.291 126.382 375.468C127.653 374.637 129.136 374.222 130.83 374.222C131.808 374.222 132.773 374.385 133.726 374.71C134.68 375.036 135.547 375.566 136.329 376.299C137.111 377.024 137.735 377.986 138.199 379.183C138.663 380.381 138.896 381.855 138.896 383.607V384.829H124.427V382.336H135.963C135.963 381.277 135.751 380.332 135.327 379.501C134.912 378.67 134.317 378.014 133.543 377.533C132.777 377.053 131.873 376.812 130.83 376.812C129.681 376.812 128.687 377.098 127.848 377.668C127.017 378.23 126.378 378.963 125.93 379.868C125.482 380.772 125.258 381.741 125.258 382.776V384.438C125.258 385.856 125.502 387.057 125.991 388.043C126.488 389.021 127.176 389.766 128.056 390.279C128.936 390.785 129.958 391.037 131.123 391.037C131.881 391.037 132.565 390.931 133.176 390.719C133.796 390.499 134.329 390.174 134.777 389.742C135.225 389.302 135.572 388.756 135.816 388.104L138.602 388.886C138.309 389.831 137.816 390.662 137.124 391.379C136.431 392.088 135.576 392.642 134.557 393.041C133.539 393.432 132.394 393.628 131.123 393.628ZM143.283 393.237V374.466H146.167V393.237H143.283ZM144.749 371.338C144.187 371.338 143.702 371.146 143.295 370.763C142.896 370.38 142.696 369.92 142.696 369.382C142.696 368.845 142.896 368.384 143.295 368.001C143.702 367.618 144.187 367.427 144.749 367.427C145.311 367.427 145.792 367.618 146.191 368.001C146.599 368.384 146.802 368.845 146.802 369.382C146.802 369.92 146.599 370.38 146.191 370.763C145.792 371.146 145.311 371.338 144.749 371.338ZM151.449 374.466H154.333V394.606C154.333 395.762 154.134 396.764 153.735 397.612C153.343 398.459 152.749 399.115 151.95 399.579C151.16 400.044 150.162 400.276 148.956 400.276C148.858 400.276 148.761 400.276 148.663 400.276C148.565 400.276 148.467 400.276 148.37 400.276V397.587C148.467 397.587 148.557 397.587 148.639 397.587C148.72 397.587 148.81 397.587 148.907 397.587C149.787 397.587 150.431 397.327 150.838 396.805C151.246 396.292 151.449 395.559 151.449 394.606V374.466ZM152.867 371.338C152.305 371.338 151.82 371.146 151.413 370.763C151.013 370.38 150.814 369.92 150.814 369.382C150.814 368.845 151.013 368.384 151.413 368.001C151.82 367.618 152.305 367.427 152.867 367.427C153.429 367.427 153.91 367.618 154.309 368.001C154.716 368.384 154.92 368.845 154.92 369.382C154.92 369.92 154.716 370.38 154.309 370.763C153.91 371.146 153.429 371.338 152.867 371.338ZM165.139 393.677C163.95 393.677 162.87 393.453 161.901 393.005C160.931 392.548 160.162 391.893 159.591 391.037C159.021 390.174 158.736 389.131 158.736 387.909C158.736 386.833 158.948 385.961 159.371 385.293C159.795 384.617 160.361 384.088 161.07 383.705C161.779 383.322 162.561 383.037 163.416 382.849C164.28 382.654 165.148 382.499 166.019 382.385C167.16 382.238 168.085 382.128 168.793 382.055C169.51 381.974 170.032 381.839 170.358 381.652C170.692 381.464 170.859 381.138 170.859 380.674V380.576C170.859 379.371 170.529 378.434 169.869 377.766C169.217 377.098 168.227 376.763 166.899 376.763C165.522 376.763 164.443 377.065 163.661 377.668C162.879 378.271 162.329 378.914 162.011 379.599L159.273 378.621C159.762 377.48 160.414 376.592 161.229 375.957C162.052 375.313 162.948 374.865 163.917 374.613C164.895 374.352 165.856 374.222 166.801 374.222C167.404 374.222 168.097 374.295 168.879 374.442C169.669 374.58 170.431 374.869 171.164 375.309C171.905 375.749 172.521 376.413 173.009 377.301C173.498 378.189 173.743 379.379 173.743 380.87V393.237H170.859V390.695H170.712C170.516 391.102 170.191 391.538 169.734 392.003C169.278 392.467 168.671 392.862 167.913 393.188C167.156 393.514 166.231 393.677 165.139 393.677ZM165.579 391.086C166.72 391.086 167.681 390.862 168.463 390.414C169.254 389.966 169.848 389.387 170.248 388.679C170.655 387.97 170.859 387.224 170.859 386.442V383.803C170.736 383.949 170.468 384.084 170.052 384.206C169.645 384.32 169.172 384.422 168.634 384.511C168.105 384.593 167.588 384.666 167.082 384.731C166.585 384.788 166.182 384.837 165.873 384.878C165.123 384.976 164.422 385.135 163.771 385.355C163.127 385.566 162.606 385.888 162.206 386.32C161.815 386.744 161.62 387.322 161.62 388.055C161.62 389.057 161.991 389.815 162.732 390.328C163.481 390.833 164.431 391.086 165.579 391.086ZM163.233 372.217L160.984 372.12C160.984 370.873 161.339 369.855 162.048 369.065C162.764 368.266 163.648 367.867 164.699 367.867C165.164 367.867 165.575 367.948 165.934 368.111C166.292 368.266 166.634 368.445 166.96 368.649C167.286 368.853 167.62 369.036 167.962 369.199C168.313 369.354 168.708 369.431 169.148 369.431C169.612 369.431 170.003 369.252 170.321 368.893C170.647 368.527 170.81 368.087 170.81 367.574L173.009 367.769C173.009 369.04 172.651 370.05 171.934 370.8C171.225 371.549 170.345 371.924 169.294 371.924C168.732 371.924 168.268 371.847 167.901 371.692C167.535 371.529 167.209 371.346 166.924 371.142C166.638 370.938 166.337 370.759 166.019 370.604C165.702 370.441 165.31 370.36 164.846 370.36C164.382 370.36 163.995 370.543 163.685 370.91C163.384 371.268 163.233 371.704 163.233 372.217ZM186.632 393.628C184.938 393.628 183.451 393.225 182.172 392.418C180.901 391.611 179.907 390.483 179.19 389.033C178.481 387.583 178.127 385.888 178.127 383.949C178.127 381.994 178.481 380.287 179.19 378.829C179.907 377.37 180.901 376.238 182.172 375.431C183.451 374.625 184.938 374.222 186.632 374.222C188.327 374.222 189.81 374.625 191.081 375.431C192.36 376.238 193.354 377.37 194.062 378.829C194.779 380.287 195.138 381.994 195.138 383.949C195.138 385.888 194.779 387.583 194.062 389.033C193.354 390.483 192.36 391.611 191.081 392.418C189.81 393.225 188.327 393.628 186.632 393.628ZM186.632 391.037C187.92 391.037 188.979 390.707 189.81 390.047C190.641 389.387 191.256 388.52 191.655 387.444C192.054 386.369 192.254 385.204 192.254 383.949C192.254 382.695 192.054 381.525 191.655 380.442C191.256 379.358 190.641 378.483 189.81 377.814C188.979 377.146 187.92 376.812 186.632 376.812C185.345 376.812 184.286 377.146 183.455 377.814C182.624 378.483 182.009 379.358 181.61 380.442C181.21 381.525 181.011 382.695 181.011 383.949C181.011 385.204 181.21 386.369 181.61 387.444C182.009 388.52 182.624 389.387 183.455 390.047C184.286 390.707 185.345 391.037 186.632 391.037ZM229.75 376.03H226.719C226.54 375.159 226.226 374.393 225.778 373.733C225.338 373.073 224.8 372.519 224.165 372.071C223.537 371.615 222.841 371.272 222.075 371.044C221.309 370.816 220.511 370.702 219.68 370.702C218.164 370.702 216.792 371.085 215.561 371.851C214.339 372.617 213.366 373.745 212.641 375.236C211.924 376.727 211.565 378.556 211.565 380.723C211.565 382.89 211.924 384.719 212.641 386.21C213.366 387.701 214.339 388.829 215.561 389.595C216.792 390.361 218.164 390.744 219.68 390.744C220.511 390.744 221.309 390.63 222.075 390.402C222.841 390.174 223.537 389.835 224.165 389.387C224.8 388.931 225.338 388.373 225.778 387.713C226.226 387.045 226.54 386.279 226.719 385.416H229.75C229.521 386.695 229.106 387.839 228.503 388.85C227.9 389.86 227.151 390.719 226.254 391.428C225.358 392.129 224.352 392.662 223.236 393.029C222.128 393.396 220.943 393.579 219.68 393.579C217.545 393.579 215.647 393.058 213.985 392.015C212.323 390.972 211.015 389.489 210.062 387.566C209.109 385.644 208.632 383.363 208.632 380.723C208.632 378.083 209.109 375.802 210.062 373.879C211.015 371.957 212.323 370.474 213.985 369.431C215.647 368.388 217.545 367.867 219.68 367.867C220.943 367.867 222.128 368.05 223.236 368.417C224.352 368.783 225.358 369.321 226.254 370.03C227.151 370.731 227.9 371.586 228.503 372.596C229.106 373.598 229.521 374.743 229.75 376.03ZM239.78 393.677C238.59 393.677 237.511 393.453 236.541 393.005C235.572 392.548 234.802 391.893 234.231 391.037C233.661 390.174 233.376 389.131 233.376 387.909C233.376 386.833 233.588 385.961 234.011 385.293C234.435 384.617 235.001 384.088 235.71 383.705C236.419 383.322 237.201 383.037 238.056 382.849C238.92 382.654 239.788 382.499 240.659 382.385C241.8 382.238 242.725 382.128 243.434 382.055C244.15 381.974 244.672 381.839 244.998 381.652C245.332 381.464 245.499 381.138 245.499 380.674V380.576C245.499 379.371 245.169 378.434 244.509 377.766C243.857 377.098 242.867 376.763 241.539 376.763C240.162 376.763 239.083 377.065 238.301 377.668C237.519 378.271 236.969 378.914 236.651 379.599L233.914 378.621C234.403 377.48 235.054 376.592 235.869 375.957C236.692 375.313 237.588 374.865 238.558 374.613C239.535 374.352 240.497 374.222 241.442 374.222C242.044 374.222 242.737 374.295 243.519 374.442C244.309 374.58 245.071 374.869 245.804 375.309C246.546 375.749 247.161 376.413 247.65 377.301C248.138 378.189 248.383 379.379 248.383 380.87V393.237H245.499V390.695H245.352C245.157 391.102 244.831 391.538 244.375 392.003C243.918 392.467 243.311 392.862 242.554 393.188C241.796 393.514 240.871 393.677 239.78 393.677ZM240.22 391.086C241.36 391.086 242.321 390.862 243.104 390.414C243.894 389.966 244.489 389.387 244.888 388.679C245.295 387.97 245.499 387.224 245.499 386.442V383.803C245.377 383.949 245.108 384.084 244.692 384.206C244.285 384.32 243.812 384.422 243.275 384.511C242.745 384.593 242.228 384.666 241.723 384.731C241.226 384.788 240.822 384.837 240.513 384.878C239.763 384.976 239.063 385.135 238.411 385.355C237.767 385.566 237.246 385.888 236.847 386.32C236.456 386.744 236.26 387.322 236.26 388.055C236.26 389.057 236.631 389.815 237.372 390.328C238.122 390.833 239.071 391.086 240.22 391.086ZM253.647 393.237V374.466H256.433V377.301H256.629C256.971 376.372 257.59 375.619 258.486 375.04C259.382 374.462 260.393 374.173 261.517 374.173C261.729 374.173 261.994 374.177 262.311 374.185C262.629 374.193 262.869 374.205 263.032 374.222V377.155C262.935 377.13 262.71 377.093 262.36 377.045C262.018 376.988 261.655 376.959 261.273 376.959C260.36 376.959 259.545 377.15 258.828 377.533C258.12 377.908 257.557 378.43 257.142 379.098C256.735 379.758 256.531 380.511 256.531 381.358V393.237H253.647ZM266.451 393.237V374.466H269.335V393.237H266.451ZM267.917 371.338C267.355 371.338 266.871 371.146 266.463 370.763C266.064 370.38 265.864 369.92 265.864 369.382C265.864 368.845 266.064 368.384 266.463 368.001C266.871 367.618 267.355 367.427 267.917 367.427C268.48 367.427 268.96 367.618 269.359 368.001C269.767 368.384 269.971 368.845 269.971 369.382C269.971 369.92 269.767 370.38 269.359 370.763C268.96 371.146 268.48 371.338 267.917 371.338ZM282.243 393.628C280.548 393.628 279.062 393.225 277.783 392.418C276.512 391.611 275.518 390.483 274.801 389.033C274.092 387.583 273.738 385.888 273.738 383.949C273.738 381.994 274.092 380.287 274.801 378.829C275.518 377.37 276.512 376.238 277.783 375.431C279.062 374.625 280.548 374.222 282.243 374.222C283.938 374.222 285.42 374.625 286.691 375.431C287.97 376.238 288.964 377.37 289.673 378.829C290.39 380.287 290.749 381.994 290.749 383.949C290.749 385.888 290.39 387.583 289.673 389.033C288.964 390.483 287.97 391.611 286.691 392.418C285.42 393.225 283.938 393.628 282.243 393.628ZM282.243 391.037C283.53 391.037 284.589 390.707 285.42 390.047C286.251 389.387 286.866 388.52 287.266 387.444C287.665 386.369 287.865 385.204 287.865 383.949C287.865 382.695 287.665 381.525 287.266 380.442C286.866 379.358 286.251 378.483 285.42 377.814C284.589 377.146 283.53 376.812 282.243 376.812C280.956 376.812 279.897 377.146 279.066 377.814C278.235 378.483 277.62 379.358 277.22 380.442C276.821 381.525 276.622 382.695 276.622 383.949C276.622 385.204 276.821 386.369 277.22 387.444C277.62 388.52 278.235 389.387 279.066 390.047C279.897 390.707 280.956 391.037 282.243 391.037ZM302.777 393.628C301.017 393.628 299.502 393.212 298.231 392.381C296.96 391.55 295.982 390.406 295.298 388.947C294.613 387.489 294.271 385.823 294.271 383.949C294.271 382.043 294.621 380.36 295.322 378.902C296.031 377.436 297.017 376.291 298.279 375.468C299.55 374.637 301.033 374.222 302.728 374.222C304.048 374.222 305.237 374.466 306.296 374.955C307.355 375.444 308.223 376.128 308.899 377.008C309.575 377.888 309.995 378.914 310.158 380.087H307.274C307.054 379.232 306.565 378.474 305.807 377.814C305.058 377.146 304.048 376.812 302.777 376.812C301.652 376.812 300.667 377.106 299.819 377.692C298.98 378.271 298.324 379.089 297.852 380.149C297.387 381.2 297.155 382.434 297.155 383.851C297.155 385.302 297.383 386.564 297.84 387.64C298.304 388.715 298.956 389.55 299.795 390.145C300.642 390.74 301.636 391.037 302.777 391.037C303.526 391.037 304.206 390.907 304.817 390.646C305.429 390.385 305.946 390.011 306.37 389.522C306.793 389.033 307.095 388.446 307.274 387.762H310.158C309.995 388.87 309.592 389.868 308.948 390.756C308.313 391.636 307.469 392.337 306.418 392.858C305.376 393.371 304.162 393.628 302.777 393.628ZM319.898 393.677C318.708 393.677 317.629 393.453 316.659 393.005C315.69 392.548 314.92 391.893 314.35 391.037C313.779 390.174 313.494 389.131 313.494 387.909C313.494 386.833 313.706 385.961 314.13 385.293C314.553 384.617 315.119 384.088 315.828 383.705C316.537 383.322 317.319 383.037 318.175 382.849C319.038 382.654 319.906 382.499 320.778 382.385C321.918 382.238 322.843 382.128 323.552 382.055C324.269 381.974 324.79 381.839 325.116 381.652C325.45 381.464 325.617 381.138 325.617 380.674V380.576C325.617 379.371 325.287 378.434 324.627 377.766C323.975 377.098 322.985 376.763 321.657 376.763C320.281 376.763 319.201 377.065 318.419 377.668C317.637 378.271 317.087 378.914 316.769 379.599L314.032 378.621C314.521 377.48 315.172 376.592 315.987 375.957C316.81 375.313 317.706 374.865 318.676 374.613C319.653 374.352 320.615 374.222 321.56 374.222C322.163 374.222 322.855 374.295 323.637 374.442C324.427 374.58 325.189 374.869 325.922 375.309C326.664 375.749 327.279 376.413 327.768 377.301C328.257 378.189 328.501 379.379 328.501 380.87V393.237H325.617V390.695H325.47C325.275 391.102 324.949 391.538 324.493 392.003C324.036 392.467 323.429 392.862 322.672 393.188C321.914 393.514 320.989 393.677 319.898 393.677ZM320.338 391.086C321.478 391.086 322.44 390.862 323.222 390.414C324.012 389.966 324.607 389.387 325.006 388.679C325.413 387.97 325.617 387.224 325.617 386.442V383.803C325.495 383.949 325.226 384.084 324.81 384.206C324.403 384.32 323.93 384.422 323.393 384.511C322.863 384.593 322.346 384.666 321.841 384.731C321.344 384.788 320.941 384.837 320.631 384.878C319.881 384.976 319.181 385.135 318.529 385.355C317.885 385.566 317.364 385.888 316.965 386.32C316.574 386.744 316.378 387.322 316.378 388.055C316.378 389.057 316.749 389.815 317.49 390.328C318.24 390.833 319.189 391.086 320.338 391.086Z" fill="black"/>
<rect x="69.0191" y="502.299" width="953.578" height="88.3655" rx="44.1828" fill="#AEAEAE"/>
<path d="M105.031 551V525.972H120.038V528.661H108.061V537.117H118.913V539.806H108.061V551H105.031ZM124.837 551V532.229H127.721V551H124.837ZM126.304 529.101C125.742 529.101 125.257 528.909 124.849 528.526C124.45 528.143 124.251 527.683 124.251 527.145C124.251 526.608 124.45 526.147 124.849 525.765C125.257 525.382 125.742 525.19 126.304 525.19C126.866 525.19 127.346 525.382 127.746 525.765C128.153 526.147 128.357 526.608 128.357 527.145C128.357 527.683 128.153 528.143 127.746 528.526C127.346 528.909 126.866 529.101 126.304 529.101ZM135.888 525.972V551H133.004V525.972H135.888ZM149.04 551.391C147.231 551.391 145.671 550.992 144.36 550.193C143.056 549.387 142.05 548.263 141.341 546.821C140.64 545.37 140.29 543.684 140.29 541.761C140.29 539.839 140.64 538.144 141.341 536.677C142.05 535.203 143.036 534.054 144.298 533.231C145.569 532.4 147.052 531.985 148.747 531.985C149.724 531.985 150.69 532.148 151.643 532.474C152.596 532.799 153.464 533.329 154.246 534.062C155.028 534.787 155.651 535.749 156.116 536.946C156.58 538.144 156.812 539.619 156.812 541.37V542.592H142.343V540.099H153.879C153.879 539.04 153.668 538.095 153.244 537.264C152.828 536.433 152.234 535.777 151.46 535.297C150.694 534.816 149.79 534.576 148.747 534.576C147.598 534.576 146.604 534.861 145.765 535.431C144.934 535.993 144.294 536.726 143.846 537.631C143.398 538.535 143.174 539.505 143.174 540.539V542.201C143.174 543.619 143.419 544.82 143.907 545.806C144.404 546.784 145.093 547.529 145.973 548.043C146.853 548.548 147.875 548.8 149.04 548.8C149.798 548.8 150.482 548.694 151.093 548.483C151.712 548.263 152.246 547.937 152.694 547.505C153.142 547.065 153.488 546.519 153.733 545.867L156.519 546.649C156.226 547.595 155.733 548.426 155.04 549.142C154.348 549.851 153.492 550.405 152.474 550.804C151.456 551.196 150.311 551.391 149.04 551.391ZM147.28 529.687L150.262 524.017H153.635L149.822 529.687H147.28ZM177.966 551.391C176.402 551.391 175.021 550.996 173.823 550.206C172.626 549.407 171.689 548.283 171.013 546.833C170.336 545.374 169.998 543.651 169.998 541.663C169.998 539.692 170.336 537.981 171.013 536.531C171.689 535.081 172.63 533.96 173.836 533.17C175.041 532.38 176.435 531.985 178.015 531.985C179.237 531.985 180.203 532.188 180.911 532.596C181.628 532.995 182.174 533.451 182.549 533.965C182.932 534.47 183.229 534.885 183.441 535.211H183.685V525.972H186.569V551H183.783V548.116H183.441C183.229 548.458 182.928 548.89 182.537 549.411C182.146 549.925 181.588 550.385 180.862 550.792C180.137 551.191 179.172 551.391 177.966 551.391ZM178.357 548.8C179.514 548.8 180.492 548.499 181.29 547.896C182.089 547.285 182.696 546.442 183.111 545.366C183.527 544.283 183.734 543.032 183.734 541.615C183.734 540.213 183.531 538.987 183.123 537.936C182.716 536.877 182.113 536.054 181.315 535.468C180.516 534.873 179.53 534.576 178.357 534.576C177.135 534.576 176.117 534.889 175.302 535.517C174.496 536.136 173.889 536.979 173.481 538.046C173.082 539.105 172.882 540.295 172.882 541.615C172.882 542.951 173.086 544.165 173.493 545.256C173.909 546.34 174.52 547.203 175.327 547.847C176.141 548.483 177.151 548.8 178.357 548.8ZM200.122 551.391C198.313 551.391 196.753 550.992 195.442 550.193C194.138 549.387 193.132 548.263 192.423 546.821C191.722 545.37 191.372 543.684 191.372 541.761C191.372 539.839 191.722 538.144 192.423 536.677C193.132 535.203 194.118 534.054 195.38 533.231C196.651 532.4 198.134 531.985 199.829 531.985C200.806 531.985 201.772 532.148 202.725 532.474C203.678 532.799 204.546 533.329 205.328 534.062C206.11 534.787 206.733 535.749 207.198 536.946C207.662 538.144 207.894 539.619 207.894 541.37V542.592H193.425V540.099H204.961C204.961 539.04 204.75 538.095 204.326 537.264C203.91 536.433 203.316 535.777 202.542 535.297C201.776 534.816 200.872 534.576 199.829 534.576C198.68 534.576 197.686 534.861 196.847 535.431C196.016 535.993 195.376 536.726 194.928 537.631C194.48 538.535 194.256 539.505 194.256 540.539V542.201C194.256 543.619 194.501 544.82 194.989 545.806C195.486 546.784 196.175 547.529 197.055 548.043C197.935 548.548 198.957 548.8 200.122 548.8C200.88 548.8 201.564 548.694 202.175 548.483C202.794 548.263 203.328 547.937 203.776 547.505C204.224 547.065 204.57 546.519 204.815 545.867L207.601 546.649C207.308 547.595 206.815 548.426 206.122 549.142C205.43 549.851 204.574 550.405 203.556 550.804C202.538 551.196 201.393 551.391 200.122 551.391ZM222.351 551V525.972H237.358V528.661H225.382V537.117H236.234V539.806H225.382V551H222.351ZM241.956 551V532.229H244.742V535.064H244.938C245.28 534.136 245.899 533.382 246.795 532.804C247.692 532.225 248.702 531.936 249.826 531.936C250.038 531.936 250.303 531.94 250.621 531.948C250.938 531.956 251.179 531.968 251.342 531.985V534.918C251.244 534.893 251.02 534.857 250.669 534.808C250.327 534.751 249.965 534.722 249.582 534.722C248.669 534.722 247.855 534.914 247.138 535.297C246.429 535.671 245.867 536.193 245.451 536.861C245.044 537.521 244.84 538.274 244.84 539.122V551H241.956ZM260.284 551.44C259.094 551.44 258.015 551.216 257.046 550.768C256.076 550.312 255.306 549.656 254.736 548.8C254.166 547.937 253.88 546.894 253.88 545.672C253.88 544.596 254.092 543.725 254.516 543.057C254.94 542.38 255.506 541.851 256.215 541.468C256.923 541.085 257.705 540.8 258.561 540.613C259.424 540.417 260.292 540.262 261.164 540.148C262.304 540.001 263.229 539.891 263.938 539.818C264.655 539.737 265.176 539.602 265.502 539.415C265.836 539.228 266.003 538.902 266.003 538.437V538.339C266.003 537.134 265.673 536.197 265.013 535.529C264.362 534.861 263.372 534.527 262.044 534.527C260.667 534.527 259.587 534.828 258.805 535.431C258.023 536.034 257.473 536.677 257.155 537.362L254.418 536.384C254.907 535.244 255.559 534.356 256.373 533.72C257.196 533.076 258.092 532.628 259.062 532.376C260.04 532.115 261.001 531.985 261.946 531.985C262.549 531.985 263.241 532.058 264.023 532.205C264.814 532.343 265.575 532.632 266.309 533.072C267.05 533.512 267.665 534.176 268.154 535.064C268.643 535.952 268.887 537.142 268.887 538.633V551H266.003V548.458H265.857C265.661 548.865 265.335 549.301 264.879 549.766C264.423 550.23 263.816 550.625 263.058 550.951C262.3 551.277 261.376 551.44 260.284 551.44ZM260.724 548.849C261.864 548.849 262.826 548.625 263.608 548.177C264.398 547.729 264.993 547.151 265.392 546.442C265.8 545.733 266.003 544.987 266.003 544.205V541.566C265.881 541.712 265.612 541.847 265.197 541.969C264.789 542.083 264.317 542.185 263.779 542.275C263.249 542.356 262.732 542.429 262.227 542.494C261.73 542.552 261.327 542.6 261.017 542.641C260.268 542.739 259.567 542.898 258.915 543.118C258.272 543.33 257.75 543.651 257.351 544.083C256.96 544.507 256.764 545.085 256.764 545.818C256.764 546.821 257.135 547.578 257.877 548.092C258.626 548.597 259.575 548.849 260.724 548.849ZM277.035 539.708V551H274.151V532.229H276.938V535.162H277.182C277.622 534.209 278.29 533.443 279.186 532.865C280.082 532.278 281.239 531.985 282.657 531.985C283.928 531.985 285.04 532.245 285.993 532.767C286.946 533.28 287.688 534.062 288.217 535.113C288.747 536.156 289.011 537.476 289.011 539.073V551H286.127V539.268C286.127 537.794 285.745 536.645 284.979 535.822C284.213 534.991 283.162 534.576 281.826 534.576C280.905 534.576 280.082 534.775 279.357 535.174C278.64 535.574 278.074 536.156 277.659 536.922C277.243 537.688 277.035 538.616 277.035 539.708ZM301.858 558.43C300.465 558.43 299.268 558.251 298.266 557.892C297.263 557.542 296.428 557.078 295.76 556.499C295.1 555.929 294.575 555.318 294.184 554.666L296.481 553.053C296.742 553.395 297.072 553.786 297.471 554.226C297.87 554.674 298.416 555.061 299.109 555.387C299.809 555.721 300.726 555.888 301.858 555.888C303.374 555.888 304.624 555.522 305.61 554.788C306.596 554.055 307.089 552.906 307.089 551.342V547.529H306.844C306.633 547.872 306.331 548.295 305.94 548.8C305.557 549.297 305.003 549.741 304.278 550.132C303.561 550.515 302.592 550.707 301.37 550.707C299.854 550.707 298.494 550.348 297.288 549.631C296.09 548.914 295.141 547.872 294.44 546.503C293.748 545.134 293.402 543.472 293.402 541.517C293.402 539.594 293.74 537.92 294.416 536.494C295.092 535.06 296.033 533.952 297.239 533.17C298.445 532.38 299.838 531.985 301.418 531.985C302.64 531.985 303.61 532.188 304.327 532.596C305.052 532.995 305.606 533.451 305.989 533.965C306.38 534.47 306.681 534.885 306.893 535.211H307.187V532.229H309.973V551.538C309.973 553.151 309.606 554.462 308.873 555.473C308.148 556.491 307.17 557.237 305.94 557.709C304.718 558.19 303.357 558.43 301.858 558.43ZM301.761 548.116C302.917 548.116 303.895 547.851 304.694 547.322C305.492 546.792 306.099 546.03 306.514 545.036C306.93 544.042 307.138 542.853 307.138 541.468C307.138 540.116 306.934 538.922 306.527 537.887C306.119 536.853 305.516 536.042 304.718 535.455C303.92 534.869 302.934 534.576 301.761 534.576C300.539 534.576 299.52 534.885 298.705 535.504C297.899 536.123 297.292 536.954 296.885 537.997C296.485 539.04 296.286 540.197 296.286 541.468C296.286 542.771 296.489 543.924 296.897 544.926C297.312 545.92 297.923 546.702 298.73 547.273C299.545 547.835 300.555 548.116 301.761 548.116ZM322.878 551.391C321.183 551.391 319.696 550.988 318.417 550.181C317.146 549.375 316.152 548.246 315.435 546.796C314.727 545.346 314.372 543.651 314.372 541.712C314.372 539.757 314.727 538.05 315.435 536.592C316.152 535.134 317.146 534.001 318.417 533.195C319.696 532.388 321.183 531.985 322.878 531.985C324.572 531.985 326.055 532.388 327.326 533.195C328.605 534.001 329.599 535.134 330.308 536.592C331.025 538.05 331.383 539.757 331.383 541.712C331.383 543.651 331.025 545.346 330.308 546.796C329.599 548.246 328.605 549.375 327.326 550.181C326.055 550.988 324.572 551.391 322.878 551.391ZM322.878 548.8C324.165 548.8 325.224 548.47 326.055 547.81C326.886 547.151 327.501 546.283 327.9 545.207C328.3 544.132 328.499 542.967 328.499 541.712C328.499 540.458 328.3 539.289 327.9 538.205C327.501 537.121 326.886 536.246 326.055 535.578C325.224 534.91 324.165 534.576 322.878 534.576C321.591 534.576 320.531 534.91 319.7 535.578C318.869 536.246 318.254 537.121 317.855 538.205C317.456 539.289 317.256 540.458 317.256 541.712C317.256 542.967 317.456 544.132 317.855 545.207C318.254 546.283 318.869 547.151 319.7 547.81C320.531 548.47 321.591 548.8 322.878 548.8ZM345.855 551V525.972H360.96V528.661H348.886V537.117H360.178V539.806H348.886V548.311H361.156V551H345.855ZM366.032 551V532.229H368.818V535.162H369.062C369.453 534.16 370.085 533.382 370.957 532.828C371.828 532.266 372.875 531.985 374.097 531.985C375.336 531.985 376.366 532.266 377.189 532.828C378.02 533.382 378.668 534.16 379.132 535.162H379.328C379.808 534.193 380.529 533.423 381.491 532.852C382.452 532.274 383.605 531.985 384.949 531.985C386.627 531.985 388 532.51 389.067 533.561C390.135 534.604 390.668 536.229 390.668 538.437V551H387.784V538.437C387.784 537.052 387.405 536.062 386.648 535.468C385.89 534.873 384.998 534.576 383.971 534.576C382.652 534.576 381.629 534.975 380.904 535.773C380.179 536.563 379.816 537.566 379.816 538.779V551H376.884V538.144C376.884 537.077 376.537 536.217 375.845 535.565C375.152 534.906 374.26 534.576 373.168 534.576C372.419 534.576 371.718 534.775 371.067 535.174C370.423 535.574 369.902 536.128 369.502 536.836C369.111 537.537 368.916 538.348 368.916 539.268V551H366.032ZM395.942 558.039V532.229H398.728V535.211H399.07C399.282 534.885 399.575 534.47 399.95 533.965C400.333 533.451 400.879 532.995 401.587 532.596C402.304 532.188 403.274 531.985 404.496 531.985C406.076 531.985 407.47 532.38 408.675 533.17C409.881 533.96 410.822 535.081 411.498 536.531C412.175 537.981 412.513 539.692 412.513 541.663C412.513 543.651 412.175 545.374 411.498 546.833C410.822 548.283 409.885 549.407 408.688 550.206C407.49 550.996 406.109 551.391 404.545 551.391C403.339 551.391 402.374 551.191 401.649 550.792C400.923 550.385 400.365 549.925 399.974 549.411C399.583 548.89 399.282 548.458 399.07 548.116H398.826V558.039H395.942ZM398.777 541.615C398.777 543.032 398.984 544.283 399.4 545.366C399.815 546.442 400.422 547.285 401.221 547.896C402.019 548.499 402.997 548.8 404.154 548.8C405.36 548.8 406.366 548.483 407.172 547.847C407.987 547.203 408.598 546.34 409.005 545.256C409.421 544.165 409.629 542.951 409.629 541.615C409.629 540.295 409.425 539.105 409.018 538.046C408.618 536.979 408.011 536.136 407.197 535.517C406.39 534.889 405.376 534.576 404.154 534.576C402.981 534.576 401.995 534.873 401.196 535.468C400.398 536.054 399.795 536.877 399.388 537.936C398.98 538.987 398.777 540.213 398.777 541.615ZM422.436 551.44C421.246 551.44 420.167 551.216 419.197 550.768C418.228 550.312 417.458 549.656 416.888 548.8C416.317 547.937 416.032 546.894 416.032 545.672C416.032 544.596 416.244 543.725 416.668 543.057C417.091 542.38 417.657 541.851 418.366 541.468C419.075 541.085 419.857 540.8 420.713 540.613C421.576 540.417 422.444 540.262 423.316 540.148C424.456 540.001 425.381 539.891 426.09 539.818C426.807 539.737 427.328 539.602 427.654 539.415C427.988 539.228 428.155 538.902 428.155 538.437V538.339C428.155 537.134 427.825 536.197 427.165 535.529C426.513 534.861 425.523 534.527 424.196 534.527C422.819 534.527 421.739 534.828 420.957 535.431C420.175 536.034 419.625 536.677 419.307 537.362L416.57 536.384C417.059 535.244 417.71 534.356 418.525 533.72C419.348 533.076 420.244 532.628 421.214 532.376C422.191 532.115 423.153 531.985 424.098 531.985C424.701 531.985 425.393 532.058 426.175 532.205C426.966 532.343 427.727 532.632 428.46 533.072C429.202 533.512 429.817 534.176 430.306 535.064C430.795 535.952 431.039 537.142 431.039 538.633V551H428.155V548.458H428.008C427.813 548.865 427.487 549.301 427.031 549.766C426.574 550.23 425.967 550.625 425.21 550.951C424.452 551.277 423.527 551.44 422.436 551.44ZM422.876 548.849C424.016 548.849 424.978 548.625 425.76 548.177C426.55 547.729 427.145 547.151 427.544 546.442C427.951 545.733 428.155 544.987 428.155 544.205V541.566C428.033 541.712 427.764 541.847 427.348 541.969C426.941 542.083 426.469 542.185 425.931 542.275C425.401 542.356 424.884 542.429 424.379 542.494C423.882 542.552 423.479 542.6 423.169 542.641C422.419 542.739 421.719 542.898 421.067 543.118C420.423 543.33 419.902 543.651 419.503 544.083C419.112 544.507 418.916 545.085 418.916 545.818C418.916 546.821 419.287 547.578 420.028 548.092C420.778 548.597 421.727 548.849 422.876 548.849ZM439.187 539.708V551H436.303V532.229H439.089V535.162H439.334C439.774 534.209 440.442 533.443 441.338 532.865C442.234 532.278 443.391 531.985 444.809 531.985C446.079 531.985 447.192 532.245 448.145 532.767C449.098 533.28 449.839 534.062 450.369 535.113C450.898 536.156 451.163 537.476 451.163 539.073V551H448.279V539.268C448.279 537.794 447.896 536.645 447.13 535.822C446.365 534.991 445.314 534.576 443.978 534.576C443.057 534.576 442.234 534.775 441.509 535.174C440.792 535.574 440.226 536.156 439.81 536.922C439.395 537.688 439.187 538.616 439.187 539.708ZM461.957 551.44C460.768 551.44 459.688 551.216 458.719 550.768C457.749 550.312 456.979 549.656 456.409 548.8C455.839 547.937 455.553 546.894 455.553 545.672C455.553 544.596 455.765 543.725 456.189 543.057C456.613 542.38 457.179 541.851 457.888 541.468C458.596 541.085 459.379 540.8 460.234 540.613C461.098 540.417 461.965 540.262 462.837 540.148C463.978 540.001 464.902 539.891 465.611 539.818C466.328 539.737 466.849 539.602 467.175 539.415C467.509 539.228 467.676 538.902 467.676 538.437V538.339C467.676 537.134 467.346 536.197 466.686 535.529C466.035 534.861 465.045 534.527 463.717 534.527C462.34 534.527 461.261 534.828 460.478 535.431C459.696 536.034 459.146 536.677 458.829 537.362L456.091 536.384C456.58 535.244 457.232 534.356 458.046 533.72C458.869 533.076 459.766 532.628 460.735 532.376C461.713 532.115 462.674 531.985 463.619 531.985C464.222 531.985 464.914 532.058 465.697 532.205C466.487 532.343 467.249 532.632 467.982 533.072C468.723 533.512 469.338 534.176 469.827 535.064C470.316 535.952 470.56 537.142 470.56 538.633V551H467.676V548.458H467.53C467.334 548.865 467.008 549.301 466.552 549.766C466.096 550.23 465.489 550.625 464.731 550.951C463.973 551.277 463.049 551.44 461.957 551.44ZM462.397 548.849C463.538 548.849 464.499 548.625 465.281 548.177C466.071 547.729 466.666 547.151 467.065 546.442C467.473 545.733 467.676 544.987 467.676 544.205V541.566C467.554 541.712 467.285 541.847 466.87 541.969C466.462 542.083 465.99 542.185 465.452 542.275C464.923 542.356 464.405 542.429 463.9 542.494C463.403 542.552 463 542.6 462.69 542.641C461.941 542.739 461.24 542.898 460.588 543.118C459.945 543.33 459.423 543.651 459.024 544.083C458.633 544.507 458.438 545.085 458.438 545.818C458.438 546.821 458.808 547.578 459.55 548.092C460.299 548.597 461.248 548.849 462.397 548.849ZM482.912 551.391C481.348 551.391 479.967 550.996 478.77 550.206C477.572 549.407 476.635 548.283 475.959 546.833C475.283 545.374 474.944 543.651 474.944 541.663C474.944 539.692 475.283 537.981 475.959 536.531C476.635 535.081 477.576 533.96 478.782 533.17C479.988 532.38 481.381 531.985 482.961 531.985C484.183 531.985 485.149 532.188 485.857 532.596C486.574 532.995 487.12 533.451 487.495 533.965C487.878 534.47 488.175 534.885 488.387 535.211H488.632V525.972H491.516V551H488.729V548.116H488.387C488.175 548.458 487.874 548.89 487.483 549.411C487.092 549.925 486.534 550.385 485.809 550.792C485.083 551.191 484.118 551.391 482.912 551.391ZM483.303 548.8C484.46 548.8 485.438 548.499 486.236 547.896C487.035 547.285 487.642 546.442 488.057 545.366C488.473 544.283 488.68 543.032 488.68 541.615C488.68 540.213 488.477 538.987 488.069 537.936C487.662 536.877 487.059 536.054 486.261 535.468C485.462 534.873 484.477 534.576 483.303 534.576C482.081 534.576 481.063 534.889 480.248 535.517C479.442 536.136 478.835 536.979 478.427 538.046C478.028 539.105 477.829 540.295 477.829 541.615C477.829 542.951 478.032 544.165 478.44 545.256C478.855 546.34 479.466 547.203 480.273 547.847C481.087 548.483 482.098 548.8 483.303 548.8ZM504.824 551.391C503.129 551.391 501.642 550.988 500.363 550.181C499.092 549.375 498.098 548.246 497.381 546.796C496.673 545.346 496.318 543.651 496.318 541.712C496.318 539.757 496.673 538.05 497.381 536.592C498.098 535.134 499.092 534.001 500.363 533.195C501.642 532.388 503.129 531.985 504.824 531.985C506.518 531.985 508.001 532.388 509.272 533.195C510.551 534.001 511.545 535.134 512.254 536.592C512.971 538.05 513.329 539.757 513.329 541.712C513.329 543.651 512.971 545.346 512.254 546.796C511.545 548.246 510.551 549.375 509.272 550.181C508.001 550.988 506.518 551.391 504.824 551.391ZM504.824 548.8C506.111 548.8 507.17 548.47 508.001 547.81C508.832 547.151 509.447 546.283 509.846 545.207C510.246 544.132 510.445 542.967 510.445 541.712C510.445 540.458 510.246 539.289 509.846 538.205C509.447 537.121 508.832 536.246 508.001 535.578C507.17 534.91 506.111 534.576 504.824 534.576C503.537 534.576 502.477 534.91 501.646 535.578C500.815 536.246 500.2 537.121 499.801 538.205C499.402 539.289 499.202 540.458 499.202 541.712C499.202 542.967 499.402 544.132 499.801 545.207C500.2 546.283 500.815 547.151 501.646 547.81C502.477 548.47 503.537 548.8 504.824 548.8Z" fill="black"/>
<rect x="69.0191" y="185.911" width="953.578" height="88.3655" rx="44.1828" fill="#AEAEAE"/>
<path d="M105.851 235.043H102.674L111.864 210.015H114.992L124.182 235.043H121.005L113.526 213.975H113.33L105.851 235.043ZM107.024 225.267H119.832V227.955H107.024V225.267ZM127.689 235.043V216.272H130.476V219.107H130.671C131.013 218.179 131.633 217.425 132.529 216.847C133.425 216.268 134.435 215.979 135.559 215.979C135.771 215.979 136.036 215.983 136.354 215.991C136.672 215.999 136.912 216.011 137.075 216.028V218.961C136.977 218.936 136.753 218.9 136.403 218.851C136.061 218.794 135.698 218.765 135.315 218.765C134.403 218.765 133.588 218.957 132.871 219.34C132.162 219.714 131.6 220.236 131.184 220.904C130.777 221.564 130.573 222.317 130.573 223.165V235.043H127.689ZM140.494 235.043V216.272H143.28V219.107H143.475C143.818 218.179 144.437 217.425 145.333 216.847C146.229 216.268 147.239 215.979 148.364 215.979C148.575 215.979 148.84 215.983 149.158 215.991C149.476 215.999 149.716 216.011 149.879 216.028V218.961C149.781 218.936 149.557 218.9 149.207 218.851C148.865 218.794 148.502 218.765 148.119 218.765C147.207 218.765 146.392 218.957 145.675 219.34C144.966 219.714 144.404 220.236 143.989 220.904C143.581 221.564 143.378 222.317 143.378 223.165V235.043H140.494ZM160.352 235.434C158.657 235.434 157.171 235.031 155.891 234.224C154.621 233.418 153.627 232.289 152.91 230.839C152.201 229.389 151.846 227.694 151.846 225.755C151.846 223.8 152.201 222.093 152.91 220.635C153.627 219.177 154.621 218.044 155.891 217.238C157.171 216.431 158.657 216.028 160.352 216.028C162.047 216.028 163.529 216.431 164.8 217.238C166.079 218.044 167.073 219.177 167.782 220.635C168.499 222.093 168.857 223.8 168.857 225.755C168.857 227.694 168.499 229.389 167.782 230.839C167.073 232.289 166.079 233.418 164.8 234.224C163.529 235.031 162.047 235.434 160.352 235.434ZM160.352 232.843C161.639 232.843 162.698 232.513 163.529 231.853C164.36 231.193 164.975 230.326 165.375 229.25C165.774 228.175 165.973 227.01 165.973 225.755C165.973 224.501 165.774 223.332 165.375 222.248C164.975 221.164 164.36 220.289 163.529 219.621C162.698 218.953 161.639 218.619 160.352 218.619C159.065 218.619 158.006 218.953 157.175 219.621C156.344 220.289 155.729 221.164 155.329 222.248C154.93 223.332 154.73 224.501 154.73 225.755C154.73 227.01 154.93 228.175 155.329 229.25C155.729 230.326 156.344 231.193 157.175 231.853C158.006 232.513 159.065 232.843 160.352 232.843ZM172.722 235.043V232.843L183.379 219.156V218.961H173.064V216.272H187.094V218.57L176.731 232.159V232.354H187.436V235.043H172.722ZM201.948 235.043V210.015H210.698C212.441 210.015 213.879 210.317 215.012 210.92C216.144 211.514 216.987 212.317 217.541 213.327C218.095 214.329 218.372 215.441 218.372 216.663C218.372 217.739 218.181 218.627 217.798 219.327C217.423 220.028 216.926 220.582 216.307 220.989C215.696 221.397 215.032 221.698 214.315 221.894V222.138C215.081 222.187 215.851 222.456 216.625 222.945C217.399 223.433 218.046 224.134 218.568 225.047C219.089 225.959 219.35 227.075 219.35 228.395C219.35 229.65 219.065 230.778 218.494 231.78C217.924 232.782 217.024 233.576 215.794 234.163C214.563 234.75 212.963 235.043 210.991 235.043H201.948ZM204.978 232.354H210.991C212.971 232.354 214.376 231.972 215.207 231.206C216.046 230.432 216.466 229.495 216.466 228.395C216.466 227.548 216.25 226.766 215.818 226.049C215.386 225.324 214.771 224.745 213.973 224.313C213.174 223.873 212.229 223.653 211.138 223.653H204.978V232.354ZM204.978 221.014H210.6C211.512 221.014 212.335 220.835 213.068 220.476C213.81 220.118 214.396 219.612 214.828 218.961C215.268 218.309 215.488 217.543 215.488 216.663C215.488 215.563 215.105 214.631 214.339 213.865C213.574 213.091 212.36 212.704 210.698 212.704H204.978V221.014ZM223.939 235.043V216.272H226.725V219.107H226.92C227.263 218.179 227.882 217.425 228.778 216.847C229.674 216.268 230.684 215.979 231.809 215.979C232.021 215.979 232.285 215.983 232.603 215.991C232.921 215.999 233.161 216.011 233.324 216.028V218.961C233.226 218.936 233.002 218.9 232.652 218.851C232.31 218.794 231.947 218.765 231.564 218.765C230.652 218.765 229.837 218.957 229.12 219.34C228.411 219.714 227.849 220.236 227.434 220.904C227.026 221.564 226.823 222.317 226.823 223.165V235.043H223.939ZM242.266 235.483C241.077 235.483 239.998 235.259 239.028 234.811C238.059 234.355 237.289 233.699 236.718 232.843C236.148 231.98 235.863 230.937 235.863 229.715C235.863 228.639 236.075 227.768 236.498 227.1C236.922 226.423 237.488 225.894 238.197 225.511C238.906 225.128 239.688 224.843 240.543 224.655C241.407 224.46 242.275 224.305 243.146 224.191C244.287 224.044 245.212 223.934 245.92 223.861C246.637 223.78 247.159 223.645 247.485 223.458C247.819 223.27 247.986 222.945 247.986 222.48V222.382C247.986 221.177 247.656 220.24 246.996 219.572C246.344 218.904 245.354 218.57 244.026 218.57C242.649 218.57 241.57 218.871 240.788 219.474C240.006 220.077 239.456 220.72 239.138 221.405L236.401 220.427C236.889 219.287 237.541 218.399 238.356 217.763C239.179 217.119 240.075 216.671 241.044 216.419C242.022 216.158 242.983 216.028 243.928 216.028C244.531 216.028 245.224 216.101 246.006 216.248C246.796 216.386 247.558 216.675 248.291 217.115C249.033 217.555 249.648 218.219 250.137 219.107C250.625 219.995 250.87 221.185 250.87 222.676V235.043H247.986V232.501H247.839C247.644 232.908 247.318 233.344 246.861 233.809C246.405 234.273 245.798 234.668 245.041 234.994C244.283 235.32 243.358 235.483 242.266 235.483ZM242.706 232.892C243.847 232.892 244.808 232.668 245.59 232.22C246.381 231.772 246.975 231.193 247.375 230.485C247.782 229.776 247.986 229.03 247.986 228.248V225.609C247.864 225.755 247.595 225.89 247.179 226.012C246.772 226.126 246.299 226.228 245.762 226.317C245.232 226.399 244.715 226.472 244.21 226.537C243.713 226.594 243.309 226.643 243 226.684C242.25 226.782 241.55 226.941 240.898 227.161C240.254 227.373 239.733 227.694 239.334 228.126C238.942 228.55 238.747 229.128 238.747 229.861C238.747 230.864 239.118 231.621 239.859 232.134C240.609 232.64 241.558 232.892 242.706 232.892ZM259.018 223.751V235.043H256.134V216.272H258.92V219.205H259.164C259.604 218.252 260.272 217.486 261.169 216.908C262.065 216.321 263.222 216.028 264.639 216.028C265.91 216.028 267.022 216.288 267.976 216.81C268.929 217.323 269.67 218.105 270.2 219.156C270.729 220.199 270.994 221.519 270.994 223.116V235.043H268.11V223.311C268.11 221.837 267.727 220.688 266.961 219.865C266.195 219.034 265.144 218.619 263.808 218.619C262.888 218.619 262.065 218.818 261.34 219.217C260.623 219.617 260.057 220.199 259.641 220.965C259.226 221.731 259.018 222.659 259.018 223.751ZM283.89 235.434C282.13 235.434 280.615 235.019 279.344 234.188C278.073 233.357 277.095 232.212 276.411 230.754C275.726 229.295 275.384 227.629 275.384 225.755C275.384 223.849 275.735 222.167 276.435 220.708C277.144 219.242 278.13 218.097 279.393 217.274C280.664 216.443 282.146 216.028 283.841 216.028C285.161 216.028 286.35 216.272 287.409 216.761C288.468 217.25 289.336 217.934 290.012 218.814C290.688 219.694 291.108 220.72 291.271 221.894H288.387C288.167 221.038 287.678 220.281 286.92 219.621C286.171 218.953 285.161 218.619 283.89 218.619C282.765 218.619 281.78 218.912 280.932 219.498C280.093 220.077 279.437 220.896 278.965 221.955C278.5 223.006 278.268 224.24 278.268 225.658C278.268 227.108 278.496 228.371 278.953 229.446C279.417 230.521 280.069 231.356 280.908 231.951C281.755 232.546 282.749 232.843 283.89 232.843C284.639 232.843 285.32 232.713 285.931 232.452C286.542 232.192 287.059 231.817 287.483 231.328C287.906 230.839 288.208 230.253 288.387 229.568H291.271C291.108 230.676 290.705 231.674 290.061 232.562C289.426 233.442 288.582 234.143 287.531 234.664C286.489 235.177 285.275 235.434 283.89 235.434ZM303.113 235.434C301.418 235.434 299.931 235.031 298.652 234.224C297.381 233.418 296.387 232.289 295.67 230.839C294.962 229.389 294.607 227.694 294.607 225.755C294.607 223.8 294.962 222.093 295.67 220.635C296.387 219.177 297.381 218.044 298.652 217.238C299.931 216.431 301.418 216.028 303.113 216.028C304.807 216.028 306.29 216.431 307.561 217.238C308.84 218.044 309.834 219.177 310.543 220.635C311.26 222.093 311.618 223.8 311.618 225.755C311.618 227.694 311.26 229.389 310.543 230.839C309.834 232.289 308.84 233.418 307.561 234.224C306.29 235.031 304.807 235.434 303.113 235.434ZM303.113 232.843C304.4 232.843 305.459 232.513 306.29 231.853C307.121 231.193 307.736 230.326 308.135 229.25C308.535 228.175 308.734 227.01 308.734 225.755C308.734 224.501 308.535 223.332 308.135 222.248C307.736 221.164 307.121 220.289 306.29 219.621C305.459 218.953 304.4 218.619 303.113 218.619C301.825 218.619 300.766 218.953 299.935 219.621C299.104 220.289 298.489 221.164 298.09 222.248C297.691 223.332 297.491 224.501 297.491 225.755C297.491 227.01 297.691 228.175 298.09 229.25C298.489 230.326 299.104 231.193 299.935 231.853C300.766 232.513 301.825 232.843 303.113 232.843Z" fill="black"/>
<rect x="69.0191" y="660.493" width="953.578" height="88.3655" rx="44.1828" fill="#AEAEAE"/>
<path d="M124.964 692.418H121.934C121.754 691.546 121.441 690.78 120.993 690.12C120.553 689.461 120.015 688.907 119.379 688.458C118.752 688.002 118.056 687.66 117.29 687.432C116.524 687.204 115.725 687.09 114.894 687.09C113.379 687.09 112.006 687.473 110.776 688.239C109.554 689.004 108.581 690.133 107.855 691.624C107.138 693.115 106.78 694.944 106.78 697.111C106.78 699.278 107.138 701.107 107.855 702.598C108.581 704.089 109.554 705.217 110.776 705.983C112.006 706.749 113.379 707.132 114.894 707.132C115.725 707.132 116.524 707.017 117.29 706.789C118.056 706.561 118.752 706.223 119.379 705.775C120.015 705.319 120.553 704.761 120.993 704.101C121.441 703.433 121.754 702.667 121.934 701.803H124.964C124.736 703.082 124.321 704.227 123.718 705.237C123.115 706.248 122.365 707.107 121.469 707.816C120.573 708.517 119.567 709.05 118.451 709.417C117.343 709.783 116.157 709.967 114.894 709.967C112.76 709.967 110.862 709.445 109.2 708.402C107.538 707.36 106.23 705.877 105.277 703.954C104.324 702.031 103.847 699.75 103.847 697.111C103.847 694.471 104.324 692.19 105.277 690.267C106.23 688.344 107.538 686.862 109.2 685.819C110.862 684.776 112.76 684.255 114.894 684.255C116.157 684.255 117.343 684.438 118.451 684.805C119.567 685.171 120.573 685.709 121.469 686.418C122.365 687.118 123.115 687.974 123.718 688.984C124.321 689.986 124.736 691.131 124.964 692.418ZM134.994 710.064C133.805 710.064 132.725 709.84 131.756 709.392C130.786 708.936 130.016 708.28 129.446 707.425C128.876 706.561 128.591 705.518 128.591 704.296C128.591 703.221 128.802 702.349 129.226 701.681C129.65 701.005 130.216 700.475 130.925 700.092C131.634 699.71 132.416 699.424 133.271 699.237C134.135 699.041 135.002 698.887 135.874 698.773C137.015 698.626 137.939 698.516 138.648 698.443C139.365 698.361 139.887 698.227 140.212 698.039C140.546 697.852 140.713 697.526 140.713 697.062V696.964C140.713 695.758 140.384 694.821 139.724 694.153C139.072 693.485 138.082 693.151 136.754 693.151C135.377 693.151 134.298 693.453 133.516 694.055C132.733 694.658 132.184 695.302 131.866 695.986L129.128 695.009C129.617 693.868 130.269 692.98 131.084 692.345C131.907 691.701 132.803 691.253 133.772 691C134.75 690.74 135.711 690.609 136.656 690.609C137.259 690.609 137.952 690.683 138.734 690.829C139.524 690.968 140.286 691.257 141.019 691.697C141.76 692.137 142.375 692.801 142.864 693.689C143.353 694.577 143.598 695.766 143.598 697.257V709.625H140.713V707.083H140.567C140.371 707.49 140.045 707.926 139.589 708.39C139.133 708.855 138.526 709.25 137.768 709.576C137.011 709.902 136.086 710.064 134.994 710.064ZM135.434 707.474C136.575 707.474 137.536 707.25 138.318 706.802C139.109 706.353 139.703 705.775 140.102 705.066C140.51 704.357 140.713 703.612 140.713 702.83V700.19C140.591 700.337 140.322 700.471 139.907 700.594C139.5 700.708 139.027 700.809 138.489 700.899C137.96 700.98 137.442 701.054 136.937 701.119C136.44 701.176 136.037 701.225 135.727 701.266C134.978 701.363 134.277 701.522 133.626 701.742C132.982 701.954 132.461 702.276 132.061 702.708C131.67 703.131 131.475 703.71 131.475 704.443C131.475 705.445 131.845 706.203 132.587 706.716C133.336 707.221 134.285 707.474 135.434 707.474ZM148.862 709.625V690.854H151.648V693.689H151.843C152.186 692.76 152.805 692.007 153.701 691.428C154.597 690.85 155.607 690.56 156.732 690.56C156.943 690.56 157.208 690.564 157.526 690.573C157.844 690.581 158.084 690.593 158.247 690.609V693.542C158.149 693.518 157.925 693.481 157.575 693.432C157.233 693.375 156.87 693.347 156.487 693.347C155.575 693.347 154.76 693.538 154.043 693.921C153.334 694.296 152.772 694.817 152.357 695.485C151.949 696.145 151.746 696.899 151.746 697.746V709.625H148.862ZM164.55 698.333V709.625H161.666V690.854H164.452V693.787H164.696C165.136 692.833 165.804 692.068 166.701 691.489C167.597 690.903 168.754 690.609 170.171 690.609C171.442 690.609 172.554 690.87 173.507 691.391C174.461 691.905 175.202 692.687 175.732 693.738C176.261 694.781 176.526 696.1 176.526 697.697V709.625H173.642V697.893C173.642 696.418 173.259 695.269 172.493 694.447C171.727 693.616 170.676 693.2 169.34 693.2C168.42 693.2 167.597 693.4 166.872 693.799C166.155 694.198 165.588 694.781 165.173 695.546C164.757 696.312 164.55 697.241 164.55 698.333ZM189.666 710.016C187.857 710.016 186.297 709.616 184.986 708.818C183.682 708.011 182.676 706.887 181.967 705.445C181.266 703.995 180.916 702.308 180.916 700.386C180.916 698.463 181.266 696.768 181.967 695.302C182.676 693.827 183.662 692.679 184.924 691.856C186.195 691.025 187.678 690.609 189.373 690.609C190.35 690.609 191.316 690.772 192.269 691.098C193.222 691.424 194.09 691.954 194.872 692.687C195.654 693.412 196.277 694.373 196.742 695.571C197.206 696.768 197.438 698.243 197.438 699.995V701.217H182.969V698.724H194.505C194.505 697.665 194.294 696.72 193.87 695.889C193.454 695.058 192.86 694.402 192.086 693.921C191.32 693.44 190.416 693.2 189.373 693.2C188.224 693.2 187.23 693.485 186.391 694.055C185.56 694.618 184.92 695.351 184.472 696.255C184.024 697.16 183.8 698.129 183.8 699.164V700.826C183.8 702.243 184.045 703.445 184.533 704.431C185.03 705.408 185.719 706.154 186.599 706.667C187.479 707.172 188.501 707.425 189.666 707.425C190.424 707.425 191.108 707.319 191.719 707.107C192.338 706.887 192.872 706.561 193.32 706.129C193.768 705.689 194.114 705.144 194.359 704.492L197.145 705.274C196.852 706.219 196.359 707.05 195.666 707.767C194.974 708.476 194.118 709.03 193.1 709.429C192.082 709.82 190.937 710.016 189.666 710.016ZM218.592 710.016C217.028 710.016 215.647 709.62 214.449 708.83C213.252 708.032 212.315 706.907 211.639 705.457C210.962 703.999 210.624 702.276 210.624 700.288C210.624 698.316 210.962 696.606 211.639 695.155C212.315 693.705 213.256 692.585 214.462 691.795C215.667 691.004 217.061 690.609 218.641 690.609C219.863 690.609 220.829 690.813 221.537 691.22C222.254 691.62 222.8 692.076 223.175 692.589C223.558 693.094 223.855 693.51 224.067 693.836H224.311V684.597H227.195V709.625H224.409V706.74H224.067C223.855 707.083 223.554 707.514 223.163 708.036C222.772 708.549 222.214 709.009 221.488 709.417C220.763 709.816 219.798 710.016 218.592 710.016ZM218.983 707.425C220.14 707.425 221.118 707.123 221.916 706.52C222.715 705.909 223.322 705.066 223.737 703.991C224.153 702.907 224.36 701.657 224.36 700.239C224.36 698.838 224.157 697.612 223.749 696.561C223.342 695.502 222.739 694.679 221.941 694.092C221.142 693.497 220.156 693.2 218.983 693.2C217.761 693.2 216.743 693.514 215.928 694.141C215.122 694.76 214.515 695.603 214.107 696.671C213.708 697.73 213.508 698.919 213.508 700.239C213.508 701.575 213.712 702.789 214.119 703.881C214.535 704.964 215.146 705.828 215.953 706.472C216.767 707.107 217.777 707.425 218.983 707.425ZM240.748 710.016C238.939 710.016 237.379 709.616 236.068 708.818C234.764 708.011 233.758 706.887 233.049 705.445C232.348 703.995 231.998 702.308 231.998 700.386C231.998 698.463 232.348 696.768 233.049 695.302C233.758 693.827 234.744 692.679 236.006 691.856C237.277 691.025 238.76 690.609 240.455 690.609C241.432 690.609 242.398 690.772 243.351 691.098C244.304 691.424 245.172 691.954 245.954 692.687C246.736 693.412 247.359 694.373 247.824 695.571C248.288 696.768 248.52 698.243 248.52 699.995V701.217H234.051V698.724H245.587C245.587 697.665 245.376 696.72 244.952 695.889C244.536 695.058 243.942 694.402 243.168 693.921C242.402 693.44 241.498 693.2 240.455 693.2C239.306 693.2 238.312 693.485 237.473 694.055C236.642 694.618 236.002 695.351 235.554 696.255C235.106 697.16 234.882 698.129 234.882 699.164V700.826C234.882 702.243 235.127 703.445 235.615 704.431C236.112 705.408 236.801 706.154 237.681 706.667C238.561 707.172 239.583 707.425 240.748 707.425C241.506 707.425 242.19 707.319 242.801 707.107C243.42 706.887 243.954 706.561 244.402 706.129C244.85 705.689 245.196 705.144 245.441 704.492L248.227 705.274C247.934 706.219 247.441 707.05 246.748 707.767C246.056 708.476 245.2 709.03 244.182 709.429C243.164 709.82 242.019 710.016 240.748 710.016ZM262.977 709.625V684.597H271.434C273.397 684.597 275.002 684.951 276.249 685.66C277.503 686.361 278.432 687.31 279.035 688.507C279.638 689.705 279.939 691.041 279.939 692.516C279.939 693.99 279.638 695.331 279.035 696.536C278.44 697.742 277.52 698.703 276.273 699.42C275.027 700.129 273.43 700.484 271.483 700.484H265.421V697.795H271.385C272.729 697.795 273.809 697.563 274.624 697.098C275.438 696.634 276.029 696.007 276.395 695.216C276.77 694.418 276.958 693.518 276.958 692.516C276.958 691.514 276.77 690.617 276.395 689.827C276.029 689.037 275.434 688.418 274.611 687.97C273.788 687.513 272.697 687.285 271.336 687.285H266.008V709.625H262.977ZM289.954 710.064C288.765 710.064 287.685 709.84 286.716 709.392C285.746 708.936 284.976 708.28 284.406 707.425C283.836 706.561 283.551 705.518 283.551 704.296C283.551 703.221 283.762 702.349 284.186 701.681C284.61 701.005 285.176 700.475 285.885 700.092C286.594 699.71 287.376 699.424 288.231 699.237C289.095 699.041 289.962 698.887 290.834 698.773C291.975 698.626 292.899 698.516 293.608 698.443C294.325 698.361 294.847 698.227 295.172 698.039C295.506 697.852 295.673 697.526 295.673 697.062V696.964C295.673 695.758 295.343 694.821 294.684 694.153C294.032 693.485 293.042 693.151 291.714 693.151C290.337 693.151 289.258 693.453 288.476 694.055C287.693 694.658 287.143 695.302 286.826 695.986L284.088 695.009C284.577 693.868 285.229 692.98 286.044 692.345C286.866 691.701 287.763 691.253 288.732 691C289.71 690.74 290.671 690.609 291.616 690.609C292.219 690.609 292.912 690.683 293.694 690.829C294.484 690.968 295.246 691.257 295.979 691.697C296.72 692.137 297.335 692.801 297.824 693.689C298.313 694.577 298.558 695.766 298.558 697.257V709.625H295.673V707.083H295.527C295.331 707.49 295.005 707.926 294.549 708.39C294.093 708.855 293.486 709.25 292.728 709.576C291.971 709.902 291.046 710.064 289.954 710.064ZM290.394 707.474C291.535 707.474 292.496 707.25 293.278 706.802C294.068 706.353 294.663 705.775 295.062 705.066C295.47 704.357 295.673 703.612 295.673 702.83V700.19C295.551 700.337 295.282 700.471 294.867 700.594C294.46 700.708 293.987 700.809 293.449 700.899C292.92 700.98 292.402 701.054 291.897 701.119C291.4 701.176 290.997 701.225 290.687 701.266C289.938 701.363 289.237 701.522 288.586 701.742C287.942 701.954 287.42 702.276 287.021 702.708C286.63 703.131 286.435 703.71 286.435 704.443C286.435 705.445 286.805 706.203 287.547 706.716C288.296 707.221 289.245 707.474 290.394 707.474ZM306.706 698.333V709.625H303.822V690.854H306.608V693.787H306.852C307.292 692.833 307.96 692.068 308.856 691.489C309.753 690.903 310.909 690.609 312.327 690.609C313.598 690.609 314.71 690.87 315.663 691.391C316.616 691.905 317.358 692.687 317.887 693.738C318.417 694.781 318.682 696.1 318.682 697.697V709.625H315.798V697.893C315.798 696.418 315.415 695.269 314.649 694.447C313.883 693.616 312.832 693.2 311.496 693.2C310.575 693.2 309.753 693.4 309.027 693.799C308.311 694.198 307.744 694.781 307.329 695.546C306.913 696.312 306.706 697.241 306.706 698.333ZM331.822 710.016C330.013 710.016 328.453 709.616 327.141 708.818C325.838 708.011 324.832 706.887 324.123 705.445C323.422 703.995 323.072 702.308 323.072 700.386C323.072 698.463 323.422 696.768 324.123 695.302C324.832 693.827 325.818 692.679 327.08 691.856C328.351 691.025 329.834 690.609 331.529 690.609C332.506 690.609 333.472 690.772 334.425 691.098C335.378 691.424 336.246 691.954 337.028 692.687C337.81 693.412 338.433 694.373 338.898 695.571C339.362 696.768 339.594 698.243 339.594 699.995V701.217H325.125V698.724H336.661C336.661 697.665 336.449 696.72 336.026 695.889C335.61 695.058 335.016 694.402 334.242 693.921C333.476 693.44 332.571 693.2 331.529 693.2C330.38 693.2 329.386 693.485 328.547 694.055C327.716 694.618 327.076 695.351 326.628 696.255C326.18 697.16 325.956 698.129 325.956 699.164V700.826C325.956 702.243 326.2 703.445 326.689 704.431C327.186 705.408 327.875 706.154 328.755 706.667C329.634 707.172 330.657 707.425 331.822 707.425C332.58 707.425 333.264 707.319 333.875 707.107C334.494 706.887 335.028 706.561 335.476 706.129C335.924 705.689 336.27 705.144 336.515 704.492L339.301 705.274C339.008 706.219 338.515 707.05 337.822 707.767C337.13 708.476 336.274 709.03 335.256 709.429C334.238 709.82 333.093 710.016 331.822 710.016ZM346.865 684.597V709.625H343.981V684.597H346.865ZM357.671 710.064C356.482 710.064 355.403 709.84 354.433 709.392C353.464 708.936 352.694 708.28 352.123 707.425C351.553 706.561 351.268 705.518 351.268 704.296C351.268 703.221 351.48 702.349 351.903 701.681C352.327 701.005 352.893 700.475 353.602 700.092C354.311 699.71 355.093 699.424 355.948 699.237C356.812 699.041 357.68 698.887 358.551 698.773C359.692 698.626 360.617 698.516 361.325 698.443C362.042 698.361 362.564 698.227 362.89 698.039C363.224 697.852 363.391 697.526 363.391 697.062V696.964C363.391 695.758 363.061 694.821 362.401 694.153C361.749 693.485 360.759 693.151 359.431 693.151C358.054 693.151 356.975 693.453 356.193 694.055C355.411 694.658 354.861 695.302 354.543 695.986L351.806 695.009C352.294 693.868 352.946 692.98 353.761 692.345C354.584 691.701 355.48 691.253 356.449 691C357.427 690.74 358.388 690.609 359.333 690.609C359.936 690.609 360.629 690.683 361.411 690.829C362.201 690.968 362.963 691.257 363.696 691.697C364.438 692.137 365.053 692.801 365.542 693.689C366.03 694.577 366.275 695.766 366.275 697.257V709.625H363.391V707.083H363.244C363.049 707.49 362.723 707.926 362.266 708.39C361.81 708.855 361.203 709.25 360.446 709.576C359.688 709.902 358.763 710.064 357.671 710.064ZM358.111 707.474C359.252 707.474 360.213 707.25 360.995 706.802C361.786 706.353 362.38 705.775 362.78 705.066C363.187 704.357 363.391 703.612 363.391 702.83V700.19C363.269 700.337 363 700.471 362.584 700.594C362.177 700.708 361.704 700.809 361.167 700.899C360.637 700.98 360.12 701.054 359.615 701.119C359.118 701.176 358.714 701.225 358.405 701.266C357.655 701.363 356.955 701.522 356.303 701.742C355.659 701.954 355.138 702.276 354.739 702.708C354.347 703.131 354.152 703.71 354.152 704.443C354.152 705.445 354.523 706.203 355.264 706.716C356.014 707.221 356.963 707.474 358.111 707.474Z" fill="black"/>
<rect x="68.8932" y="818.687" width="953.578" height="88.3655" rx="44.1828" fill="#AEAEAE"/>
<path d="M104.699 867.818V842.79H113.449C115.192 842.79 116.63 843.092 117.763 843.695C118.895 844.289 119.738 845.092 120.292 846.102C120.846 847.104 121.123 848.216 121.123 849.438C121.123 850.514 120.932 851.402 120.549 852.102C120.174 852.803 119.677 853.357 119.058 853.764C118.447 854.172 117.783 854.473 117.066 854.669V854.913C117.832 854.962 118.602 855.231 119.376 855.72C120.15 856.209 120.797 856.909 121.319 857.822C121.84 858.734 122.101 859.85 122.101 861.17C122.101 862.425 121.816 863.553 121.246 864.555C120.675 865.557 119.775 866.352 118.545 866.938C117.315 867.525 115.714 867.818 113.742 867.818H104.699ZM107.73 865.13H113.742C115.722 865.13 117.127 864.747 117.958 863.981C118.797 863.207 119.217 862.27 119.217 861.17C119.217 860.323 119.001 859.541 118.569 858.824C118.137 858.099 117.522 857.52 116.724 857.088C115.925 856.649 114.98 856.429 113.889 856.429H107.73V865.13ZM107.73 853.789H113.351C114.263 853.789 115.086 853.61 115.82 853.251C116.561 852.893 117.148 852.388 117.579 851.736C118.019 851.084 118.239 850.318 118.239 849.438C118.239 848.339 117.856 847.406 117.091 846.64C116.325 845.866 115.111 845.479 113.449 845.479H107.73V853.789ZM134.56 868.209C132.751 868.209 131.191 867.81 129.879 867.012C128.576 866.205 127.57 865.081 126.861 863.639C126.16 862.189 125.81 860.502 125.81 858.579C125.81 856.657 126.16 854.962 126.861 853.496C127.57 852.021 128.555 850.872 129.818 850.049C131.089 849.218 132.572 848.803 134.267 848.803C135.244 848.803 136.21 848.966 137.163 849.292C138.116 849.618 138.984 850.147 139.766 850.88C140.548 851.605 141.171 852.567 141.636 853.764C142.1 854.962 142.332 856.437 142.332 858.188V859.41H127.863V856.917H139.399C139.399 855.858 139.187 854.913 138.764 854.082C138.348 853.251 137.753 852.595 136.98 852.115C136.214 851.634 135.309 851.394 134.267 851.394C133.118 851.394 132.124 851.679 131.285 852.249C130.454 852.811 129.814 853.544 129.366 854.449C128.918 855.353 128.694 856.323 128.694 857.357V859.019C128.694 860.437 128.938 861.639 129.427 862.624C129.924 863.602 130.613 864.347 131.492 864.861C132.372 865.366 133.395 865.618 134.56 865.618C135.318 865.618 136.002 865.512 136.613 865.301C137.232 865.081 137.766 864.755 138.214 864.323C138.662 863.883 139.008 863.337 139.253 862.685L142.039 863.468C141.746 864.413 141.253 865.244 140.56 865.961C139.868 866.669 139.012 867.223 137.994 867.623C136.975 868.014 135.831 868.209 134.56 868.209ZM154.883 849.047V851.491H145.155V849.047H154.883ZM147.99 844.55H150.874V862.441C150.874 863.256 150.992 863.867 151.229 864.274C151.473 864.673 151.783 864.942 152.157 865.081C152.54 865.211 152.944 865.276 153.367 865.276C153.685 865.276 153.946 865.26 154.149 865.227C154.353 865.187 154.516 865.154 154.638 865.13L155.225 867.72C155.029 867.794 154.756 867.867 154.406 867.94C154.056 868.022 153.612 868.063 153.074 868.063C152.259 868.063 151.461 867.887 150.679 867.537C149.905 867.187 149.261 866.653 148.748 865.936C148.243 865.219 147.99 864.315 147.99 863.223V844.55ZM166.889 868.209C165.081 868.209 163.521 867.81 162.209 867.012C160.905 866.205 159.899 865.081 159.19 863.639C158.49 862.189 158.139 860.502 158.139 858.579C158.139 856.657 158.49 854.962 159.19 853.496C159.899 852.021 160.885 850.872 162.148 850.049C163.419 849.218 164.901 848.803 166.596 848.803C167.574 848.803 168.539 848.966 169.492 849.292C170.446 849.618 171.313 850.147 172.095 850.88C172.877 851.605 173.501 852.567 173.965 853.764C174.429 854.962 174.662 856.437 174.662 858.188V859.41H160.192V856.917H171.729C171.729 855.858 171.517 854.913 171.093 854.082C170.678 853.251 170.083 852.595 169.309 852.115C168.543 851.634 167.639 851.394 166.596 851.394C165.447 851.394 164.453 851.679 163.614 852.249C162.783 852.811 162.144 853.544 161.696 854.449C161.248 855.353 161.023 856.323 161.023 857.357V859.019C161.023 860.437 161.268 861.639 161.757 862.624C162.254 863.602 162.942 864.347 163.822 864.861C164.702 865.366 165.724 865.618 166.889 865.618C167.647 865.618 168.331 865.512 168.942 865.301C169.562 865.081 170.095 864.755 170.543 864.323C170.991 863.883 171.338 863.337 171.582 862.685L174.368 863.468C174.075 864.413 173.582 865.244 172.89 865.961C172.197 866.669 171.342 867.223 170.323 867.623C169.305 868.014 168.16 868.209 166.889 868.209ZM179.049 867.818V849.047H181.835V851.882H182.031C182.373 850.954 182.992 850.2 183.888 849.622C184.784 849.043 185.795 848.754 186.919 848.754C187.131 848.754 187.395 848.758 187.713 848.766C188.031 848.774 188.271 848.787 188.434 848.803V851.736C188.336 851.711 188.112 851.675 187.762 851.626C187.42 851.569 187.057 851.54 186.674 851.54C185.762 851.54 184.947 851.732 184.23 852.115C183.522 852.489 182.959 853.011 182.544 853.679C182.137 854.339 181.933 855.092 181.933 855.94V867.818H179.049ZM191.853 867.818V849.047H194.639V851.882H194.835C195.177 850.954 195.796 850.2 196.692 849.622C197.588 849.043 198.599 848.754 199.723 848.754C199.935 848.754 200.2 848.758 200.517 848.766C200.835 848.774 201.075 848.787 201.238 848.803V851.736C201.141 851.711 200.917 851.675 200.566 851.626C200.224 851.569 199.861 851.54 199.479 851.54C198.566 851.54 197.751 851.732 197.034 852.115C196.326 852.489 195.764 853.011 195.348 853.679C194.941 854.339 194.737 855.092 194.737 855.94V867.818H191.853ZM210.181 868.258C208.991 868.258 207.912 868.034 206.942 867.586C205.973 867.13 205.203 866.474 204.633 865.618C204.062 864.755 203.777 863.712 203.777 862.49C203.777 861.415 203.989 860.543 204.413 859.875C204.836 859.199 205.403 858.669 206.111 858.286C206.82 857.903 207.602 857.618 208.458 857.431C209.321 857.235 210.189 857.08 211.061 856.966C212.201 856.82 213.126 856.71 213.835 856.636C214.552 856.555 215.073 856.42 215.399 856.233C215.733 856.046 215.9 855.72 215.9 855.255V855.158C215.9 853.952 215.57 853.015 214.91 852.347C214.258 851.679 213.268 851.345 211.941 851.345C210.564 851.345 209.484 851.646 208.702 852.249C207.92 852.852 207.37 853.496 207.052 854.18L204.315 853.202C204.804 852.062 205.455 851.174 206.27 850.538C207.093 849.895 207.989 849.447 208.959 849.194C209.936 848.933 210.898 848.803 211.843 848.803C212.446 848.803 213.138 848.876 213.92 849.023C214.711 849.161 215.472 849.451 216.205 849.891C216.947 850.33 217.562 850.994 218.051 851.882C218.54 852.771 218.784 853.96 218.784 855.451V867.818H215.9V865.276H215.753C215.558 865.684 215.232 866.119 214.776 866.584C214.319 867.048 213.713 867.443 212.955 867.769C212.197 868.095 211.272 868.258 210.181 868.258ZM210.621 865.667C211.761 865.667 212.723 865.443 213.505 864.995C214.295 864.547 214.89 863.969 215.289 863.26C215.696 862.551 215.9 861.806 215.9 861.023V858.384C215.778 858.53 215.509 858.665 215.093 858.787C214.686 858.901 214.214 859.003 213.676 859.093C213.146 859.174 212.629 859.247 212.124 859.313C211.627 859.37 211.224 859.419 210.914 859.459C210.164 859.557 209.464 859.716 208.812 859.936C208.168 860.148 207.647 860.469 207.248 860.901C206.857 861.325 206.661 861.903 206.661 862.637C206.661 863.639 207.032 864.396 207.773 864.91C208.523 865.415 209.472 865.667 210.621 865.667ZM224.439 867.818V842.79H227.323V852.029H227.568C227.779 851.703 228.073 851.288 228.447 850.783C228.83 850.269 229.376 849.813 230.085 849.414C230.802 849.007 231.771 848.803 232.994 848.803C234.574 848.803 235.967 849.198 237.173 849.988C238.379 850.779 239.32 851.899 239.996 853.349C240.672 854.799 241.01 856.51 241.01 858.482C241.01 860.469 240.672 862.193 239.996 863.651C239.32 865.101 238.383 866.225 237.185 867.024C235.988 867.814 234.607 868.209 233.042 868.209C231.837 868.209 230.871 868.01 230.146 867.61C229.421 867.203 228.863 866.743 228.472 866.229C228.081 865.708 227.779 865.276 227.568 864.934H227.225V867.818H224.439ZM227.274 858.433C227.274 859.85 227.482 861.101 227.898 862.184C228.313 863.26 228.92 864.103 229.718 864.714C230.517 865.317 231.494 865.618 232.651 865.618C233.857 865.618 234.863 865.301 235.67 864.665C236.485 864.022 237.096 863.158 237.503 862.074C237.918 860.983 238.126 859.769 238.126 858.433C238.126 857.113 237.922 855.923 237.515 854.864C237.116 853.797 236.509 852.954 235.694 852.335C234.888 851.707 233.873 851.394 232.651 851.394C231.478 851.394 230.492 851.691 229.694 852.286C228.896 852.872 228.293 853.695 227.885 854.754C227.478 855.805 227.274 857.031 227.274 858.433ZM250.946 868.258C249.756 868.258 248.677 868.034 247.707 867.586C246.738 867.13 245.968 866.474 245.397 865.618C244.827 864.755 244.542 863.712 244.542 862.49C244.542 861.415 244.754 860.543 245.177 859.875C245.601 859.199 246.167 858.669 246.876 858.286C247.585 857.903 248.367 857.618 249.222 857.431C250.086 857.235 250.954 857.08 251.825 856.966C252.966 856.82 253.891 856.71 254.599 856.636C255.316 856.555 255.838 856.42 256.164 856.233C256.498 856.046 256.665 855.72 256.665 855.255V855.158C256.665 853.952 256.335 853.015 255.675 852.347C255.023 851.679 254.033 851.345 252.705 851.345C251.328 851.345 250.249 851.646 249.467 852.249C248.685 852.852 248.135 853.496 247.817 854.18L245.08 853.202C245.568 852.062 246.22 851.174 247.035 850.538C247.858 849.895 248.754 849.447 249.723 849.194C250.701 848.933 251.662 848.803 252.608 848.803C253.21 848.803 253.903 848.876 254.685 849.023C255.475 849.161 256.237 849.451 256.97 849.891C257.712 850.33 258.327 850.994 258.816 851.882C259.304 852.771 259.549 853.96 259.549 855.451V867.818H256.665V865.276H256.518C256.323 865.684 255.997 866.119 255.54 866.584C255.084 867.048 254.477 867.443 253.72 867.769C252.962 868.095 252.037 868.258 250.946 868.258ZM251.385 865.667C252.526 865.667 253.487 865.443 254.27 864.995C255.06 864.547 255.655 863.969 256.054 863.26C256.461 862.551 256.665 861.806 256.665 861.023V858.384C256.543 858.53 256.274 858.665 255.858 858.787C255.451 858.901 254.978 859.003 254.441 859.093C253.911 859.174 253.394 859.247 252.889 859.313C252.392 859.37 251.988 859.419 251.679 859.459C250.929 859.557 250.229 859.716 249.577 859.936C248.933 860.148 248.412 860.469 248.013 860.901C247.622 861.325 247.426 861.903 247.426 862.637C247.426 863.639 247.797 864.396 248.538 864.91C249.288 865.415 250.237 865.667 251.385 865.667Z" fill="black"/>
<rect x="69.0191" y="976.88" width="953.578" height="88.3655" rx="44.1828" fill="#AEAEAE"/>
<path d="M124.964 1008.81H121.934C121.754 1007.93 121.441 1007.17 120.993 1006.51C120.553 1005.85 120.015 1005.29 119.379 1004.85C118.752 1004.39 118.056 1004.05 117.29 1003.82C116.524 1003.59 115.725 1003.48 114.894 1003.48C113.379 1003.48 112.006 1003.86 110.776 1004.63C109.554 1005.39 108.581 1006.52 107.855 1008.01C107.138 1009.5 106.78 1011.33 106.78 1013.5C106.78 1015.67 107.138 1017.49 107.855 1018.99C108.581 1020.48 109.554 1021.6 110.776 1022.37C112.006 1023.14 113.379 1023.52 114.894 1023.52C115.725 1023.52 116.524 1023.4 117.29 1023.18C118.056 1022.95 118.752 1022.61 119.379 1022.16C120.015 1021.71 120.553 1021.15 120.993 1020.49C121.441 1019.82 121.754 1019.05 121.934 1018.19H124.964C124.736 1019.47 124.321 1020.61 123.718 1021.62C123.115 1022.64 122.365 1023.49 121.469 1024.2C120.573 1024.9 119.567 1025.44 118.451 1025.8C117.343 1026.17 116.157 1026.35 114.894 1026.35C112.76 1026.35 110.862 1025.83 109.2 1024.79C107.538 1023.75 106.23 1022.26 105.277 1020.34C104.324 1018.42 103.847 1016.14 103.847 1013.5C103.847 1010.86 104.324 1008.58 105.277 1006.65C106.23 1004.73 107.538 1003.25 109.2 1002.21C110.862 1001.16 112.76 1000.64 114.894 1000.64C116.157 1000.64 117.343 1000.83 118.451 1001.19C119.567 1001.56 120.573 1002.1 121.469 1002.81C122.365 1003.51 123.115 1004.36 123.718 1005.37C124.321 1006.37 124.736 1007.52 124.964 1008.81ZM141.3 1018.34V1007.24H144.184V1026.01H141.3V1022.83H141.105C140.665 1023.79 139.98 1024.6 139.051 1025.27C138.123 1025.93 136.95 1026.26 135.532 1026.26C134.359 1026.26 133.316 1026 132.403 1025.49C131.491 1024.97 130.774 1024.18 130.253 1023.14C129.731 1022.09 129.471 1020.77 129.471 1019.17V1007.24H132.355V1018.97C132.355 1020.34 132.738 1021.43 133.503 1022.25C134.277 1023.06 135.263 1023.47 136.461 1023.47C137.178 1023.47 137.907 1023.29 138.648 1022.92C139.398 1022.55 140.025 1021.99 140.53 1021.23C141.043 1020.48 141.3 1019.51 141.3 1018.34ZM149.466 1026.01V1007.24H152.253V1010.08H152.448C152.79 1009.15 153.41 1008.39 154.306 1007.82C155.202 1007.24 156.212 1006.95 157.337 1006.95C157.548 1006.95 157.813 1006.95 158.131 1006.96C158.449 1006.97 158.689 1006.98 158.852 1007V1009.93C158.754 1009.91 158.53 1009.87 158.18 1009.82C157.838 1009.76 157.475 1009.73 157.092 1009.73C156.18 1009.73 155.365 1009.93 154.648 1010.31C153.939 1010.68 153.377 1011.2 152.962 1011.87C152.554 1012.53 152.351 1013.29 152.351 1014.13V1026.01H149.466ZM167.794 1026.45C166.605 1026.45 165.525 1026.23 164.556 1025.78C163.586 1025.32 162.816 1024.67 162.246 1023.81C161.676 1022.95 161.391 1021.91 161.391 1020.68C161.391 1019.61 161.603 1018.74 162.026 1018.07C162.45 1017.39 163.016 1016.86 163.725 1016.48C164.434 1016.1 165.216 1015.81 166.071 1015.62C166.935 1015.43 167.802 1015.27 168.674 1015.16C169.815 1015.01 170.739 1014.9 171.448 1014.83C172.165 1014.75 172.687 1014.61 173.012 1014.43C173.346 1014.24 173.514 1013.91 173.514 1013.45V1013.35C173.514 1012.15 173.184 1011.21 172.524 1010.54C171.872 1009.87 170.882 1009.54 169.554 1009.54C168.177 1009.54 167.098 1009.84 166.316 1010.44C165.533 1011.05 164.984 1011.69 164.666 1012.37L161.928 1011.4C162.417 1010.26 163.069 1009.37 163.884 1008.73C164.707 1008.09 165.603 1007.64 166.572 1007.39C167.55 1007.13 168.511 1007 169.456 1007C170.059 1007 170.752 1007.07 171.534 1007.22C172.324 1007.36 173.086 1007.64 173.819 1008.08C174.56 1008.52 175.176 1009.19 175.664 1010.08C176.153 1010.96 176.398 1012.15 176.398 1013.64V1026.01H173.514V1023.47H173.367C173.171 1023.88 172.845 1024.31 172.389 1024.78C171.933 1025.24 171.326 1025.64 170.568 1025.96C169.811 1026.29 168.886 1026.45 167.794 1026.45ZM168.234 1023.86C169.375 1023.86 170.336 1023.64 171.118 1023.19C171.909 1022.74 172.503 1022.16 172.902 1021.45C173.31 1020.74 173.514 1020 173.514 1019.22V1016.58C173.391 1016.72 173.122 1016.86 172.707 1016.98C172.3 1017.1 171.827 1017.2 171.289 1017.29C170.76 1017.37 170.242 1017.44 169.737 1017.51C169.24 1017.56 168.837 1017.61 168.528 1017.65C167.778 1017.75 167.077 1017.91 166.426 1018.13C165.782 1018.34 165.261 1018.66 164.861 1019.1C164.47 1019.52 164.275 1020.1 164.275 1020.83C164.275 1021.83 164.645 1022.59 165.387 1023.1C166.136 1023.61 167.085 1023.86 168.234 1023.86ZM193.491 1018.34V1007.24H196.375V1026.01H193.491V1022.83H193.296C192.856 1023.79 192.171 1024.6 191.243 1025.27C190.314 1025.93 189.141 1026.26 187.723 1026.26C186.55 1026.26 185.507 1026 184.595 1025.49C183.682 1024.97 182.965 1024.18 182.444 1023.14C181.922 1022.09 181.662 1020.77 181.662 1019.17V1007.24H184.546V1018.97C184.546 1020.34 184.929 1021.43 185.694 1022.25C186.468 1023.06 187.454 1023.47 188.652 1023.47C189.369 1023.47 190.098 1023.29 190.839 1022.92C191.589 1022.55 192.216 1021.99 192.721 1021.23C193.234 1020.48 193.491 1019.51 193.491 1018.34ZM218.424 1026.4C216.86 1026.4 215.479 1026.01 214.281 1025.22C213.084 1024.42 212.147 1023.29 211.471 1021.84C210.794 1020.39 210.456 1018.66 210.456 1016.68C210.456 1014.7 210.794 1012.99 211.471 1011.54C212.147 1010.09 213.088 1008.97 214.294 1008.18C215.499 1007.39 216.892 1007 218.473 1007C219.695 1007 220.66 1007.2 221.369 1007.61C222.086 1008.01 222.632 1008.46 223.007 1008.98C223.39 1009.48 223.687 1009.9 223.899 1010.22H224.143V1000.98H227.027V1026.01H224.241V1023.13H223.899C223.687 1023.47 223.386 1023.9 222.995 1024.42C222.604 1024.94 222.045 1025.4 221.32 1025.8C220.595 1026.2 219.63 1026.4 218.424 1026.4ZM218.815 1023.81C219.972 1023.81 220.95 1023.51 221.748 1022.91C222.547 1022.3 223.153 1021.45 223.569 1020.38C223.984 1019.29 224.192 1018.04 224.192 1016.63C224.192 1015.23 223.989 1014 223.581 1012.95C223.174 1011.89 222.571 1011.07 221.773 1010.48C220.974 1009.88 219.988 1009.59 218.815 1009.59C217.593 1009.59 216.575 1009.9 215.76 1010.53C214.953 1011.15 214.347 1011.99 213.939 1013.06C213.54 1014.12 213.34 1015.31 213.34 1016.63C213.34 1017.96 213.544 1019.18 213.951 1020.27C214.367 1021.35 214.978 1022.22 215.784 1022.86C216.599 1023.49 217.609 1023.81 218.815 1023.81ZM240.58 1026.4C238.771 1026.4 237.211 1026 235.9 1025.21C234.596 1024.4 233.59 1023.27 232.881 1021.83C232.18 1020.38 231.83 1018.7 231.83 1016.77C231.83 1014.85 232.18 1013.16 232.881 1011.69C233.59 1010.21 234.576 1009.07 235.838 1008.24C237.109 1007.41 238.592 1007 240.287 1007C241.264 1007 242.23 1007.16 243.183 1007.49C244.136 1007.81 245.004 1008.34 245.786 1009.07C246.568 1009.8 247.191 1010.76 247.656 1011.96C248.12 1013.16 248.352 1014.63 248.352 1016.38V1017.6H233.883V1015.11H245.419C245.419 1014.05 245.208 1013.11 244.784 1012.28C244.368 1011.45 243.774 1010.79 243 1010.31C242.234 1009.83 241.33 1009.59 240.287 1009.59C239.138 1009.59 238.144 1009.87 237.305 1010.44C236.474 1011.01 235.834 1011.74 235.386 1012.64C234.938 1013.55 234.714 1014.52 234.714 1015.55V1017.21C234.714 1018.63 234.959 1019.83 235.447 1020.82C235.944 1021.8 236.633 1022.54 237.513 1023.05C238.393 1023.56 239.415 1023.81 240.58 1023.81C241.338 1023.81 242.022 1023.71 242.633 1023.49C243.252 1023.27 243.786 1022.95 244.234 1022.52C244.682 1022.08 245.028 1021.53 245.273 1020.88L248.059 1021.66C247.766 1022.61 247.273 1023.44 246.58 1024.15C245.888 1024.86 245.032 1025.42 244.014 1025.82C242.996 1026.21 241.851 1026.4 240.58 1026.4ZM262.809 1000.98H266.427L274.932 1021.76H275.225L283.731 1000.98H287.348V1026.01H284.513V1007H284.269L276.447 1026.01H273.71L265.889 1007H265.644V1026.01H262.809V1000.98ZM293.034 1026.01V1007.24H295.918V1026.01H293.034ZM294.5 1004.11C293.938 1004.11 293.453 1003.92 293.046 1003.54C292.647 1003.16 292.447 1002.7 292.447 1002.16C292.447 1001.62 292.647 1001.16 293.046 1000.78C293.453 1000.39 293.938 1000.2 294.5 1000.2C295.062 1000.2 295.543 1000.39 295.942 1000.78C296.35 1001.16 296.553 1001.62 296.553 1002.16C296.553 1002.7 296.35 1003.16 295.942 1003.54C295.543 1003.92 295.062 1004.11 294.5 1004.11ZM304.084 1000.98V1026.01H301.2V1000.98H304.084ZM312.251 1014.72V1026.01H309.367V1000.98H312.251V1010.17H312.495C312.935 1009.2 313.595 1008.43 314.475 1007.86C315.363 1007.29 316.544 1007 318.019 1007C319.298 1007 320.418 1007.25 321.379 1007.77C322.341 1008.27 323.086 1009.05 323.616 1010.1C324.154 1011.14 324.422 1012.47 324.422 1014.08V1026.01H321.538V1014.28C321.538 1012.79 321.151 1011.64 320.377 1010.82C319.612 1010 318.548 1009.59 317.188 1009.59C316.243 1009.59 315.395 1009.79 314.646 1010.19C313.905 1010.59 313.318 1011.17 312.886 1011.93C312.462 1012.7 312.251 1013.63 312.251 1014.72ZM337.324 1026.4C335.63 1026.4 334.143 1026 332.864 1025.19C331.593 1024.39 330.599 1023.26 329.882 1021.81C329.173 1020.36 328.819 1018.66 328.819 1016.72C328.819 1014.77 329.173 1013.06 329.882 1011.6C330.599 1010.15 331.593 1009.01 332.864 1008.21C334.143 1007.4 335.63 1007 337.324 1007C339.019 1007 340.502 1007.4 341.773 1008.21C343.052 1009.01 344.046 1010.15 344.754 1011.6C345.471 1013.06 345.83 1014.77 345.83 1016.72C345.83 1018.66 345.471 1020.36 344.754 1021.81C344.046 1023.26 343.052 1024.39 341.773 1025.19C340.502 1026 339.019 1026.4 337.324 1026.4ZM337.324 1023.81C338.611 1023.81 339.671 1023.48 340.502 1022.82C341.333 1022.16 341.948 1021.29 342.347 1020.22C342.746 1019.14 342.946 1017.98 342.946 1016.72C342.946 1015.47 342.746 1014.3 342.347 1013.22C341.948 1012.13 341.333 1011.26 340.502 1010.59C339.671 1009.92 338.611 1009.59 337.324 1009.59C336.037 1009.59 334.978 1009.92 334.147 1010.59C333.316 1011.26 332.701 1012.13 332.302 1013.22C331.902 1014.3 331.703 1015.47 331.703 1016.72C331.703 1017.98 331.902 1019.14 332.302 1020.22C332.701 1021.29 333.316 1022.16 334.147 1022.82C334.978 1023.48 336.037 1023.81 337.324 1023.81Z" fill="black"/>
<path d="M445.553 116V46.1818H460.314V74.9886H490.28V46.1818H505.007V116H490.28V87.1591H460.314V116H445.553ZM540.564 117.023C535.268 117.023 530.689 115.898 526.825 113.648C522.984 111.375 520.018 108.216 517.928 104.17C515.837 100.102 514.791 95.3864 514.791 90.0227C514.791 84.6136 515.837 79.8864 517.928 75.8409C520.018 71.7727 522.984 68.6136 526.825 66.3636C530.689 64.0909 535.268 62.9545 540.564 62.9545C545.859 62.9545 550.428 64.0909 554.268 66.3636C558.132 68.6136 561.109 71.7727 563.2 75.8409C565.291 79.8864 566.337 84.6136 566.337 90.0227C566.337 95.3864 565.291 100.102 563.2 104.17C561.109 108.216 558.132 111.375 554.268 113.648C550.428 115.898 545.859 117.023 540.564 117.023ZM540.632 105.773C543.041 105.773 545.053 105.091 546.666 103.727C548.28 102.341 549.496 100.455 550.314 98.0682C551.155 95.6818 551.575 92.9659 551.575 89.9205C551.575 86.875 551.155 84.1591 550.314 81.7727C549.496 79.3864 548.28 77.5 546.666 76.1136C545.053 74.7273 543.041 74.0341 540.632 74.0341C538.2 74.0341 536.155 74.7273 534.496 76.1136C532.859 77.5 531.621 79.3864 530.78 81.7727C529.962 84.1591 529.553 86.875 529.553 89.9205C529.553 92.9659 529.962 95.6818 530.78 98.0682C531.621 100.455 532.859 102.341 534.496 103.727C536.155 105.091 538.2 105.773 540.632 105.773ZM575.78 63.6364H590.303V118.591C590.303 122.636 589.507 125.909 587.916 128.409C586.325 130.909 584.041 132.739 581.064 133.898C578.109 135.057 574.575 135.636 570.462 135.636C569.962 135.636 569.484 135.625 569.03 135.602C568.553 135.602 568.053 135.591 567.53 135.568V124.216C567.916 124.239 568.257 124.25 568.553 124.25C568.825 124.273 569.121 124.284 569.439 124.284C571.78 124.284 573.416 123.784 574.348 122.784C575.303 121.807 575.78 120.33 575.78 118.352V63.6364ZM583.007 56.8864C580.871 56.8864 579.03 56.1705 577.484 54.7386C575.939 53.2841 575.166 51.5455 575.166 49.5227C575.166 47.5227 575.939 45.8068 577.484 44.375C579.03 42.9205 580.871 42.1932 583.007 42.1932C585.189 42.1932 587.041 42.9205 588.564 44.375C590.109 45.8068 590.882 47.5227 590.882 49.5227C590.882 51.5455 590.109 53.2841 588.564 54.7386C587.041 56.1705 585.189 56.8864 583.007 56.8864ZM625.8 117.023C620.413 117.023 615.777 115.932 611.891 113.75C608.027 111.545 605.05 108.432 602.959 104.409C600.868 100.364 599.822 95.5795 599.822 90.0568C599.822 84.6705 600.868 79.9432 602.959 75.875C605.05 71.8068 607.993 68.6364 611.788 66.3636C615.607 64.0909 620.084 62.9545 625.22 62.9545C628.675 62.9545 631.891 63.5114 634.868 64.625C637.868 65.7159 640.482 67.3636 642.709 69.5682C644.959 71.7727 646.709 74.5455 647.959 77.8864C649.209 81.2045 649.834 85.0909 649.834 89.5455V93.5341H605.618V84.5341H636.163C636.163 82.4432 635.709 80.5909 634.8 78.9773C633.891 77.3636 632.629 76.1023 631.016 75.1932C629.425 74.2614 627.572 73.7955 625.459 73.7955C623.254 73.7955 621.3 74.3068 619.595 75.3295C617.913 76.3295 616.595 77.6818 615.641 79.3864C614.686 81.0682 614.197 82.9432 614.175 85.0114V93.5682C614.175 96.1591 614.652 98.3977 615.607 100.284C616.584 102.17 617.959 103.625 619.732 104.648C621.504 105.67 623.607 106.182 626.038 106.182C627.652 106.182 629.129 105.955 630.47 105.5C631.811 105.045 632.959 104.364 633.913 103.455C634.868 102.545 635.595 101.432 636.095 100.114L649.527 101C648.845 104.227 647.447 107.045 645.334 109.455C643.243 111.841 640.538 113.705 637.22 115.045C633.925 116.364 630.118 117.023 625.8 117.023Z" fill="black"/>
</svg>
