<?xml version="1.0" standalone="no"?>
<!DOCTYPE svg PUBLIC "-//W3C//DTD SVG 20010904//EN"
 "http://www.w3.org/TR/2001/REC-SVG-20010904/DTD/svg10.dtd">
<svg version="1.0" xmlns="http://www.w3.org/2000/svg"
 width="512.000000pt" height="260.000000pt" viewBox="0 0 512.000000 260.000000"
 preserveAspectRatio="xMidYMid meet">

<g transform="translate(0.000000,260.000000) scale(0.100000,-0.100000)"
fill="#00569D" stroke="none">
<path d="M84 2581 c-63 -38 -66 -140 -6 -179 24 -16 94 -17 857 -22 l830 -5 3
-983 2 -983 108 3 107 3 3 983 2 982 835 0 835 0 0 -860 0 -860 -155 0 -155 0
0 710 0 710 -150 0 -150 0 0 -710 0 -710 -180 0 -180 0 0 545 0 545 -155 0
-155 0 0 -617 c0 -602 1 -619 20 -651 39 -64 20 -62 772 -62 449 0 696 4 721
11 26 7 44 21 57 42 19 31 20 59 20 1044 l0 1013 -29 32 -29 33 -1899 3
c-1858 2 -1899 2 -1929 -17z"/>
<path d="M222 2061 c-61 -21 -114 -61 -159 -120 -65 -84 -64 -66 -61 -917 3
-764 3 -769 25 -816 29 -63 96 -134 158 -166 l50 -27 1872 -3 1871 -2 31 25
c61 52 48 151 -24 181 -30 12 -291 14 -1865 14 l-1830 0 -32 29 -33 29 -3 741
c-2 651 0 745 13 771 32 62 13 60 696 60 l621 0 34 34 c28 28 34 42 34 76 0
34 -6 48 -34 76 l-34 34 -639 0 c-592 -1 -642 -2 -691 -19z"/>
<path d="M4634 1740 c-12 -4 -31 -21 -43 -36 -19 -24 -21 -39 -21 -155 l0
-129 -120 0 c-129 0 -164 -9 -194 -52 -9 -12 -16 -40 -16 -61 0 -31 7 -46 34
-73 l34 -34 131 0 131 0 0 -125 c0 -139 10 -173 55 -193 46 -21 92 -15 127 17
l33 29 3 136 4 136 128 0 c123 0 130 1 159 26 39 33 50 83 27 131 -24 51 -64
63 -201 63 l-115 0 0 123 c0 104 -3 127 -20 155 -29 47 -83 64 -136 42z"/>
</g>
</svg>
