<svg width="166" height="84" viewBox="0 0 166 84" fill="none" xmlns="http://www.w3.org/2000/svg">
<path d="M158.862 72.7188C158.877 72.7186 158.892 72.7178 158.906 72.7178C162.04 72.718 164.581 75.2214 164.581 78.3086C164.581 81.396 162.04 83.8992 158.906 83.8994C158.892 83.8994 158.877 83.8976 158.862 83.8975V83.9414H5.7168V83.8975C5.70294 83.8976 5.68868 83.8994 5.6748 83.8994C2.54066 83.8992 0 81.396 0 78.3086C0.000313503 75.2214 2.54085 72.718 5.6748 72.7178C5.68868 72.7178 5.70295 72.7187 5.7168 72.7188V72.6758H158.862V72.7188ZM158.862 36.3818C158.877 36.3817 158.892 36.3809 158.906 36.3809C162.04 36.3811 164.581 38.8834 164.581 41.9707C164.581 45.0581 162.04 47.5613 158.906 47.5615C158.892 47.5615 158.877 47.5597 158.862 47.5596V47.6035H5.7168V47.5596C5.70294 47.5597 5.68868 47.5615 5.6748 47.5615C2.54066 47.5613 6.27846e-06 45.0581 0 41.9707C0.000139911 38.8834 2.54075 36.3811 5.6748 36.3809C5.68868 36.3809 5.70294 36.3817 5.7168 36.3818V36.3379H158.862V36.3818ZM160.282 0.0429688C160.296 0.0428547 160.311 0.0419925 160.325 0.0419922C163.459 0.0421411 166.001 2.54534 166.001 5.63281C166.001 8.72013 163.459 11.2225 160.325 11.2227C160.311 11.2227 160.296 11.2208 160.282 11.2207V11.2656H7.13672V11.2207C7.12262 11.2208 7.10788 11.2226 7.09375 11.2227C3.9597 11.2225 1.41913 8.7201 1.41895 5.63281C1.41895 2.54537 3.95959 0.042187 7.09375 0.0419922C7.10788 0.0420035 7.12262 0.0428666 7.13672 0.0429688V0H160.282V0.0429688Z" fill="white"/>
</svg>
