<svg width="113" height="137" viewBox="0 0 113 137" fill="none" xmlns="http://www.w3.org/2000/svg">
<g filter="url(#filter0_d_65_94)">
<path d="M95.8491 7.18869C102.466 7.1887 107.831 12.5531 107.831 19.1701V115.019C107.831 121.636 102.466 127 95.8491 127H27.3423L27.2885 44.1955C27.2873 42.2851 25.737 40.7373 23.8266 40.7385C21.9165 40.7399 20.3696 42.2893 20.3706 44.1994L20.4243 127H16.7739C10.1569 127 4.79245 121.636 4.79245 115.019V19.1701C4.79245 12.5531 10.1569 7.18869 16.7739 7.18869H95.8491ZM46.726 98.2453C45.4028 98.2455 44.3305 99.3185 44.3305 100.642C44.3306 101.965 45.4028 103.038 46.726 103.038H58.7075C60.0309 103.038 61.1039 101.965 61.104 100.642C61.104 99.3184 60.0309 98.2453 58.7075 98.2453H46.726ZM32.3491 35.9436C31.0257 35.9436 29.9526 37.0167 29.9526 38.3401C29.9527 39.6634 31.0258 40.7365 32.3491 40.7365H74.2827C75.606 40.7365 76.679 39.6634 76.6792 38.3401C76.6792 37.0167 75.6061 35.9436 74.2827 35.9436H32.3491ZM19.1694 16.7737C16.5228 16.7739 14.3774 18.92 14.3774 21.5666C14.3776 24.2131 16.5229 26.3584 19.1694 26.3586H86.2641C88.9108 26.3586 91.0559 24.2132 91.0561 21.5666C91.0561 18.9198 88.9109 16.7737 86.2641 16.7737H19.1694Z" fill="white"/>
</g>
<g filter="url(#filter1_d_65_94)">
<path d="M88.6606 0C95.2775 0.000124731 100.641 5.36453 100.641 11.9814V107.83C100.641 114.447 95.2775 119.811 88.6606 119.812H16.7739L16.5893 119.816C14.6902 119.912 13.1795 121.482 13.1792 123.405C13.1792 125.39 14.7888 127 16.7739 127C10.1569 127 4.79245 121.636 4.79245 115.019V11.9814C4.79245 5.36445 10.1569 0 16.7739 0H88.6606ZM46.726 98.2451C45.4028 98.2453 44.3305 99.3183 44.3305 100.642C44.3306 101.965 45.4028 103.038 46.726 103.038H58.7075C60.0309 103.038 61.1039 101.965 61.104 100.642C61.104 99.3182 60.0309 98.2451 58.7075 98.2451H46.726ZM32.3491 35.9434C31.0257 35.9434 29.9526 37.0164 29.9526 38.3398C29.9527 39.6631 31.0258 40.7363 32.3491 40.7363H74.2827C75.606 40.7363 76.679 39.6631 76.6792 38.3398C76.6792 37.0164 75.6061 35.9434 74.2827 35.9434H32.3491ZM19.1694 16.7734C16.5228 16.7737 14.3774 18.9197 14.3774 21.5664C14.3776 24.2129 16.5229 26.3582 19.1694 26.3584H86.2641C88.9108 26.3584 91.0559 24.213 91.0561 21.5664C91.0561 18.9196 88.9109 16.7734 86.2641 16.7734H19.1694Z" fill="white"/>
</g>
<defs>
<filter id="filter0_d_65_94" x="-2.86102e-06" y="7.18869" width="112.623" height="129.396" filterUnits="userSpaceOnUse" color-interpolation-filters="sRGB">
<feFlood flood-opacity="0" result="BackgroundImageFix"/>
<feColorMatrix in="SourceAlpha" type="matrix" values="0 0 0 0 0 0 0 0 0 0 0 0 0 0 0 0 0 0 127 0" result="hardAlpha"/>
<feOffset dy="4.79245"/>
<feGaussianBlur stdDeviation="2.39623"/>
<feComposite in2="hardAlpha" operator="out"/>
<feColorMatrix type="matrix" values="0 0 0 0 0 0 0 0 0 0 0 0 0 0 0 0 0 0 0.25 0"/>
<feBlend mode="normal" in2="BackgroundImageFix" result="effect1_dropShadow_65_94"/>
<feBlend mode="normal" in="SourceGraphic" in2="effect1_dropShadow_65_94" result="shape"/>
</filter>
<filter id="filter1_d_65_94" x="-2.86102e-06" y="0" width="105.434" height="136.585" filterUnits="userSpaceOnUse" color-interpolation-filters="sRGB">
<feFlood flood-opacity="0" result="BackgroundImageFix"/>
<feColorMatrix in="SourceAlpha" type="matrix" values="0 0 0 0 0 0 0 0 0 0 0 0 0 0 0 0 0 0 127 0" result="hardAlpha"/>
<feOffset dy="4.79245"/>
<feGaussianBlur stdDeviation="2.39623"/>
<feComposite in2="hardAlpha" operator="out"/>
<feColorMatrix type="matrix" values="0 0 0 0 0 0 0 0 0 0 0 0 0 0 0 0 0 0 0.25 0"/>
<feBlend mode="normal" in2="BackgroundImageFix" result="effect1_dropShadow_65_94"/>
<feBlend mode="normal" in="SourceGraphic" in2="effect1_dropShadow_65_94" result="shape"/>
</filter>
</defs>
</svg>
