<svg width="715" height="1080" viewBox="0 0 715 1080" fill="none" xmlns="http://www.w3.org/2000/svg">
<rect x="100" width="615" height="1080" fill="#00569D"/>
<path d="M100 1080H50L49.3789 1080C36.3426 1079.83 23.8749 1074.59 14.6445 1065.36C5.26771 1055.98 2.79273e-06 1043.26 0 1030C-4.03513e-09 1016.74 5.26772 1004.02 14.6445 994.645C23.8749 985.414 36.3426 980.166 49.3789 980.004L50.6211 979.996C63.6574 979.834 76.1251 974.586 85.3555 965.355C94.7323 955.979 100 943.261 100 930C100 916.739 94.7323 904.021 85.3555 894.645C76.1251 885.414 63.6574 880.166 50.6211 880.004L49.3789 879.996C36.3426 879.834 23.8749 874.586 14.6445 865.355C5.26771 855.979 2.79273e-06 843.261 0 830C-4.03513e-09 816.739 5.26772 804.021 14.6445 794.645C23.8749 785.414 36.3426 780.166 49.3789 780.004L50.6211 779.996C63.6574 779.834 76.1251 774.586 85.3555 765.355C94.7323 755.979 100 743.261 100 730C100 716.739 94.7323 704.021 85.3555 694.645C76.1251 685.414 63.6574 680.166 50.6211 680.004L49.3789 679.996C36.3426 679.834 23.8749 674.586 14.6445 665.355C5.26771 655.979 2.79273e-06 643.261 0 630C-4.03513e-09 616.739 5.26772 604.021 14.6445 594.645C23.8749 585.414 36.3426 580.166 49.3789 580.004L50.6211 579.996C63.6574 579.834 76.1251 574.586 85.3555 565.355C94.7323 555.979 100 543.261 100 530C100 516.739 94.7323 504.021 85.3555 494.645C76.1251 485.414 63.6574 480.166 50.6211 480.004L49.3789 479.996C36.3426 479.834 23.8749 474.586 14.6445 465.355C5.26771 455.979 2.79273e-06 443.261 0 430C-4.03513e-09 416.739 5.26772 404.021 14.6445 394.645C23.8749 385.414 36.3426 380.166 49.3789 380.004L50.6211 379.996C63.6574 379.834 76.1251 374.586 85.3555 365.355C94.7323 355.979 100 343.261 100 330C100 316.739 94.7323 304.021 85.3555 294.645C76.1251 285.414 63.6574 280.166 50.6211 280.004L49.3789 279.996C36.3426 279.834 23.8749 274.586 14.6445 265.355C5.26771 255.979 2.79273e-06 243.261 0 230C-4.03513e-09 216.739 5.26772 204.021 14.6445 194.645C23.8749 185.414 36.3426 180.166 49.3789 180.004L50.6211 179.996C63.6574 179.834 76.1251 174.586 85.3555 165.355C94.7323 155.979 100 143.261 100 130C100 116.739 94.7323 104.021 85.3555 94.6445C76.1251 85.4142 63.6574 80.1657 50.6211 80.0039L49.3789 79.9961C36.3426 79.8343 23.8749 74.5858 14.6445 65.3555C5.26771 55.9787 2.79273e-06 43.2608 0 30C-3.311e-09 19.1189 3.54764 8.6041 10.001 0H100V1080Z" fill="#00569D"/>
</svg>
