<svg width="361" height="361" viewBox="0 0 361 361" fill="none" xmlns="http://www.w3.org/2000/svg">
<path d="M180.5 0C208.138 0 234.325 6.21459 257.741 17.3184C248.903 15.2865 239.699 14.2129 230.244 14.2129C162.739 14.2129 108.016 68.9366 108.016 136.441C108.016 203.946 162.739 258.669 230.244 258.669C297.749 258.669 352.472 203.946 352.473 136.441C352.473 132.042 352.237 127.698 351.784 123.419C357.76 141.36 361 160.551 361 180.5C361 280.187 280.187 361 180.5 361C80.8126 361 0 280.187 0 180.5C0 80.8126 80.8126 0 180.5 0Z" fill="#00569D"/>
</svg>
