<svg width="103" height="131" viewBox="0 0 103 131" fill="none" xmlns="http://www.w3.org/2000/svg">
<path d="M97.0283 63.9245C100.181 63.9245 102.736 66.4804 102.736 69.6325V119.858C102.736 123.01 100.181 125.566 97.0283 125.566H5.70801C2.55582 125.566 0 123.01 0 119.858V69.6325C0 66.4803 2.55582 63.9245 5.70801 63.9245H97.0283ZM14.8398 102.736C13.579 102.736 12.5566 103.758 12.5566 105.019C12.5568 106.28 13.5791 107.302 14.8398 107.302H77.623C78.8836 107.302 79.9051 106.28 79.9053 105.019C79.9053 103.759 78.8837 102.736 77.623 102.736H14.8398ZM9.13184 84.4714C7.87114 84.4715 6.84874 85.4939 6.84863 86.7546C6.84863 88.0154 7.87107 89.0377 9.13184 89.0378H71.915C73.1759 89.0378 74.1982 88.0155 74.1982 86.7546C74.1981 85.4938 73.1758 84.4714 71.915 84.4714H9.13184ZM21.6885 66.2077C20.4277 66.2078 19.4053 67.2301 19.4053 68.4909C19.4054 69.7516 20.4278 70.774 21.6885 70.7741H84.4717C85.7325 70.7741 86.7547 69.7517 86.7549 68.4909C86.7549 67.2301 85.7326 66.2077 84.4717 66.2077H21.6885Z" fill="white"/>
<g filter="url(#filter0_d_65_64)">
<path d="M85.6133 4.56604C88.7654 4.56608 91.3203 7.12188 91.3203 10.274V119.858C91.3203 123.01 88.7654 125.566 85.6133 125.566H5.70801C2.55582 125.566 0 123.01 0 119.858V10.274C0 7.12186 2.55582 4.56604 5.70801 4.56604H85.6133ZM14.8398 102.736C13.579 102.736 12.5566 103.758 12.5566 105.019C12.5568 106.28 13.5791 107.302 14.8398 107.302H77.623C78.8836 107.302 79.9051 106.28 79.9053 105.019C79.9053 103.758 78.8837 102.736 77.623 102.736H14.8398ZM9.13184 84.4713C7.87114 84.4714 6.84874 85.4938 6.84863 86.7545C6.84863 88.0153 7.87107 89.0376 9.13184 89.0377H71.915C73.1759 89.0377 74.1982 88.0154 74.1982 86.7545C74.1981 85.4937 73.1758 84.4713 71.915 84.4713H9.13184ZM21.6885 66.2076C20.4277 66.2078 19.4053 67.23 19.4053 68.4908C19.4054 69.7515 20.4278 70.7739 21.6885 70.774H84.4717C85.7325 70.774 86.7547 69.7516 86.7549 68.4908C86.7549 67.23 85.7326 66.2076 84.4717 66.2076H21.6885ZM11.415 47.943C10.1543 47.943 9.13195 48.9654 9.13184 50.2262C9.13184 51.4871 10.1542 52.5094 11.415 52.5094H74.1982C75.4591 52.5093 76.4814 51.487 76.4814 50.2262C76.4813 48.9655 75.459 47.9431 74.1982 47.943H11.415ZM14.8398 19.4059C11.6878 19.4059 9.132 21.9609 9.13184 25.1129C9.13184 28.2651 11.6877 30.8209 14.8398 30.8209H68.4902C71.6424 30.8209 74.1982 28.2651 74.1982 25.1129C74.1981 21.9609 71.6423 19.4059 68.4902 19.4059H14.8398Z" fill="white"/>
</g>
<path d="M91.4348 118.717C91.3599 119.086 91.3205 119.468 91.3205 119.859C91.3205 122.998 93.8563 125.546 96.9914 125.566H85.6135C83.7223 125.566 82.1888 124.033 82.1887 122.142C82.1887 120.25 83.7222 118.717 85.6135 118.717H91.4348ZM102.588 121.146C102.684 121.461 102.736 121.795 102.736 122.142C102.735 124.033 101.203 125.565 99.3117 125.566H97.0656C99.7586 125.548 102.007 123.666 102.588 121.146Z" fill="white"/>
<defs>
<filter id="filter0_d_65_64" x="0" y="2.38419e-06" width="100.452" height="130.132" filterUnits="userSpaceOnUse" color-interpolation-filters="sRGB">
<feFlood flood-opacity="0" result="BackgroundImageFix"/>
<feColorMatrix in="SourceAlpha" type="matrix" values="0 0 0 0 0 0 0 0 0 0 0 0 0 0 0 0 0 0 127 0" result="hardAlpha"/>
<feOffset dx="4.56604"/>
<feGaussianBlur stdDeviation="2.28302"/>
<feComposite in2="hardAlpha" operator="out"/>
<feColorMatrix type="matrix" values="0 0 0 0 0 0 0 0 0 0 0 0 0 0 0 0 0 0 0.25 0"/>
<feBlend mode="normal" in2="BackgroundImageFix" result="effect1_dropShadow_65_64"/>
<feBlend mode="normal" in="SourceGraphic" in2="effect1_dropShadow_65_64" result="shape"/>
</filter>
</defs>
</svg>
