<svg width="1092" height="1150" viewBox="0 0 1092 1150" fill="none" xmlns="http://www.w3.org/2000/svg">
<rect width="1092" height="1150" rx="110.255" fill="#D9D9D9"/>
<rect x="69.0191" y="344.105" width="953.578" height="88.3655" rx="44.1828" fill="#AEAEAE"/>
<path d="M104.825 393.237V368.209H119.832V370.898H107.855V379.354H118.707V382.043H107.855V393.237H104.825ZM131.123 393.628C129.315 393.628 127.755 393.229 126.443 392.43C125.139 391.624 124.133 390.499 123.424 389.057C122.724 387.607 122.373 385.921 122.373 383.998C122.373 382.075 122.724 380.381 123.424 378.914C124.133 377.44 125.119 376.291 126.382 375.468C127.653 374.637 129.136 374.222 130.83 374.222C131.808 374.222 132.773 374.385 133.726 374.71C134.68 375.036 135.547 375.566 136.329 376.299C137.111 377.024 137.735 377.986 138.199 379.183C138.663 380.381 138.896 381.855 138.896 383.607V384.829H124.427V382.336H135.963C135.963 381.277 135.751 380.332 135.327 379.501C134.912 378.67 134.317 378.014 133.543 377.533C132.777 377.053 131.873 376.812 130.83 376.812C129.681 376.812 128.687 377.098 127.848 377.668C127.017 378.23 126.378 378.963 125.93 379.868C125.482 380.772 125.258 381.741 125.258 382.776V384.438C125.258 385.856 125.502 387.057 125.991 388.043C126.488 389.021 127.176 389.766 128.056 390.279C128.936 390.785 129.958 391.037 131.123 391.037C131.881 391.037 132.565 390.931 133.176 390.719C133.796 390.499 134.329 390.174 134.777 389.742C135.225 389.302 135.572 388.756 135.816 388.104L138.602 388.886C138.309 389.831 137.816 390.662 137.124 391.379C136.431 392.088 135.576 392.642 134.557 393.041C133.539 393.432 132.394 393.628 131.123 393.628ZM143.283 393.237V374.466H146.167V393.237H143.283ZM144.749 371.338C144.187 371.338 143.702 371.146 143.295 370.763C142.896 370.38 142.696 369.92 142.696 369.382C142.696 368.845 142.896 368.384 143.295 368.001C143.702 367.618 144.187 367.427 144.749 367.427C145.311 367.427 145.792 367.618 146.191 368.001C146.599 368.384 146.802 368.845 146.802 369.382C146.802 369.92 146.599 370.38 146.191 370.763C145.792 371.146 145.311 371.338 144.749 371.338ZM151.449 374.466H154.333V394.606C154.333 395.762 154.134 396.764 153.735 397.612C153.343 398.459 152.749 399.115 151.95 399.579C151.16 400.044 150.162 400.276 148.956 400.276C148.858 400.276 148.761 400.276 148.663 400.276C148.565 400.276 148.467 400.276 148.37 400.276V397.587C148.467 397.587 148.557 397.587 148.639 397.587C148.72 397.587 148.81 397.587 148.907 397.587C149.787 397.587 150.431 397.327 150.838 396.805C151.246 396.292 151.449 395.559 151.449 394.606V374.466ZM152.867 371.338C152.305 371.338 151.82 371.146 151.413 370.763C151.013 370.38 150.814 369.92 150.814 369.382C150.814 368.845 151.013 368.384 151.413 368.001C151.82 367.618 152.305 367.427 152.867 367.427C153.429 367.427 153.91 367.618 154.309 368.001C154.716 368.384 154.92 368.845 154.92 369.382C154.92 369.92 154.716 370.38 154.309 370.763C153.91 371.146 153.429 371.338 152.867 371.338ZM165.139 393.677C163.95 393.677 162.87 393.453 161.901 393.005C160.931 392.548 160.162 391.893 159.591 391.037C159.021 390.174 158.736 389.131 158.736 387.909C158.736 386.833 158.948 385.961 159.371 385.293C159.795 384.617 160.361 384.088 161.07 383.705C161.779 383.322 162.561 383.037 163.416 382.849C164.28 382.654 165.148 382.499 166.019 382.385C167.16 382.238 168.085 382.128 168.793 382.055C169.51 381.974 170.032 381.839 170.358 381.652C170.692 381.464 170.859 381.138 170.859 380.674V380.576C170.859 379.371 170.529 378.434 169.869 377.766C169.217 377.098 168.227 376.763 166.899 376.763C165.522 376.763 164.443 377.065 163.661 377.668C162.879 378.271 162.329 378.914 162.011 379.599L159.273 378.621C159.762 377.48 160.414 376.592 161.229 375.957C162.052 375.313 162.948 374.865 163.917 374.613C164.895 374.352 165.856 374.222 166.801 374.222C167.404 374.222 168.097 374.295 168.879 374.442C169.669 374.58 170.431 374.869 171.164 375.309C171.905 375.749 172.521 376.413 173.009 377.301C173.498 378.189 173.743 379.379 173.743 380.87V393.237H170.859V390.695H170.712C170.516 391.102 170.191 391.538 169.734 392.003C169.278 392.467 168.671 392.862 167.913 393.188C167.156 393.514 166.231 393.677 165.139 393.677ZM165.579 391.086C166.72 391.086 167.681 390.862 168.463 390.414C169.254 389.966 169.848 389.387 170.248 388.679C170.655 387.97 170.859 387.224 170.859 386.442V383.803C170.736 383.949 170.468 384.084 170.052 384.206C169.645 384.32 169.172 384.422 168.634 384.511C168.105 384.593 167.588 384.666 167.082 384.731C166.585 384.788 166.182 384.837 165.873 384.878C165.123 384.976 164.422 385.135 163.771 385.355C163.127 385.566 162.606 385.888 162.206 386.32C161.815 386.744 161.62 387.322 161.62 388.055C161.62 389.057 161.991 389.815 162.732 390.328C163.481 390.833 164.431 391.086 165.579 391.086ZM163.233 372.217L160.984 372.12C160.984 370.873 161.339 369.855 162.048 369.065C162.764 368.266 163.648 367.867 164.699 367.867C165.164 367.867 165.575 367.948 165.934 368.111C166.292 368.266 166.634 368.445 166.96 368.649C167.286 368.853 167.62 369.036 167.962 369.199C168.313 369.354 168.708 369.431 169.148 369.431C169.612 369.431 170.003 369.252 170.321 368.893C170.647 368.527 170.81 368.087 170.81 367.574L173.009 367.769C173.009 369.04 172.651 370.05 171.934 370.8C171.225 371.549 170.345 371.924 169.294 371.924C168.732 371.924 168.268 371.847 167.901 371.692C167.535 371.529 167.209 371.346 166.924 371.142C166.638 370.938 166.337 370.759 166.019 370.604C165.702 370.441 165.31 370.36 164.846 370.36C164.382 370.36 163.995 370.543 163.685 370.91C163.384 371.268 163.233 371.704 163.233 372.217ZM186.632 393.628C184.938 393.628 183.451 393.225 182.172 392.418C180.901 391.611 179.907 390.483 179.19 389.033C178.481 387.583 178.127 385.888 178.127 383.949C178.127 381.994 178.481 380.287 179.19 378.829C179.907 377.37 180.901 376.238 182.172 375.431C183.451 374.625 184.938 374.222 186.632 374.222C188.327 374.222 189.81 374.625 191.081 375.431C192.36 376.238 193.354 377.37 194.062 378.829C194.779 380.287 195.138 381.994 195.138 383.949C195.138 385.888 194.779 387.583 194.062 389.033C193.354 390.483 192.36 391.611 191.081 392.418C189.81 393.225 188.327 393.628 186.632 393.628ZM186.632 391.037C187.92 391.037 188.979 390.707 189.81 390.047C190.641 389.387 191.256 388.52 191.655 387.444C192.054 386.369 192.254 385.204 192.254 383.949C192.254 382.695 192.054 381.525 191.655 380.442C191.256 379.358 190.641 378.483 189.81 377.814C188.979 377.146 187.92 376.812 186.632 376.812C185.345 376.812 184.286 377.146 183.455 377.814C182.624 378.483 182.009 379.358 181.61 380.442C181.21 381.525 181.011 382.695 181.011 383.949C181.011 385.204 181.21 386.369 181.61 387.444C182.009 388.52 182.624 389.387 183.455 390.047C184.286 390.707 185.345 391.037 186.632 391.037ZM210.637 368.209L218.067 389.277H218.36L225.79 368.209H228.967L219.778 393.237H216.649L207.459 368.209H210.637ZM238.597 393.628C236.789 393.628 235.228 393.229 233.917 392.43C232.613 391.624 231.607 390.499 230.898 389.057C230.198 387.607 229.847 385.921 229.847 383.998C229.847 382.075 230.198 380.381 230.898 378.914C231.607 377.44 232.593 376.291 233.856 375.468C235.127 374.637 236.609 374.222 238.304 374.222C239.282 374.222 240.247 374.385 241.2 374.71C242.153 375.036 243.021 375.566 243.803 376.299C244.585 377.024 245.209 377.986 245.673 379.183C246.137 380.381 246.37 381.855 246.37 383.607V384.829H231.9V382.336H243.437C243.437 381.277 243.225 380.332 242.801 379.501C242.386 378.67 241.791 378.014 241.017 377.533C240.251 377.053 239.347 376.812 238.304 376.812C237.155 376.812 236.161 377.098 235.322 377.668C234.491 378.23 233.852 378.963 233.403 379.868C232.955 380.772 232.731 381.741 232.731 382.776V384.438C232.731 385.856 232.976 387.057 233.465 388.043C233.962 389.021 234.65 389.766 235.53 390.279C236.41 390.785 237.432 391.037 238.597 391.037C239.355 391.037 240.039 390.931 240.65 390.719C241.269 390.499 241.803 390.174 242.251 389.742C242.699 389.302 243.046 388.756 243.29 388.104L246.076 388.886C245.783 389.831 245.29 390.662 244.598 391.379C243.905 392.088 243.05 392.642 242.031 393.041C241.013 393.432 239.868 393.628 238.597 393.628ZM250.757 393.237V374.466H253.543V377.301H253.739C254.081 376.372 254.7 375.619 255.596 375.04C256.492 374.462 257.502 374.173 258.627 374.173C258.839 374.173 259.103 374.177 259.421 374.185C259.739 374.193 259.979 374.205 260.142 374.222V377.155C260.044 377.13 259.82 377.093 259.47 377.045C259.128 376.988 258.765 376.959 258.382 376.959C257.47 376.959 256.655 377.15 255.938 377.533C255.229 377.908 254.667 378.43 254.252 379.098C253.844 379.758 253.641 380.511 253.641 381.358V393.237H250.757ZM263.561 393.237V374.466H266.347V377.399H266.592C266.983 376.397 267.614 375.619 268.486 375.065C269.357 374.503 270.404 374.222 271.626 374.222C272.865 374.222 273.895 374.503 274.718 375.065C275.549 375.619 276.197 376.397 276.661 377.399H276.857C277.337 376.429 278.059 375.66 279.02 375.089C279.981 374.511 281.134 374.222 282.478 374.222C284.157 374.222 285.529 374.747 286.597 375.798C287.664 376.841 288.198 378.466 288.198 380.674V393.237H285.313V380.674C285.313 379.289 284.935 378.299 284.177 377.704C283.419 377.11 282.527 376.812 281.501 376.812C280.181 376.812 279.158 377.212 278.433 378.01C277.708 378.8 277.346 379.802 277.346 381.016V393.237H274.413V380.381C274.413 379.314 274.066 378.454 273.374 377.802C272.681 377.142 271.789 376.812 270.698 376.812C269.948 376.812 269.247 377.012 268.596 377.411C267.952 377.81 267.431 378.364 267.031 379.073C266.64 379.774 266.445 380.584 266.445 381.505V393.237H263.561ZM301.341 393.628C299.532 393.628 297.972 393.229 296.66 392.43C295.357 391.624 294.351 390.499 293.642 389.057C292.941 387.607 292.591 385.921 292.591 383.998C292.591 382.075 292.941 380.381 293.642 378.914C294.351 377.44 295.336 376.291 296.599 375.468C297.87 374.637 299.353 374.222 301.047 374.222C302.025 374.222 302.991 374.385 303.944 374.71C304.897 375.036 305.765 375.566 306.547 376.299C307.329 377.024 307.952 377.986 308.416 379.183C308.881 380.381 309.113 381.855 309.113 383.607V384.829H294.644V382.336H306.18C306.18 381.277 305.968 380.332 305.545 379.501C305.129 378.67 304.534 378.014 303.76 377.533C302.995 377.053 302.09 376.812 301.047 376.812C299.899 376.812 298.905 377.098 298.066 377.668C297.235 378.23 296.595 378.963 296.147 379.868C295.699 380.772 295.475 381.741 295.475 382.776V384.438C295.475 385.856 295.719 387.057 296.208 388.043C296.705 389.021 297.393 389.766 298.273 390.279C299.153 390.785 300.176 391.037 301.341 391.037C302.098 391.037 302.783 390.931 303.394 390.719C304.013 390.499 304.547 390.174 304.995 389.742C305.443 389.302 305.789 388.756 306.033 388.104L308.82 388.886C308.526 389.831 308.034 390.662 307.341 391.379C306.649 392.088 305.793 392.642 304.775 393.041C303.756 393.432 302.612 393.628 301.341 393.628ZM316.384 368.209V393.237H313.5V368.209H316.384ZM324.551 381.945V393.237H321.667V368.209H324.551V377.399H324.795C325.235 376.429 325.895 375.66 326.775 375.089C327.663 374.511 328.844 374.222 330.319 374.222C331.598 374.222 332.718 374.478 333.679 374.991C334.641 375.497 335.386 376.275 335.916 377.326C336.454 378.368 336.722 379.696 336.722 381.31V393.237H333.838V381.505C333.838 380.014 333.451 378.861 332.677 378.047C331.912 377.224 330.848 376.812 329.488 376.812C328.543 376.812 327.695 377.012 326.946 377.411C326.205 377.81 325.618 378.393 325.186 379.159C324.762 379.925 324.551 380.853 324.551 381.945ZM349.624 393.628C347.93 393.628 346.443 393.225 345.164 392.418C343.893 391.611 342.899 390.483 342.182 389.033C341.473 387.583 341.119 385.888 341.119 383.949C341.119 381.994 341.473 380.287 342.182 378.829C342.899 377.37 343.893 376.238 345.164 375.431C346.443 374.625 347.93 374.222 349.624 374.222C351.319 374.222 352.802 374.625 354.073 375.431C355.352 376.238 356.346 377.37 357.054 378.829C357.771 380.287 358.13 381.994 358.13 383.949C358.13 385.888 357.771 387.583 357.054 389.033C356.346 390.483 355.352 391.611 354.073 392.418C352.802 393.225 351.319 393.628 349.624 393.628ZM349.624 391.037C350.911 391.037 351.971 390.707 352.802 390.047C353.633 389.387 354.248 388.52 354.647 387.444C355.046 386.369 355.246 385.204 355.246 383.949C355.246 382.695 355.046 381.525 354.647 380.442C354.248 379.358 353.633 378.483 352.802 377.814C351.971 377.146 350.911 376.812 349.624 376.812C348.337 376.812 347.278 377.146 346.447 377.814C345.616 378.483 345.001 379.358 344.602 380.442C344.202 381.525 344.003 382.695 344.003 383.949C344.003 385.204 344.202 386.369 344.602 387.444C345.001 388.52 345.616 389.387 346.447 390.047C347.278 390.707 348.337 391.037 349.624 391.037Z" fill="black"/>
<rect x="69.0191" y="502.299" width="953.578" height="88.3655" rx="44.1828" fill="#AEAEAE"/>
<path d="M124.964 534.224H121.934C121.754 533.352 121.441 532.587 120.993 531.927C120.553 531.267 120.015 530.713 119.379 530.265C118.752 529.808 118.056 529.466 117.29 529.238C116.524 529.01 115.725 528.896 114.894 528.896C113.379 528.896 112.006 529.279 110.776 530.045C109.554 530.81 108.581 531.939 107.855 533.43C107.138 534.921 106.78 536.75 106.78 538.917C106.78 541.084 107.138 542.913 107.855 544.404C108.581 545.895 109.554 547.023 110.776 547.789C112.006 548.555 113.379 548.938 114.894 548.938C115.725 548.938 116.524 548.824 117.29 548.595C118.056 548.367 118.752 548.029 119.379 547.581C120.015 547.125 120.553 546.567 120.993 545.907C121.441 545.239 121.754 544.473 121.934 543.609H124.964C124.736 544.889 124.321 546.033 123.718 547.043C123.115 548.054 122.365 548.913 121.469 549.622C120.573 550.323 119.567 550.856 118.451 551.223C117.343 551.59 116.157 551.773 114.894 551.773C112.76 551.773 110.862 551.251 109.2 550.209C107.538 549.166 106.23 547.683 105.277 545.76C104.324 543.838 103.847 541.556 103.847 538.917C103.847 536.277 104.324 533.996 105.277 532.073C106.23 530.151 107.538 528.668 109.2 527.625C110.862 526.582 112.76 526.061 114.894 526.061C116.157 526.061 117.343 526.244 118.451 526.611C119.567 526.977 120.573 527.515 121.469 528.224C122.365 528.924 123.115 529.78 123.718 530.79C124.321 531.792 124.736 532.937 124.964 534.224ZM134.994 551.871C133.805 551.871 132.725 551.647 131.756 551.198C130.786 550.742 130.016 550.086 129.446 549.231C128.876 548.367 128.591 547.325 128.591 546.102C128.591 545.027 128.802 544.155 129.226 543.487C129.65 542.811 130.216 542.282 130.925 541.899C131.634 541.516 132.416 541.231 133.271 541.043C134.135 540.848 135.002 540.693 135.874 540.579C137.015 540.432 137.939 540.322 138.648 540.249C139.365 540.167 139.887 540.033 140.212 539.846C140.546 539.658 140.713 539.332 140.713 538.868V538.77C140.713 537.564 140.384 536.627 139.724 535.959C139.072 535.291 138.082 534.957 136.754 534.957C135.377 534.957 134.298 535.259 133.516 535.862C132.733 536.465 132.184 537.108 131.866 537.792L129.128 536.815C129.617 535.674 130.269 534.786 131.084 534.151C131.907 533.507 132.803 533.059 133.772 532.807C134.75 532.546 135.711 532.415 136.656 532.415C137.259 532.415 137.952 532.489 138.734 532.635C139.524 532.774 140.286 533.063 141.019 533.503C141.76 533.943 142.375 534.607 142.864 535.495C143.353 536.383 143.598 537.573 143.598 539.063V551.431H140.713V548.889H140.567C140.371 549.296 140.045 549.732 139.589 550.196C139.133 550.661 138.526 551.056 137.768 551.382C137.011 551.708 136.086 551.871 134.994 551.871ZM135.434 549.28C136.575 549.28 137.536 549.056 138.318 548.608C139.109 548.16 139.703 547.581 140.102 546.872C140.51 546.164 140.713 545.418 140.713 544.636V541.996C140.591 542.143 140.322 542.277 139.907 542.4C139.5 542.514 139.027 542.616 138.489 542.705C137.96 542.787 137.442 542.86 136.937 542.925C136.44 542.982 136.037 543.031 135.727 543.072C134.978 543.17 134.277 543.328 133.626 543.548C132.982 543.76 132.461 544.082 132.061 544.514C131.67 544.937 131.475 545.516 131.475 546.249C131.475 547.251 131.845 548.009 132.587 548.522C133.336 549.027 134.285 549.28 135.434 549.28ZM148.862 551.431V532.66H151.648V535.495H151.843C152.186 534.566 152.805 533.813 153.701 533.234C154.597 532.656 155.607 532.367 156.732 532.367C156.943 532.367 157.208 532.371 157.526 532.379C157.844 532.387 158.084 532.399 158.247 532.415V535.348C158.149 535.324 157.925 535.287 157.575 535.238C157.233 535.181 156.87 535.153 156.487 535.153C155.575 535.153 154.76 535.344 154.043 535.727C153.334 536.102 152.772 536.623 152.357 537.291C151.949 537.951 151.746 538.705 151.746 539.552V551.431H148.862ZM164.55 540.139V551.431H161.666V532.66H164.452V535.593H164.696C165.136 534.64 165.804 533.874 166.701 533.295C167.597 532.709 168.754 532.415 170.171 532.415C171.442 532.415 172.554 532.676 173.507 533.198C174.461 533.711 175.202 534.493 175.732 535.544C176.261 536.587 176.526 537.907 176.526 539.503V551.431H173.642V539.699C173.642 538.224 173.259 537.076 172.493 536.253C171.727 535.422 170.676 535.006 169.34 535.006C168.42 535.006 167.597 535.206 166.872 535.605C166.155 536.004 165.588 536.587 165.173 537.353C164.757 538.118 164.55 539.047 164.55 540.139ZM189.666 551.822C187.857 551.822 186.297 551.423 184.986 550.624C183.682 549.818 182.676 548.693 181.967 547.251C181.266 545.801 180.916 544.115 180.916 542.192C180.916 540.269 181.266 538.575 181.967 537.108C182.676 535.634 183.662 534.485 184.924 533.662C186.195 532.831 187.678 532.415 189.373 532.415C190.35 532.415 191.316 532.578 192.269 532.904C193.222 533.23 194.09 533.76 194.872 534.493C195.654 535.218 196.277 536.179 196.742 537.377C197.206 538.575 197.438 540.049 197.438 541.801V543.023H182.969V540.53H194.505C194.505 539.471 194.294 538.526 193.87 537.695C193.454 536.864 192.86 536.208 192.086 535.727C191.32 535.247 190.416 535.006 189.373 535.006C188.224 535.006 187.23 535.291 186.391 535.862C185.56 536.424 184.92 537.157 184.472 538.061C184.024 538.966 183.8 539.935 183.8 540.97V542.632C183.8 544.049 184.045 545.251 184.533 546.237C185.03 547.215 185.719 547.96 186.599 548.473C187.479 548.978 188.501 549.231 189.666 549.231C190.424 549.231 191.108 549.125 191.719 548.913C192.338 548.693 192.872 548.367 193.32 547.936C193.768 547.496 194.114 546.95 194.359 546.298L197.145 547.08C196.852 548.025 196.359 548.856 195.666 549.573C194.974 550.282 194.118 550.836 193.1 551.235C192.082 551.626 190.937 551.822 189.666 551.822ZM211.895 526.403H215.513L224.018 547.178H224.311L232.817 526.403H236.434V551.431H233.599V532.415H233.355L225.533 551.431H222.796L214.975 532.415H214.73V551.431H211.895V526.403ZM249.745 551.822C248.051 551.822 246.564 551.418 245.285 550.612C244.014 549.805 243.02 548.677 242.303 547.227C241.594 545.777 241.24 544.082 241.24 542.143C241.24 540.188 241.594 538.481 242.303 537.023C243.02 535.564 244.014 534.432 245.285 533.625C246.564 532.819 248.051 532.415 249.745 532.415C251.44 532.415 252.923 532.819 254.194 533.625C255.473 534.432 256.467 535.564 257.176 537.023C257.893 538.481 258.251 540.188 258.251 542.143C258.251 544.082 257.893 545.777 257.176 547.227C256.467 548.677 255.473 549.805 254.194 550.612C252.923 551.418 251.44 551.822 249.745 551.822ZM249.745 549.231C251.033 549.231 252.092 548.901 252.923 548.241C253.754 547.581 254.369 546.714 254.768 545.638C255.167 544.563 255.367 543.398 255.367 542.143C255.367 540.888 255.167 539.719 254.768 538.636C254.369 537.552 253.754 536.676 252.923 536.008C252.092 535.34 251.033 535.006 249.745 535.006C248.458 535.006 247.399 535.34 246.568 536.008C245.737 536.676 245.122 537.552 244.723 538.636C244.324 539.719 244.124 540.888 244.124 542.143C244.124 543.398 244.324 544.563 244.723 545.638C245.122 546.714 245.737 547.581 246.568 548.241C247.399 548.901 248.458 549.231 249.745 549.231ZM262.653 551.431V532.66H265.538V551.431H262.653ZM262.8 530.118L265.782 524.448H269.155L265.342 530.118H262.8ZM277.908 551.822C276.344 551.822 274.963 551.427 273.765 550.636C272.567 549.838 271.63 548.714 270.954 547.263C270.278 545.805 269.94 544.082 269.94 542.094C269.94 540.123 270.278 538.412 270.954 536.962C271.63 535.511 272.571 534.391 273.777 533.601C274.983 532.811 276.376 532.415 277.957 532.415C279.179 532.415 280.144 532.619 280.853 533.026C281.57 533.426 282.116 533.882 282.491 534.395C282.873 534.9 283.171 535.316 283.383 535.642H283.627V526.403H286.511V551.431H283.725V548.547H283.383C283.171 548.889 282.869 549.321 282.478 549.842C282.087 550.355 281.529 550.816 280.804 551.223C280.079 551.622 279.114 551.822 277.908 551.822ZM278.299 549.231C279.456 549.231 280.433 548.93 281.232 548.327C282.03 547.716 282.637 546.872 283.053 545.797C283.468 544.713 283.676 543.463 283.676 542.045C283.676 540.644 283.472 539.418 283.065 538.367C282.658 537.308 282.055 536.485 281.256 535.898C280.458 535.304 279.472 535.006 278.299 535.006C277.077 535.006 276.058 535.32 275.244 535.947C274.437 536.566 273.83 537.41 273.423 538.477C273.024 539.536 272.824 540.725 272.824 542.045C272.824 543.381 273.028 544.595 273.435 545.687C273.851 546.771 274.462 547.634 275.268 548.278C276.083 548.913 277.093 549.231 278.299 549.231ZM297.717 551.871C296.528 551.871 295.448 551.647 294.479 551.198C293.509 550.742 292.739 550.086 292.169 549.231C291.599 548.367 291.314 547.325 291.314 546.102C291.314 545.027 291.526 544.155 291.949 543.487C292.373 542.811 292.939 542.282 293.648 541.899C294.357 541.516 295.139 541.231 295.994 541.043C296.858 540.848 297.725 540.693 298.597 540.579C299.738 540.432 300.663 540.322 301.371 540.249C302.088 540.167 302.61 540.033 302.936 539.846C303.27 539.658 303.437 539.332 303.437 538.868V538.77C303.437 537.564 303.107 536.627 302.447 535.959C301.795 535.291 300.805 534.957 299.477 534.957C298.1 534.957 297.021 535.259 296.239 535.862C295.457 536.465 294.907 537.108 294.589 537.792L291.851 536.815C292.34 535.674 292.992 534.786 293.807 534.151C294.63 533.507 295.526 533.059 296.495 532.807C297.473 532.546 298.434 532.415 299.379 532.415C299.982 532.415 300.675 532.489 301.457 532.635C302.247 532.774 303.009 533.063 303.742 533.503C304.483 533.943 305.099 534.607 305.587 535.495C306.076 536.383 306.321 537.573 306.321 539.063V551.431H303.437V548.889H303.29C303.094 549.296 302.769 549.732 302.312 550.196C301.856 550.661 301.249 551.056 300.491 551.382C299.734 551.708 298.809 551.871 297.717 551.871ZM298.157 549.28C299.298 549.28 300.259 549.056 301.041 548.608C301.832 548.16 302.426 547.581 302.826 546.872C303.233 546.164 303.437 545.418 303.437 544.636V541.996C303.314 542.143 303.046 542.277 302.63 542.4C302.223 542.514 301.75 542.616 301.212 542.705C300.683 542.787 300.166 542.86 299.66 542.925C299.163 542.982 298.76 543.031 298.451 543.072C297.701 543.17 297 543.328 296.349 543.548C295.705 543.76 295.184 544.082 294.784 544.514C294.393 544.937 294.198 545.516 294.198 546.249C294.198 547.251 294.569 548.009 295.31 548.522C296.059 549.027 297.009 549.28 298.157 549.28Z" fill="black"/>
<rect x="69.0191" y="185.911" width="953.578" height="88.3655" rx="44.1828" fill="#AEAEAE"/>
<path d="M104.825 210.015H108.442L116.948 230.79H117.241L125.746 210.015H129.364V235.043H126.528V216.028H126.284L118.463 235.043H115.725L107.904 216.028H107.66V235.043H104.825V210.015ZM140.573 235.483C139.383 235.483 138.304 235.259 137.334 234.811C136.365 234.355 135.595 233.699 135.025 232.843C134.455 231.98 134.169 230.937 134.169 229.715C134.169 228.639 134.381 227.768 134.805 227.1C135.228 226.423 135.795 225.894 136.503 225.511C137.212 225.128 137.994 224.843 138.85 224.655C139.713 224.46 140.581 224.305 141.453 224.191C142.593 224.044 143.518 223.934 144.227 223.861C144.944 223.78 145.465 223.645 145.791 223.458C146.125 223.27 146.292 222.945 146.292 222.48V222.382C146.292 221.177 145.962 220.24 145.302 219.572C144.651 218.904 143.661 218.57 142.333 218.57C140.956 218.57 139.876 218.871 139.094 219.474C138.312 220.077 137.762 220.72 137.444 221.405L134.707 220.427C135.196 219.287 135.848 218.399 136.662 217.763C137.485 217.119 138.381 216.671 139.351 216.419C140.329 216.158 141.29 216.028 142.235 216.028C142.838 216.028 143.53 216.101 144.312 216.248C145.103 216.386 145.864 216.675 146.598 217.115C147.339 217.555 147.954 218.219 148.443 219.107C148.932 219.995 149.176 221.185 149.176 222.676V235.043H146.292V232.501H146.146C145.95 232.908 145.624 233.344 145.168 233.809C144.712 234.273 144.105 234.668 143.347 234.994C142.589 235.32 141.665 235.483 140.573 235.483ZM141.013 232.892C142.153 232.892 143.115 232.668 143.897 232.22C144.687 231.772 145.282 231.193 145.681 230.485C146.089 229.776 146.292 229.03 146.292 228.248V225.609C146.17 225.755 145.901 225.89 145.486 226.012C145.078 226.126 144.606 226.228 144.068 226.317C143.538 226.399 143.021 226.472 142.516 226.537C142.019 226.594 141.616 226.643 141.306 226.684C140.557 226.782 139.856 226.941 139.204 227.161C138.561 227.373 138.039 227.694 137.64 228.126C137.249 228.55 137.053 229.128 137.053 229.861C137.053 230.864 137.424 231.621 138.165 232.134C138.915 232.64 139.864 232.892 141.013 232.892ZM162.066 235.434C160.306 235.434 158.791 235.019 157.52 234.188C156.249 233.357 155.271 232.212 154.587 230.754C153.903 229.295 153.56 227.629 153.56 225.755C153.56 223.849 153.911 222.167 154.611 220.708C155.32 219.242 156.306 218.097 157.569 217.274C158.84 216.443 160.322 216.028 162.017 216.028C163.337 216.028 164.526 216.272 165.585 216.761C166.645 217.25 167.512 217.934 168.188 218.814C168.865 219.694 169.284 220.72 169.447 221.894H166.563C166.343 221.038 165.854 220.281 165.097 219.621C164.347 218.953 163.337 218.619 162.066 218.619C160.942 218.619 159.956 218.912 159.109 219.498C158.269 220.077 157.614 220.896 157.141 221.955C156.677 223.006 156.444 224.24 156.444 225.658C156.444 227.108 156.673 228.371 157.129 229.446C157.593 230.521 158.245 231.356 159.084 231.951C159.931 232.546 160.925 232.843 162.066 232.843C162.815 232.843 163.496 232.713 164.107 232.452C164.718 232.192 165.235 231.817 165.659 231.328C166.082 230.839 166.384 230.253 166.563 229.568H169.447C169.284 230.676 168.881 231.674 168.237 232.562C167.602 233.442 166.759 234.143 165.708 234.664C164.665 235.177 163.451 235.434 162.066 235.434ZM179.187 235.483C177.997 235.483 176.918 235.259 175.948 234.811C174.979 234.355 174.209 233.699 173.639 232.843C173.068 231.98 172.783 230.937 172.783 229.715C172.783 228.639 172.995 227.768 173.419 227.1C173.842 226.423 174.409 225.894 175.117 225.511C175.826 225.128 176.608 224.843 177.464 224.655C178.327 224.46 179.195 224.305 180.067 224.191C181.207 224.044 182.132 223.934 182.841 223.861C183.558 223.78 184.079 223.645 184.405 223.458C184.739 223.27 184.906 222.945 184.906 222.48V222.382C184.906 221.177 184.576 220.24 183.916 219.572C183.265 218.904 182.275 218.57 180.947 218.57C179.57 218.57 178.49 218.871 177.708 219.474C176.926 220.077 176.376 220.72 176.058 221.405L173.321 220.427C173.81 219.287 174.462 218.399 175.276 217.763C176.099 217.119 176.995 216.671 177.965 216.419C178.943 216.158 179.904 216.028 180.849 216.028C181.452 216.028 182.144 216.101 182.926 216.248C183.717 216.386 184.478 216.675 185.212 217.115C185.953 217.555 186.568 218.219 187.057 219.107C187.546 219.995 187.79 221.185 187.79 222.676V235.043H184.906V232.501H184.76C184.564 232.908 184.238 233.344 183.782 233.809C183.326 234.273 182.719 234.668 181.961 234.994C181.203 235.32 180.279 235.483 179.187 235.483ZM179.627 232.892C180.767 232.892 181.729 232.668 182.511 232.22C183.301 231.772 183.896 231.193 184.295 230.485C184.702 229.776 184.906 229.03 184.906 228.248V225.609C184.784 225.755 184.515 225.89 184.1 226.012C183.692 226.126 183.22 226.228 182.682 226.317C182.152 226.399 181.635 226.472 181.13 226.537C180.633 226.594 180.23 226.643 179.92 226.684C179.171 226.782 178.47 226.941 177.818 227.161C177.175 227.373 176.653 227.694 176.254 228.126C175.863 228.55 175.667 229.128 175.667 229.861C175.667 230.864 176.038 231.621 176.779 232.134C177.529 232.64 178.478 232.892 179.627 232.892ZM193.054 235.043V216.272H195.841V219.107H196.036C196.378 218.179 196.997 217.425 197.894 216.847C198.79 216.268 199.8 215.979 200.924 215.979C201.136 215.979 201.401 215.983 201.719 215.991C202.036 215.999 202.277 216.011 202.44 216.028V218.961C202.342 218.936 202.118 218.9 201.767 218.851C201.425 218.794 201.063 218.765 200.68 218.765C199.767 218.765 198.953 218.957 198.236 219.34C197.527 219.714 196.965 220.236 196.549 220.904C196.142 221.564 195.938 222.317 195.938 223.165V235.043H193.054ZM205.858 235.043V216.272H208.645V219.107H208.84C209.182 218.179 209.801 217.425 210.698 216.847C211.594 216.268 212.604 215.979 213.728 215.979C213.94 215.979 214.205 215.983 214.523 215.991C214.84 215.999 215.081 216.011 215.244 216.028V218.961C215.146 218.936 214.922 218.9 214.572 218.851C214.229 218.794 213.867 218.765 213.484 218.765C212.571 218.765 211.757 218.957 211.04 219.34C210.331 219.714 209.769 220.236 209.353 220.904C208.946 221.564 208.742 222.317 208.742 223.165V235.043H205.858ZM224.186 235.483C222.997 235.483 221.917 235.259 220.948 234.811C219.978 234.355 219.208 233.699 218.638 232.843C218.068 231.98 217.783 230.937 217.783 229.715C217.783 228.639 217.994 227.768 218.418 227.1C218.842 226.423 219.408 225.894 220.117 225.511C220.825 225.128 221.608 224.843 222.463 224.655C223.327 224.46 224.194 224.305 225.066 224.191C226.207 224.044 227.131 223.934 227.84 223.861C228.557 223.78 229.078 223.645 229.404 223.458C229.738 223.27 229.905 222.945 229.905 222.48V222.382C229.905 221.177 229.575 220.24 228.915 219.572C228.264 218.904 227.274 218.57 225.946 218.57C224.569 218.57 223.49 218.871 222.707 219.474C221.925 220.077 221.375 220.72 221.058 221.405L218.32 220.427C218.809 219.287 219.461 218.399 220.276 217.763C221.098 217.119 221.995 216.671 222.964 216.419C223.942 216.158 224.903 216.028 225.848 216.028C226.451 216.028 227.144 216.101 227.926 216.248C228.716 216.386 229.478 216.675 230.211 217.115C230.952 217.555 231.567 218.219 232.056 219.107C232.545 219.995 232.789 221.185 232.789 222.676V235.043H229.905V232.501H229.759C229.563 232.908 229.237 233.344 228.781 233.809C228.325 234.273 227.718 234.668 226.96 234.994C226.203 235.32 225.278 235.483 224.186 235.483ZM224.626 232.892C225.767 232.892 226.728 232.668 227.51 232.22C228.3 231.772 228.895 231.193 229.294 230.485C229.702 229.776 229.905 229.03 229.905 228.248V225.609C229.783 225.755 229.514 225.89 229.099 226.012C228.691 226.126 228.219 226.228 227.681 226.317C227.152 226.399 226.634 226.472 226.129 226.537C225.632 226.594 225.229 226.643 224.919 226.684C224.17 226.782 223.469 226.941 222.817 227.161C222.174 227.373 221.652 227.694 221.253 228.126C220.862 228.55 220.667 229.128 220.667 229.861C220.667 230.864 221.037 231.621 221.779 232.134C222.528 232.64 223.477 232.892 224.626 232.892ZM222.28 214.024L220.031 213.926C220.031 212.679 220.386 211.661 221.094 210.871C221.811 210.072 222.695 209.673 223.746 209.673C224.211 209.673 224.622 209.755 224.98 209.917C225.339 210.072 225.681 210.251 226.007 210.455C226.333 210.659 226.667 210.842 227.009 211.005C227.359 211.16 227.755 211.237 228.194 211.237C228.659 211.237 229.05 211.058 229.368 210.7C229.694 210.333 229.856 209.893 229.856 209.38L232.056 209.575C232.056 210.846 231.698 211.856 230.981 212.606C230.272 213.356 229.392 213.73 228.341 213.73C227.779 213.73 227.315 213.653 226.948 213.498C226.581 213.335 226.255 213.152 225.97 212.948C225.685 212.744 225.384 212.565 225.066 212.41C224.748 212.248 224.357 212.166 223.893 212.166C223.428 212.166 223.041 212.349 222.732 212.716C222.43 213.074 222.28 213.51 222.28 214.024ZM245.679 235.434C243.984 235.434 242.498 235.031 241.219 234.224C239.948 233.418 238.954 232.289 238.237 230.839C237.528 229.389 237.174 227.694 237.174 225.755C237.174 223.8 237.528 222.093 238.237 220.635C238.954 219.177 239.948 218.044 241.219 217.238C242.498 216.431 243.984 216.028 245.679 216.028C247.374 216.028 248.856 216.431 250.127 217.238C251.406 218.044 252.4 219.177 253.109 220.635C253.826 222.093 254.185 223.8 254.185 225.755C254.185 227.694 253.826 229.389 253.109 230.839C252.4 232.289 251.406 233.418 250.127 234.224C248.856 235.031 247.374 235.434 245.679 235.434ZM245.679 232.843C246.966 232.843 248.025 232.513 248.856 231.853C249.687 231.193 250.303 230.326 250.702 229.25C251.101 228.175 251.301 227.01 251.301 225.755C251.301 224.501 251.101 223.332 250.702 222.248C250.303 221.164 249.687 220.289 248.856 219.621C248.025 218.953 246.966 218.619 245.679 218.619C244.392 218.619 243.333 218.953 242.502 219.621C241.671 220.289 241.056 221.164 240.656 222.248C240.257 223.332 240.058 224.501 240.058 225.755C240.058 227.01 240.257 228.175 240.656 229.25C241.056 230.326 241.671 231.193 242.502 231.853C243.333 232.513 244.392 232.843 245.679 232.843Z" fill="black"/>
<rect x="69.0191" y="660.493" width="953.578" height="88.3655" rx="44.1828" fill="#AEAEAE"/>
<path d="M104.825 709.625V684.597H119.832V687.285H107.855V695.742H118.707V698.43H107.855V709.625H104.825ZM124.631 709.625V690.854H127.515V709.625H124.631ZM126.098 687.725C125.536 687.725 125.051 687.534 124.643 687.151C124.244 686.768 124.045 686.308 124.045 685.77C124.045 685.232 124.244 684.772 124.643 684.389C125.051 684.006 125.536 683.815 126.098 683.815C126.66 683.815 127.141 684.006 127.54 684.389C127.947 684.772 128.151 685.232 128.151 685.77C128.151 686.308 127.947 686.768 127.54 687.151C127.141 687.534 126.66 687.725 126.098 687.725ZM135.682 684.597V709.625H132.798V684.597H135.682ZM148.834 710.016C147.025 710.016 145.465 709.616 144.154 708.818C142.85 708.011 141.844 706.887 141.135 705.445C140.434 703.995 140.084 702.308 140.084 700.386C140.084 698.463 140.434 696.768 141.135 695.302C141.844 693.827 142.83 692.679 144.092 691.856C145.363 691.025 146.846 690.609 148.541 690.609C149.518 690.609 150.484 690.772 151.437 691.098C152.39 691.424 153.258 691.954 154.04 692.687C154.822 693.412 155.445 694.373 155.91 695.571C156.374 696.768 156.606 698.243 156.606 699.995V701.217H142.137V698.724H153.673C153.673 697.665 153.462 696.72 153.038 695.889C152.622 695.058 152.028 694.402 151.254 693.921C150.488 693.44 149.584 693.2 148.541 693.2C147.392 693.2 146.398 693.485 145.559 694.055C144.728 694.618 144.088 695.351 143.64 696.255C143.192 697.16 142.968 698.129 142.968 699.164V700.826C142.968 702.243 143.213 703.445 143.701 704.431C144.198 705.408 144.887 706.154 145.767 706.667C146.647 707.172 147.669 707.425 148.834 707.425C149.592 707.425 150.276 707.319 150.887 707.107C151.506 706.887 152.04 706.561 152.488 706.129C152.936 705.689 153.282 705.144 153.527 704.492L156.313 705.274C156.02 706.219 155.527 707.05 154.834 707.767C154.142 708.476 153.286 709.03 152.268 709.429C151.25 709.82 150.105 710.016 148.834 710.016ZM147.074 688.312L150.056 682.641H153.429L149.616 688.312H147.074ZM177.76 710.016C176.196 710.016 174.815 709.62 173.617 708.83C172.42 708.032 171.483 706.907 170.807 705.457C170.13 703.999 169.792 702.276 169.792 700.288C169.792 698.316 170.13 696.606 170.807 695.155C171.483 693.705 172.424 692.585 173.63 691.795C174.835 691.004 176.229 690.609 177.809 690.609C179.031 690.609 179.997 690.813 180.705 691.22C181.422 691.62 181.968 692.076 182.343 692.589C182.726 693.094 183.023 693.51 183.235 693.836H183.479V684.597H186.363V709.625H183.577V706.74H183.235C183.023 707.083 182.722 707.514 182.331 708.036C181.94 708.549 181.382 709.009 180.656 709.417C179.931 709.816 178.966 710.016 177.76 710.016ZM178.151 707.425C179.308 707.425 180.286 707.123 181.084 706.52C181.883 705.909 182.49 705.066 182.905 703.991C183.321 702.907 183.528 701.657 183.528 700.239C183.528 698.838 183.325 697.612 182.917 696.561C182.51 695.502 181.907 694.679 181.109 694.092C180.31 693.497 179.324 693.2 178.151 693.2C176.929 693.2 175.911 693.514 175.096 694.141C174.29 694.76 173.683 695.603 173.275 696.671C172.876 697.73 172.676 698.919 172.676 700.239C172.676 701.575 172.88 702.789 173.287 703.881C173.703 704.964 174.314 705.828 175.121 706.472C175.935 707.107 176.945 707.425 178.151 707.425ZM199.916 710.016C198.107 710.016 196.547 709.616 195.236 708.818C193.932 708.011 192.926 706.887 192.217 705.445C191.516 703.995 191.166 702.308 191.166 700.386C191.166 698.463 191.516 696.768 192.217 695.302C192.926 693.827 193.912 692.679 195.174 691.856C196.445 691.025 197.928 690.609 199.623 690.609C200.6 690.609 201.566 690.772 202.519 691.098C203.472 691.424 204.34 691.954 205.122 692.687C205.904 693.412 206.527 694.373 206.992 695.571C207.456 696.768 207.688 698.243 207.688 699.995V701.217H193.219V698.724H204.755C204.755 697.665 204.544 696.72 204.12 695.889C203.704 695.058 203.11 694.402 202.336 693.921C201.57 693.44 200.666 693.2 199.623 693.2C198.474 693.2 197.48 693.485 196.641 694.055C195.81 694.618 195.17 695.351 194.722 696.255C194.274 697.16 194.05 698.129 194.05 699.164V700.826C194.05 702.243 194.295 703.445 194.783 704.431C195.28 705.408 195.969 706.154 196.849 706.667C197.729 707.172 198.751 707.425 199.916 707.425C200.674 707.425 201.358 707.319 201.969 707.107C202.588 706.887 203.122 706.561 203.57 706.129C204.018 705.689 204.364 705.144 204.609 704.492L207.395 705.274C207.102 706.219 206.609 707.05 205.916 707.767C205.224 708.476 204.368 709.03 203.35 709.429C202.332 709.82 201.187 710.016 199.916 710.016ZM222.145 709.625V684.597H230.602C232.565 684.597 234.17 684.951 235.417 685.66C236.671 686.361 237.6 687.31 238.203 688.507C238.806 689.705 239.107 691.041 239.107 692.516C239.107 693.99 238.806 695.331 238.203 696.536C237.608 697.742 236.688 698.703 235.441 699.42C234.195 700.129 232.598 700.484 230.651 700.484H224.589V697.795H230.553C231.897 697.795 232.977 697.563 233.792 697.098C234.606 696.634 235.197 696.007 235.563 695.216C235.938 694.418 236.126 693.518 236.126 692.516C236.126 691.514 235.938 690.617 235.563 689.827C235.197 689.037 234.602 688.418 233.779 687.97C232.956 687.513 231.865 687.285 230.504 687.285H225.176V709.625H222.145ZM251.267 710.016C249.458 710.016 247.898 709.616 246.586 708.818C245.283 708.011 244.277 706.887 243.568 705.445C242.867 703.995 242.517 702.308 242.517 700.386C242.517 698.463 242.867 696.768 243.568 695.302C244.277 693.827 245.263 692.679 246.525 691.856C247.796 691.025 249.279 690.609 250.974 690.609C251.951 690.609 252.917 690.772 253.87 691.098C254.823 691.424 255.691 691.954 256.473 692.687C257.255 693.412 257.878 694.373 258.343 695.571C258.807 696.768 259.039 698.243 259.039 699.995V701.217H244.57V698.724H256.106C256.106 697.665 255.894 696.72 255.471 695.889C255.055 695.058 254.461 694.402 253.687 693.921C252.921 693.44 252.016 693.2 250.974 693.2C249.825 693.2 248.831 693.485 247.992 694.055C247.161 694.618 246.521 695.351 246.073 696.255C245.625 697.16 245.401 698.129 245.401 699.164V700.826C245.401 702.243 245.645 703.445 246.134 704.431C246.631 705.408 247.32 706.154 248.2 706.667C249.079 707.172 250.102 707.425 251.267 707.425C252.025 707.425 252.709 707.319 253.32 707.107C253.939 706.887 254.473 706.561 254.921 706.129C255.369 705.689 255.715 705.144 255.96 704.492L258.746 705.274C258.453 706.219 257.96 707.05 257.267 707.767C256.575 708.476 255.719 709.03 254.701 709.429C253.683 709.82 252.538 710.016 251.267 710.016ZM263.426 709.625V690.854H266.31V709.625H263.426ZM264.893 687.725C264.331 687.725 263.846 687.534 263.439 687.151C263.039 686.768 262.84 686.308 262.84 685.77C262.84 685.232 263.039 684.772 263.439 684.389C263.846 684.006 264.331 683.815 264.893 683.815C265.455 683.815 265.936 684.006 266.335 684.389C266.742 684.772 266.946 685.232 266.946 685.77C266.946 686.308 266.742 686.768 266.335 687.151C265.936 687.534 265.455 687.725 264.893 687.725ZM273.744 690.854L278.241 698.528L282.738 690.854H286.062L280.001 700.239L286.062 709.625H282.738L278.241 702.341L273.744 709.625H270.42L276.383 700.239L270.42 690.854H273.744ZM297.274 710.016C295.466 710.016 293.906 709.616 292.594 708.818C291.29 708.011 290.284 706.887 289.575 705.445C288.875 703.995 288.524 702.308 288.524 700.386C288.524 698.463 288.875 696.768 289.575 695.302C290.284 693.827 291.27 692.679 292.533 691.856C293.804 691.025 295.286 690.609 296.981 690.609C297.959 690.609 298.924 690.772 299.877 691.098C300.831 691.424 301.698 691.954 302.48 692.687C303.262 693.412 303.886 694.373 304.35 695.571C304.814 696.768 305.047 698.243 305.047 699.995V701.217H290.577V698.724H302.114C302.114 697.665 301.902 696.72 301.478 695.889C301.063 695.058 300.468 694.402 299.694 693.921C298.928 693.44 298.024 693.2 296.981 693.2C295.832 693.2 294.838 693.485 293.999 694.055C293.168 694.618 292.529 695.351 292.081 696.255C291.633 697.16 291.408 698.129 291.408 699.164V700.826C291.408 702.243 291.653 703.445 292.142 704.431C292.639 705.408 293.327 706.154 294.207 706.667C295.087 707.172 296.109 707.425 297.274 707.425C298.032 707.425 298.716 707.319 299.327 707.107C299.947 706.887 300.48 706.561 300.928 706.129C301.376 705.689 301.723 705.144 301.967 704.492L304.753 705.274C304.46 706.219 303.967 707.05 303.275 707.767C302.582 708.476 301.727 709.03 300.708 709.429C299.69 709.82 298.545 710.016 297.274 710.016Z" fill="black"/>
<rect x="68.8932" y="818.687" width="953.578" height="88.3655" rx="44.1828" fill="#AEAEAE"/>
<path d="M104.699 867.818V842.791H113.449C115.192 842.791 116.63 843.092 117.763 843.695C118.895 844.29 119.738 845.092 120.292 846.102C120.846 847.104 121.123 848.217 121.123 849.439C121.123 850.514 120.932 851.402 120.549 852.103C120.174 852.803 119.677 853.357 119.058 853.765C118.447 854.172 117.783 854.473 117.066 854.669V854.913C117.832 854.962 118.602 855.231 119.376 855.72C120.15 856.209 120.797 856.909 121.319 857.822C121.84 858.734 122.101 859.851 122.101 861.17C122.101 862.425 121.816 863.553 121.246 864.555C120.675 865.558 119.775 866.352 118.545 866.938C117.315 867.525 115.714 867.818 113.742 867.818H104.699ZM107.73 865.13H113.742C115.722 865.13 117.127 864.747 117.958 863.981C118.797 863.207 119.217 862.27 119.217 861.17C119.217 860.323 119.001 859.541 118.569 858.824C118.137 858.099 117.522 857.52 116.724 857.089C115.925 856.649 114.98 856.429 113.889 856.429H107.73V865.13ZM107.73 853.789H113.351C114.263 853.789 115.086 853.61 115.82 853.251C116.561 852.893 117.148 852.388 117.579 851.736C118.019 851.084 118.239 850.318 118.239 849.439C118.239 848.339 117.856 847.406 117.091 846.64C116.325 845.866 115.111 845.479 113.449 845.479H107.73V853.789ZM126.69 867.818V849.048H129.476V851.883H129.672C130.014 850.954 130.633 850.2 131.529 849.622C132.425 849.043 133.436 848.754 134.56 848.754C134.772 848.754 135.036 848.758 135.354 848.766C135.672 848.775 135.912 848.787 136.075 848.803V851.736C135.977 851.712 135.753 851.675 135.403 851.626C135.061 851.569 134.698 851.541 134.315 851.541C133.403 851.541 132.588 851.732 131.871 852.115C131.163 852.49 130.6 853.011 130.185 853.679C129.778 854.339 129.574 855.093 129.574 855.94V867.818H126.69ZM146.548 868.209C144.854 868.209 143.367 867.806 142.088 867C140.817 866.193 139.823 865.065 139.106 863.614C138.397 862.164 138.043 860.47 138.043 858.531C138.043 856.575 138.397 854.869 139.106 853.41C139.823 851.952 140.817 850.82 142.088 850.013C143.367 849.206 144.854 848.803 146.548 848.803C148.243 848.803 149.726 849.206 150.997 850.013C152.276 850.82 153.27 851.952 153.978 853.41C154.695 854.869 155.054 856.575 155.054 858.531C155.054 860.47 154.695 862.164 153.978 863.614C153.27 865.065 152.276 866.193 150.997 867C149.726 867.806 148.243 868.209 146.548 868.209ZM146.548 865.619C147.835 865.619 148.895 865.289 149.726 864.629C150.557 863.969 151.172 863.101 151.571 862.026C151.97 860.95 152.17 859.785 152.17 858.531C152.17 857.276 151.97 856.107 151.571 855.023C151.172 853.94 150.557 853.064 149.726 852.396C148.895 851.728 147.835 851.394 146.548 851.394C145.261 851.394 144.202 851.728 143.371 852.396C142.54 853.064 141.925 853.94 141.526 855.023C141.126 856.107 140.927 857.276 140.927 858.531C140.927 859.785 141.126 860.95 141.526 862.026C141.925 863.101 142.54 863.969 143.371 864.629C144.202 865.289 145.261 865.619 146.548 865.619ZM145.228 846.506L148.21 840.835H151.583L147.77 846.506H145.228ZM167.082 868.209C165.322 868.209 163.807 867.794 162.536 866.963C161.265 866.132 160.287 864.987 159.603 863.529C158.918 862.071 158.576 860.405 158.576 858.531C158.576 856.624 158.927 854.942 159.627 853.484C160.336 852.017 161.322 850.872 162.585 850.05C163.856 849.219 165.338 848.803 167.033 848.803C168.353 848.803 169.542 849.048 170.601 849.536C171.66 850.025 172.528 850.71 173.204 851.589C173.881 852.469 174.3 853.496 174.463 854.669H171.579C171.359 853.814 170.87 853.056 170.113 852.396C169.363 851.728 168.353 851.394 167.082 851.394C165.958 851.394 164.972 851.687 164.124 852.274C163.285 852.852 162.629 853.671 162.157 854.73C161.693 855.781 161.46 857.015 161.46 858.433C161.46 859.883 161.688 861.146 162.145 862.221C162.609 863.297 163.261 864.132 164.1 864.727C164.947 865.321 165.941 865.619 167.082 865.619C167.831 865.619 168.512 865.488 169.123 865.228C169.734 864.967 170.251 864.592 170.675 864.103C171.098 863.614 171.4 863.028 171.579 862.344H174.463C174.3 863.452 173.897 864.45 173.253 865.338C172.618 866.217 171.775 866.918 170.724 867.44C169.681 867.953 168.467 868.209 167.082 868.209ZM186.305 868.209C184.61 868.209 183.123 867.806 181.844 867C180.573 866.193 179.579 865.065 178.862 863.614C178.154 862.164 177.799 860.47 177.799 858.531C177.799 856.575 178.154 854.869 178.862 853.41C179.579 851.952 180.573 850.82 181.844 850.013C183.123 849.206 184.61 848.803 186.305 848.803C187.999 848.803 189.482 849.206 190.753 850.013C192.032 850.82 193.026 851.952 193.735 853.41C194.452 854.869 194.81 856.575 194.81 858.531C194.81 860.47 194.452 862.164 193.735 863.614C193.026 865.065 192.032 866.193 190.753 867C189.482 867.806 187.999 868.209 186.305 868.209ZM186.305 865.619C187.592 865.619 188.651 865.289 189.482 864.629C190.313 863.969 190.928 863.101 191.327 862.026C191.727 860.95 191.926 859.785 191.926 858.531C191.926 857.276 191.727 856.107 191.327 855.023C190.928 853.94 190.313 853.064 189.482 852.396C188.651 851.728 187.592 851.394 186.305 851.394C185.018 851.394 183.958 851.728 183.127 852.396C182.296 853.064 181.681 853.94 181.282 855.023C180.883 856.107 180.683 857.276 180.683 858.531C180.683 859.785 180.883 860.95 181.282 862.026C181.681 863.101 182.296 863.969 183.127 864.629C183.958 865.289 185.018 865.619 186.305 865.619ZM202.097 842.791V867.818H199.213V842.791H202.097ZM207.379 867.818V849.048H210.263V867.818H207.379ZM208.846 845.919C208.284 845.919 207.799 845.728 207.391 845.345C206.992 844.962 206.793 844.501 206.793 843.964C206.793 843.426 206.992 842.966 207.391 842.583C207.799 842.2 208.284 842.009 208.846 842.009C209.408 842.009 209.888 842.2 210.288 842.583C210.695 842.966 210.899 843.426 210.899 843.964C210.899 844.501 210.695 844.962 210.288 845.345C209.888 845.728 209.408 845.919 208.846 845.919ZM228.842 853.251L226.251 853.985C226.088 853.553 225.848 853.133 225.53 852.726C225.22 852.31 224.797 851.968 224.259 851.699C223.721 851.431 223.033 851.296 222.194 851.296C221.045 851.296 220.088 851.561 219.322 852.09C218.564 852.612 218.185 853.276 218.185 854.082C218.185 854.799 218.446 855.366 218.967 855.781C219.489 856.197 220.303 856.543 221.411 856.82L224.198 857.504C225.876 857.912 227.127 858.535 227.949 859.374C228.772 860.205 229.184 861.276 229.184 862.588C229.184 863.663 228.874 864.625 228.255 865.472C227.644 866.319 226.789 866.987 225.689 867.476C224.589 867.965 223.31 868.209 221.851 868.209C219.937 868.209 218.352 867.794 217.098 866.963C215.843 866.132 215.049 864.918 214.715 863.321L217.452 862.637C217.713 863.647 218.206 864.405 218.931 864.91C219.664 865.415 220.621 865.668 221.803 865.668C223.147 865.668 224.214 865.382 225.004 864.812C225.803 864.234 226.202 863.541 226.202 862.735C226.202 862.083 225.974 861.537 225.518 861.097C225.061 860.649 224.361 860.315 223.416 860.095L220.287 859.362C218.568 858.954 217.305 858.323 216.499 857.468C215.7 856.604 215.301 855.524 215.301 854.229C215.301 853.17 215.599 852.233 216.193 851.418C216.796 850.604 217.615 849.964 218.65 849.5C219.692 849.035 220.874 848.803 222.194 848.803C224.051 848.803 225.509 849.21 226.569 850.025C227.636 850.84 228.393 851.915 228.842 853.251Z" fill="black"/>
<rect x="69.0191" y="976.88" width="953.578" height="88.3655" rx="44.1828" fill="#AEAEAE"/>
<path d="M104.825 1026.01V1000.98H113.281C115.245 1000.98 116.85 1001.34 118.096 1002.05C119.351 1002.75 120.28 1003.7 120.883 1004.89C121.485 1006.09 121.787 1007.43 121.787 1008.9C121.787 1010.38 121.485 1011.72 120.883 1012.92C120.288 1014.13 119.367 1015.09 118.121 1015.81C116.874 1016.52 115.277 1016.87 113.33 1016.87H107.269V1014.18H113.232C114.577 1014.18 115.656 1013.95 116.471 1013.49C117.286 1013.02 117.876 1012.39 118.243 1011.6C118.618 1010.81 118.805 1009.9 118.805 1008.9C118.805 1007.9 118.618 1007 118.243 1006.21C117.876 1005.42 117.282 1004.8 116.459 1004.36C115.636 1003.9 114.544 1003.67 113.184 1003.67H107.855V1026.01H104.825ZM131.802 1026.45C130.612 1026.45 129.533 1026.23 128.563 1025.78C127.594 1025.32 126.824 1024.67 126.253 1023.81C125.683 1022.95 125.398 1021.91 125.398 1020.68C125.398 1019.61 125.61 1018.74 126.034 1018.07C126.457 1017.39 127.023 1016.86 127.732 1016.48C128.441 1016.1 129.223 1015.81 130.079 1015.62C130.942 1015.43 131.81 1015.27 132.682 1015.16C133.822 1015.01 134.747 1014.9 135.456 1014.83C136.173 1014.75 136.694 1014.61 137.02 1014.43C137.354 1014.24 137.521 1013.91 137.521 1013.45V1013.35C137.521 1012.15 137.191 1011.21 136.531 1010.54C135.879 1009.87 134.889 1009.54 133.561 1009.54C132.185 1009.54 131.105 1009.84 130.323 1010.44C129.541 1011.05 128.991 1011.69 128.673 1012.37L125.936 1011.4C126.425 1010.26 127.076 1009.37 127.891 1008.73C128.714 1008.09 129.61 1007.64 130.58 1007.39C131.557 1007.13 132.519 1007 133.464 1007C134.067 1007 134.759 1007.07 135.541 1007.22C136.331 1007.35 137.093 1007.64 137.826 1008.08C138.568 1008.52 139.183 1009.19 139.672 1010.08C140.161 1010.96 140.405 1012.15 140.405 1013.64V1026.01H137.521V1023.47H137.374C137.179 1023.88 136.853 1024.31 136.397 1024.78C135.94 1025.24 135.333 1025.64 134.576 1025.96C133.818 1026.29 132.893 1026.45 131.802 1026.45ZM132.242 1023.86C133.382 1023.86 134.344 1023.64 135.126 1023.19C135.916 1022.74 136.511 1022.16 136.91 1021.45C137.317 1020.74 137.521 1020 137.521 1019.22V1016.58C137.399 1016.72 137.13 1016.86 136.714 1016.98C136.307 1017.09 135.834 1017.2 135.297 1017.29C134.767 1017.37 134.25 1017.44 133.745 1017.51C133.248 1017.56 132.844 1017.61 132.535 1017.65C131.785 1017.75 131.085 1017.91 130.433 1018.13C129.789 1018.34 129.268 1018.66 128.869 1019.09C128.478 1019.52 128.282 1020.1 128.282 1020.83C128.282 1021.83 128.653 1022.59 129.394 1023.1C130.144 1023.61 131.093 1023.86 132.242 1023.86ZM153.295 1026.4C151.535 1026.4 150.019 1025.99 148.749 1025.16C147.478 1024.33 146.5 1023.18 145.816 1021.72C145.131 1020.26 144.789 1018.6 144.789 1016.72C144.789 1014.82 145.139 1013.14 145.84 1011.68C146.549 1010.21 147.535 1009.07 148.797 1008.24C150.068 1007.41 151.551 1007 153.246 1007C154.566 1007 155.755 1007.24 156.814 1007.73C157.873 1008.22 158.741 1008.9 159.417 1009.78C160.093 1010.66 160.513 1011.69 160.676 1012.86H157.792C157.572 1012.01 157.083 1011.25 156.325 1010.59C155.576 1009.92 154.566 1009.59 153.295 1009.59C152.17 1009.59 151.184 1009.88 150.337 1010.47C149.498 1011.05 148.842 1011.86 148.37 1012.92C147.905 1013.97 147.673 1015.21 147.673 1016.63C147.673 1018.08 147.901 1019.34 148.357 1020.41C148.822 1021.49 149.474 1022.33 150.313 1022.92C151.16 1023.51 152.154 1023.81 153.295 1023.81C154.044 1023.81 154.724 1023.68 155.335 1023.42C155.946 1023.16 156.464 1022.79 156.887 1022.3C157.311 1021.81 157.613 1021.22 157.792 1020.54H160.676C160.513 1021.64 160.11 1022.64 159.466 1023.53C158.83 1024.41 157.987 1025.11 156.936 1025.63C155.893 1026.15 154.68 1026.4 153.295 1026.4ZM151.926 1025.91H154.321L154.126 1026.89C154.761 1026.99 155.344 1027.25 155.873 1027.69C156.403 1028.13 156.667 1028.82 156.667 1029.78C156.667 1030.83 156.232 1031.68 155.36 1032.34C154.496 1033.01 153.221 1033.34 151.535 1033.34L151.437 1031.44C152.195 1031.44 152.822 1031.32 153.319 1031.07C153.824 1030.83 154.077 1030.44 154.077 1029.87C154.077 1029.31 153.869 1028.93 153.453 1028.72C153.038 1028.52 152.366 1028.38 151.437 1028.31L151.926 1025.91ZM172.518 1026.4C170.823 1026.4 169.336 1026 168.057 1025.19C166.786 1024.39 165.792 1023.26 165.075 1021.81C164.366 1020.36 164.012 1018.66 164.012 1016.72C164.012 1014.77 164.366 1013.06 165.075 1011.6C165.792 1010.15 166.786 1009.01 168.057 1008.21C169.336 1007.4 170.823 1007 172.518 1007C174.212 1007 175.695 1007.4 176.966 1008.21C178.245 1009.01 179.239 1010.15 179.948 1011.6C180.665 1013.06 181.023 1014.77 181.023 1016.72C181.023 1018.66 180.665 1020.36 179.948 1021.81C179.239 1023.26 178.245 1024.39 176.966 1025.19C175.695 1026 174.212 1026.4 172.518 1026.4ZM172.518 1023.81C173.805 1023.81 174.864 1023.48 175.695 1022.82C176.526 1022.16 177.141 1021.29 177.54 1020.22C177.939 1019.14 178.139 1017.98 178.139 1016.72C178.139 1015.47 177.939 1014.3 177.54 1013.22C177.141 1012.13 176.526 1011.26 175.695 1010.59C174.864 1009.92 173.805 1009.59 172.518 1009.59C171.23 1009.59 170.171 1009.92 169.34 1010.59C168.509 1011.26 167.894 1012.13 167.495 1013.22C167.096 1014.3 166.896 1015.47 166.896 1016.72C166.896 1017.98 167.096 1019.14 167.495 1020.22C167.894 1021.29 168.509 1022.16 169.34 1022.82C170.171 1023.48 171.23 1023.81 172.518 1023.81ZM193.051 1026.4C191.291 1026.4 189.776 1025.99 188.505 1025.16C187.234 1024.33 186.257 1023.18 185.572 1021.72C184.888 1020.26 184.546 1018.6 184.546 1016.72C184.546 1014.82 184.896 1013.14 185.597 1011.68C186.305 1010.21 187.291 1009.07 188.554 1008.24C189.825 1007.41 191.308 1007 193.002 1007C194.322 1007 195.512 1007.24 196.571 1007.73C197.63 1008.22 198.497 1008.9 199.174 1009.78C199.85 1010.66 200.269 1011.69 200.432 1012.86H197.548C197.328 1012.01 196.84 1011.25 196.082 1010.59C195.332 1009.92 194.322 1009.59 193.051 1009.59C191.927 1009.59 190.941 1009.88 190.094 1010.47C189.255 1011.05 188.599 1011.86 188.126 1012.92C187.662 1013.97 187.43 1015.21 187.43 1016.63C187.43 1018.08 187.658 1019.34 188.114 1020.41C188.578 1021.49 189.23 1022.33 190.069 1022.92C190.917 1023.51 191.911 1023.81 193.051 1023.81C193.801 1023.81 194.481 1023.68 195.092 1023.42C195.703 1023.16 196.22 1022.79 196.644 1022.3C197.068 1021.81 197.369 1021.22 197.548 1020.54H200.432C200.269 1021.64 199.866 1022.64 199.223 1023.53C198.587 1024.41 197.744 1025.11 196.693 1025.63C195.65 1026.15 194.436 1026.4 193.051 1026.4ZM210.172 1026.45C208.983 1026.45 207.903 1026.23 206.934 1025.78C205.964 1025.32 205.194 1024.67 204.624 1023.81C204.054 1022.95 203.769 1021.91 203.769 1020.68C203.769 1019.61 203.98 1018.74 204.404 1018.07C204.828 1017.39 205.394 1016.86 206.103 1016.48C206.812 1016.1 207.594 1015.81 208.449 1015.62C209.313 1015.43 210.18 1015.27 211.052 1015.16C212.193 1015.01 213.117 1014.9 213.826 1014.83C214.543 1014.75 215.064 1014.61 215.39 1014.43C215.724 1014.24 215.891 1013.91 215.891 1013.45V1013.35C215.891 1012.15 215.561 1011.21 214.902 1010.54C214.25 1009.87 213.26 1009.54 211.932 1009.54C210.555 1009.54 209.476 1009.84 208.693 1010.44C207.911 1011.05 207.361 1011.69 207.044 1012.37L204.306 1011.4C204.795 1010.26 205.447 1009.37 206.262 1008.73C207.084 1008.09 207.981 1007.64 208.95 1007.39C209.928 1007.13 210.889 1007 211.834 1007C212.437 1007 213.13 1007.07 213.912 1007.22C214.702 1007.35 215.464 1007.64 216.197 1008.08C216.938 1008.52 217.553 1009.19 218.042 1010.08C218.531 1010.96 218.775 1012.15 218.775 1013.64V1026.01H215.891V1023.47H215.745C215.549 1023.88 215.223 1024.31 214.767 1024.78C214.311 1025.24 213.704 1025.64 212.946 1025.96C212.189 1026.29 211.264 1026.45 210.172 1026.45ZM210.612 1023.86C211.753 1023.86 212.714 1023.64 213.496 1023.19C214.286 1022.74 214.881 1022.16 215.28 1021.45C215.688 1020.74 215.891 1020 215.891 1019.22V1016.58C215.769 1016.72 215.5 1016.86 215.085 1016.98C214.678 1017.09 214.205 1017.2 213.667 1017.29C213.138 1017.37 212.62 1017.44 212.115 1017.51C211.618 1017.56 211.215 1017.61 210.905 1017.65C210.156 1017.75 209.455 1017.91 208.803 1018.13C208.16 1018.34 207.638 1018.66 207.239 1019.09C206.848 1019.52 206.653 1020.1 206.653 1020.83C206.653 1021.83 207.023 1022.59 207.765 1023.1C208.514 1023.61 209.463 1023.86 210.612 1023.86Z" fill="black"/>
<path d="M247.334 116V46.1818H274.879C280.175 46.1818 284.686 47.1932 288.413 49.2159C292.141 51.2159 294.982 54 296.936 57.5682C298.913 61.1136 299.902 65.2045 299.902 69.8409C299.902 74.4773 298.902 78.5682 296.902 82.1136C294.902 85.6591 292.004 88.4205 288.209 90.3977C284.436 92.375 279.868 93.3636 274.504 93.3636H256.947V81.5341H272.118C274.959 81.5341 277.3 81.0455 279.141 80.0682C281.004 79.0682 282.391 77.6932 283.3 75.9432C284.232 74.1705 284.697 72.1364 284.697 69.8409C284.697 67.5227 284.232 65.5 283.3 63.7727C282.391 62.0227 281.004 60.6705 279.141 59.7159C277.277 58.7386 274.913 58.25 272.05 58.25H262.095V116H247.334ZM332.033 117.023C326.737 117.023 322.158 115.898 318.294 113.648C314.453 111.375 311.487 108.216 309.396 104.17C307.305 100.102 306.26 95.3864 306.26 90.0227C306.26 84.6136 307.305 79.8864 309.396 75.8409C311.487 71.7727 314.453 68.6136 318.294 66.3636C322.158 64.0909 326.737 62.9545 332.033 62.9545C337.328 62.9545 341.896 64.0909 345.737 66.3636C349.601 68.6136 352.578 71.7727 354.669 75.8409C356.76 79.8864 357.805 84.6136 357.805 90.0227C357.805 95.3864 356.76 100.102 354.669 104.17C352.578 108.216 349.601 111.375 345.737 113.648C341.896 115.898 337.328 117.023 332.033 117.023ZM332.101 105.773C334.51 105.773 336.521 105.091 338.135 103.727C339.749 102.341 340.964 100.455 341.783 98.0682C342.624 95.6818 343.044 92.9659 343.044 89.9205C343.044 86.875 342.624 84.1591 341.783 81.7727C340.964 79.3864 339.749 77.5 338.135 76.1136C336.521 74.7273 334.51 74.0341 332.101 74.0341C329.669 74.0341 327.624 74.7273 325.964 76.1136C324.328 77.5 323.089 79.3864 322.249 81.7727C321.43 84.1591 321.021 86.875 321.021 89.9205C321.021 92.9659 321.43 95.6818 322.249 98.0682C323.089 100.455 324.328 102.341 325.964 103.727C327.624 105.091 329.669 105.773 332.101 105.773ZM326.817 56.8864L334.044 41.375H347.476L337.078 56.8864H326.817ZM410.817 78.5682L397.521 79.3864C397.294 78.25 396.805 77.2273 396.055 76.3182C395.305 75.3864 394.317 74.6477 393.089 74.1023C391.885 73.5341 390.442 73.25 388.76 73.25C386.51 73.25 384.612 73.7273 383.067 74.6818C381.521 75.6136 380.749 76.8636 380.749 78.4318C380.749 79.6818 381.249 80.7386 382.249 81.6023C383.249 82.4659 384.964 83.1591 387.396 83.6818L396.874 85.5909C401.964 86.6364 405.76 88.3182 408.26 90.6364C410.76 92.9545 412.01 96 412.01 99.7727C412.01 103.205 410.999 106.216 408.976 108.807C406.976 111.398 404.226 113.42 400.726 114.875C397.249 116.307 393.237 117.023 388.692 117.023C381.76 117.023 376.237 115.58 372.124 112.693C368.033 109.784 365.635 105.83 364.93 100.83L379.214 100.08C379.646 102.193 380.692 103.807 382.351 104.92C384.01 106.011 386.135 106.557 388.726 106.557C391.271 106.557 393.317 106.068 394.862 105.091C396.43 104.091 397.226 102.807 397.249 101.239C397.226 99.9205 396.669 98.8409 395.578 98C394.487 97.1364 392.805 96.4773 390.533 96.0227L381.464 94.2159C376.351 93.1932 372.544 91.4205 370.044 88.8977C367.567 86.375 366.328 83.1591 366.328 79.25C366.328 75.8864 367.237 72.9886 369.055 70.5568C370.896 68.125 373.476 66.25 376.794 64.9318C380.135 63.6136 384.044 62.9545 388.521 62.9545C395.135 62.9545 400.339 64.3523 404.135 67.1477C407.953 69.9432 410.18 73.75 410.817 78.5682ZM453.78 81.5682V93.0909H421.939V81.5682H453.78ZM478.462 116H462.643L486.746 46.1818H505.768L529.837 116H514.018L496.53 62.1364H495.984L478.462 116ZM477.473 88.5568H514.837V100.08H477.473V88.5568ZM537.967 116V63.6364H551.808V72.875H552.422C553.513 69.8068 555.331 67.3864 557.876 65.6136C560.422 63.8409 563.467 62.9545 567.013 62.9545C570.604 62.9545 573.661 63.8523 576.183 65.6477C578.706 67.4205 580.388 69.8295 581.229 72.875H581.774C582.842 69.875 584.774 67.4773 587.57 65.6818C590.388 63.8636 593.717 62.9545 597.558 62.9545C602.445 62.9545 606.411 64.5114 609.456 67.625C612.524 70.7159 614.058 75.1023 614.058 80.7841V116H599.57V83.6477C599.57 80.7386 598.797 78.5568 597.251 77.1023C595.706 75.6477 593.774 74.9205 591.456 74.9205C588.82 74.9205 586.763 75.7614 585.286 77.4432C583.808 79.1023 583.07 81.2955 583.07 84.0227V116H568.99V83.3409C568.99 80.7727 568.251 78.7273 566.774 77.2045C565.32 75.6818 563.399 74.9205 561.013 74.9205C559.399 74.9205 557.945 75.3295 556.649 76.1477C555.376 76.9432 554.365 78.0682 553.615 79.5227C552.865 80.9545 552.49 82.6364 552.49 84.5682V116H537.967ZM640.462 116.989C637.121 116.989 634.143 116.409 631.53 115.25C628.916 114.068 626.848 112.33 625.325 110.034C623.825 107.716 623.075 104.83 623.075 101.375C623.075 98.4659 623.609 96.0227 624.678 94.0455C625.746 92.0682 627.2 90.4773 629.041 89.2727C630.882 88.0682 632.973 87.1591 635.314 86.5455C637.678 85.9318 640.155 85.5 642.746 85.25C645.791 84.9318 648.246 84.6364 650.109 84.3636C651.973 84.0682 653.325 83.6364 654.166 83.0682C655.007 82.5 655.428 81.6591 655.428 80.5455V80.3409C655.428 78.1818 654.746 76.5114 653.382 75.3295C652.041 74.1477 650.132 73.5568 647.655 73.5568C645.041 73.5568 642.962 74.1364 641.416 75.2955C639.871 76.4318 638.848 77.8636 638.348 79.5909L624.916 78.5C625.598 75.3182 626.939 72.5682 628.939 70.25C630.939 67.9091 633.518 66.1136 636.678 64.8636C639.859 63.5909 643.541 62.9545 647.723 62.9545C650.632 62.9545 653.416 63.2955 656.075 63.9773C658.757 64.6591 661.132 65.7159 663.2 67.1477C665.291 68.5795 666.939 70.4205 668.143 72.6705C669.348 74.8977 669.95 77.5682 669.95 80.6818V116H656.178V108.739H655.768C654.928 110.375 653.803 111.818 652.393 113.068C650.984 114.295 649.291 115.261 647.314 115.966C645.337 116.648 643.053 116.989 640.462 116.989ZM644.621 106.966C646.757 106.966 648.643 106.545 650.28 105.705C651.916 104.841 653.2 103.682 654.132 102.227C655.064 100.773 655.53 99.125 655.53 97.2841V91.7273C655.075 92.0227 654.45 92.2955 653.655 92.5455C652.882 92.7727 652.007 92.9886 651.03 93.1932C650.053 93.375 649.075 93.5455 648.098 93.7045C647.121 93.8409 646.234 93.9659 645.439 94.0795C643.734 94.3295 642.246 94.7273 640.973 95.2727C639.7 95.8182 638.712 96.5568 638.007 97.4886C637.303 98.3977 636.95 99.5341 636.95 100.898C636.95 102.875 637.666 104.386 639.098 105.432C640.553 106.455 642.393 106.966 644.621 106.966ZM695.74 85.7273V116H681.217V63.6364H695.058V72.875H695.672C696.831 69.8295 698.774 67.4205 701.501 65.6477C704.229 63.8523 707.536 62.9545 711.422 62.9545C715.058 62.9545 718.229 63.75 720.933 65.3409C723.638 66.9318 725.74 69.2045 727.24 72.1591C728.74 75.0909 729.49 78.5909 729.49 82.6591V116H714.967V85.25C714.99 82.0455 714.172 79.5455 712.513 77.75C710.854 75.9318 708.57 75.0227 705.661 75.0227C703.706 75.0227 701.979 75.4432 700.479 76.2841C699.001 77.125 697.842 78.3523 697.001 79.9659C696.183 81.5568 695.763 83.4773 695.74 85.7273ZM755.459 85.7273V116H740.936V46.1818H755.05V72.875H755.663C756.845 69.7841 758.754 67.3636 761.391 65.6136C764.027 63.8409 767.334 62.9545 771.311 62.9545C774.947 62.9545 778.118 63.75 780.822 65.3409C783.55 66.9091 785.663 69.1705 787.163 72.125C788.686 75.0568 789.436 78.5682 789.413 82.6591V116H774.891V85.25C774.913 82.0227 774.095 79.5114 772.436 77.7159C770.8 75.9205 768.504 75.0227 765.55 75.0227C763.572 75.0227 761.822 75.4432 760.3 76.2841C758.8 77.125 757.618 78.3523 756.754 79.9659C755.913 81.5568 755.482 83.4773 755.459 85.7273ZM815.774 116.989C812.433 116.989 809.456 116.409 806.842 115.25C804.229 114.068 802.161 112.33 800.638 110.034C799.138 107.716 798.388 104.83 798.388 101.375C798.388 98.4659 798.922 96.0227 799.99 94.0455C801.058 92.0682 802.513 90.4773 804.354 89.2727C806.195 88.0682 808.286 87.1591 810.626 86.5455C812.99 85.9318 815.467 85.5 818.058 85.25C821.104 84.9318 823.558 84.6364 825.422 84.3636C827.286 84.0682 828.638 83.6364 829.479 83.0682C830.32 82.5 830.74 81.6591 830.74 80.5455V80.3409C830.74 78.1818 830.058 76.5114 828.695 75.3295C827.354 74.1477 825.445 73.5568 822.967 73.5568C820.354 73.5568 818.274 74.1364 816.729 75.2955C815.183 76.4318 814.161 77.8636 813.661 79.5909L800.229 78.5C800.911 75.3182 802.251 72.5682 804.251 70.25C806.251 67.9091 808.831 66.1136 811.99 64.8636C815.172 63.5909 818.854 62.9545 823.036 62.9545C825.945 62.9545 828.729 63.2955 831.388 63.9773C834.07 64.6591 836.445 65.7159 838.513 67.1477C840.604 68.5795 842.251 70.4205 843.456 72.6705C844.661 74.8977 845.263 77.5682 845.263 80.6818V116H831.49V108.739H831.081C830.24 110.375 829.115 111.818 827.706 113.068C826.297 114.295 824.604 115.261 822.626 115.966C820.649 116.648 818.365 116.989 815.774 116.989ZM819.933 106.966C822.07 106.966 823.956 106.545 825.592 105.705C827.229 104.841 828.513 103.682 829.445 102.227C830.376 100.773 830.842 99.125 830.842 97.2841V91.7273C830.388 92.0227 829.763 92.2955 828.967 92.5455C828.195 92.7727 827.32 92.9886 826.342 93.1932C825.365 93.375 824.388 93.5455 823.411 93.7045C822.433 93.8409 821.547 93.9659 820.751 94.0795C819.047 94.3295 817.558 94.7273 816.286 95.2727C815.013 95.8182 814.024 96.5568 813.32 97.4886C812.615 98.3977 812.263 99.5341 812.263 100.898C812.263 102.875 812.979 104.386 814.411 105.432C815.865 106.455 817.706 106.966 819.933 106.966ZM813.831 57.1932L805.751 57.0909C805.751 52.75 806.82 49.4205 808.956 47.1023C811.115 44.7841 813.74 43.6136 816.831 43.5909C818.422 43.5909 819.786 43.8523 820.922 44.375C822.081 44.875 823.115 45.4659 824.024 46.1477C824.956 46.8295 825.842 47.4318 826.683 47.9545C827.524 48.4545 828.433 48.7045 829.411 48.7045C830.729 48.6818 831.729 48.1932 832.411 47.2386C833.115 46.2614 833.467 44.9886 833.467 43.4205L841.411 43.6591C841.365 47.9545 840.274 51.2727 838.138 53.6136C836.001 55.9318 833.399 57.1023 830.331 57.125C828.626 57.125 827.195 56.875 826.036 56.375C824.899 55.8523 823.899 55.2614 823.036 54.6023C822.172 53.9205 821.331 53.3182 820.513 52.7955C819.695 52.2727 818.774 52.0114 817.751 52.0114C816.57 52.0114 815.615 52.4773 814.888 53.4091C814.183 54.3409 813.831 55.6023 813.831 57.1932Z" fill="black"/>
</svg>
